if (_typeface_js && _typeface_js.loadFace) _typeface_js.loadFace({"glyphs":{"ợ":{"x_min":52.84375,"x_max":769.546875,"ha":768,"o":"m 383 594 b 586 338 529 595 586 452 b 380 76 584 186 497 76 b 177 334 261 76 177 187 b 383 594 177 461 240 594 m 652 768 b 676 687 666 744 676 716 b 619 631 675 651 655 631 b 501 668 576 631 534 658 b 386 686 463 679 427 686 b 52 330 201 686 52 554 b 375 -15 52 118 194 -15 b 709 341 536 -15 709 93 b 640 563 709 430 684 506 b 769 683 725 559 769 609 b 745 784 769 722 759 756 l 652 768 m 383 -111 b 312 -183 344 -111 312 -143 b 382 -254 312 -220 341 -254 b 451 -183 423 -254 451 -220 b 383 -111 451 -143 422 -111 "},"":{"x_min":-46.953125,"x_max":466.9375,"ha":418,"o":"m 16 1001 b 84 1069 57 1001 84 1030 b 19 1138 84 1108 57 1138 b -46 1069 -17 1138 -46 1108 b 16 1001 -46 1033 -20 1001 m 397 1001 b 466 1069 439 1001 466 1030 b 401 1138 466 1108 439 1138 b 334 1069 364 1138 334 1108 b 397 1001 334 1033 361 1001 m 78 1150 l 240 987 l 333 987 l 221 1150 l 78 1150 "},"Ẩ":{"x_min":36.109375,"x_max":818.0625,"ha":850,"o":"m 588 294 l 688 0 l 818 0 l 498 935 l 354 935 l 36 0 l 161 0 l 256 294 l 588 294 m 281 388 l 373 659 b 420 828 393 716 406 773 l 423 828 b 472 658 437 774 451 719 l 563 388 l 281 388 m 384 1144 l 255 985 l 350 985 l 426 1081 l 429 1081 l 506 985 l 602 985 l 472 1144 l 384 1144 m 637 1046 b 733 1191 673 1110 733 1124 b 623 1288 733 1245 686 1288 b 491 1199 555 1288 515 1248 l 536 1173 b 604 1223 551 1196 575 1223 b 651 1178 630 1223 651 1205 b 579 1063 651 1134 601 1120 l 637 1046 "},"₅":{"x_min":26.390625,"x_max":387.5,"ha":428,"o":"m 372 335 l 91 335 l 55 69 b 134 75 76 72 104 75 b 291 -34 247 75 291 29 b 169 -139 291 -101 231 -139 b 45 -110 116 -139 69 -123 l 26 -178 b 172 -212 54 -195 111 -212 b 387 -26 300 -212 387 -134 b 311 112 387 42 352 89 b 181 142 273 135 227 142 b 138 140 163 142 150 142 l 156 258 l 372 258 l 372 335 "},"ǻ":{"x_min":48.90625,"x_max":583.046875,"ha":669,"o":"m 412 1158 l 263 1011 l 349 1011 l 546 1158 l 412 1158 m 573 412 b 317 686 573 545 523 686 b 97 627 233 686 152 662 l 125 545 b 299 595 172 577 237 595 b 452 441 437 597 452 495 l 452 427 b 48 177 193 429 48 340 b 253 -15 48 80 118 -15 b 458 84 349 -15 421 31 l 462 84 l 473 0 l 583 0 b 573 161 576 45 573 102 l 573 412 m 455 226 b 449 187 455 213 453 200 b 285 75 430 130 373 75 b 170 191 223 75 170 111 b 453 343 170 322 322 345 l 455 226 m 334 722 b 473 848 412 722 473 776 b 335 979 473 923 417 979 b 194 848 248 979 194 922 b 334 722 194 777 251 722 m 333 773 b 265 848 292 773 265 811 b 331 927 265 890 290 927 b 405 850 377 927 405 893 b 333 773 405 808 376 773 "},"":{"x_min":27.78125,"x_max":281.9375,"ha":394,"o":"m 27 1006 l 27 930 l 186 930 l 186 -25 l 27 -25 l 27 -101 l 281 -101 l 281 1006 l 27 1006 "},"Ổ":{"x_min":50,"x_max":905.5625,"ha":957,"o":"m 483 952 b 50 460 233 952 50 758 b 470 -15 50 177 222 -15 b 905 477 709 -15 905 156 b 483 952 905 756 740 952 m 479 853 b 777 471 680 853 777 659 b 477 83 777 259 669 83 b 177 463 286 83 177 262 b 479 853 177 667 277 853 m 440 1144 l 312 985 l 406 985 l 483 1083 l 486 1083 l 562 985 l 659 985 l 529 1144 l 440 1144 m 694 1046 b 790 1191 730 1110 790 1124 b 680 1288 790 1245 743 1288 b 547 1199 612 1288 572 1248 l 591 1173 b 661 1224 608 1196 630 1224 b 708 1178 687 1224 708 1205 b 636 1063 708 1134 658 1120 l 694 1046 "},"Ừ":{"x_min":104.171875,"x_max":940.28125,"ha":940,"o":"m 823 1069 b 845 988 837 1044 845 1015 b 781 936 845 952 829 936 l 672 936 l 672 380 b 444 83 672 175 581 83 b 226 380 319 83 226 172 l 226 936 l 104 936 l 104 384 b 440 -15 104 93 248 -15 b 794 388 643 -15 794 101 l 794 862 l 815 863 b 940 981 898 866 940 913 b 916 1086 940 1020 930 1055 l 823 1069 m 254 1148 l 431 987 l 530 987 l 401 1148 l 254 1148 "},"Á":{"x_min":35,"x_max":818,"ha":850,"o":"m 588 294 l 688 0 l 818 0 l 498 936 l 354 936 l 35 0 l 159 0 l 257 294 l 588 294 m 282 388 l 373 659 b 420 829 393 716 407 775 l 423 829 b 472 658 437 775 451 719 l 565 388 l 282 388 m 483 1148 l 354 986 l 452 986 l 630 1148 l 483 1148 "},"ĥ":{"x_min":-22.21875,"x_max":673.609375,"ha":771,"o":"m 101 0 l 223 0 l 223 405 b 231 463 223 427 225 445 b 395 584 255 529 316 584 b 551 386 511 584 551 494 l 551 0 l 673 0 l 673 400 b 438 686 673 630 529 686 b 313 652 393 686 350 673 b 226 565 276 631 245 600 l 223 565 l 223 986 l 101 986 l 101 0 m 119 1170 l -22 1012 l 76 1012 l 165 1108 l 168 1108 l 255 1012 l 358 1012 l 212 1170 l 119 1170 "},"":{"x_min":38.890625,"x_max":1097.21875,"ha":1136,"o":"m 258 837 b 38 555 136 837 38 736 b 250 283 40 375 136 283 b 465 568 366 283 465 377 b 258 837 465 740 383 837 m 251 763 b 369 562 337 763 369 672 b 252 356 369 443 333 356 b 134 559 176 356 133 445 b 251 763 134 673 176 763 m 362 -16 l 850 844 l 772 844 l 284 -16 l 362 -16 m 890 544 b 670 262 768 544 670 443 b 881 -9 672 80 768 -9 b 1097 275 998 -9 1097 84 b 890 544 1097 447 1015 544 m 883 470 b 1001 269 969 470 1001 379 b 884 63 1001 150 965 63 b 766 266 808 63 765 151 b 883 470 766 380 808 470 "},"":{"x_min":30.5625,"x_max":386.109375,"ha":417,"o":"m 386 1008 b 211 1154 380 1094 325 1154 b 30 1008 94 1154 37 1095 l 123 1006 b 208 1090 129 1048 144 1090 b 293 1006 273 1090 287 1045 l 386 1008 "},"Κ":{"x_min":105.5625,"x_max":766.671875,"ha":753,"o":"m 105 0 l 226 0 l 226 356 l 316 459 l 623 0 l 766 0 l 401 538 l 740 936 l 590 936 l 304 584 b 230 484 280 554 255 520 l 226 484 l 226 936 l 105 936 l 105 0 "},"»":{"x_min":33,"x_max":541,"ha":582,"o":"m 217 350 l 33 94 l 130 94 l 314 350 l 130 605 l 33 605 l 217 350 m 443 350 l 259 94 l 356 94 l 541 350 l 356 605 l 257 605 l 443 350 "},"":{"x_min":125.328125,"x_max":617,"ha":736,"o":"m 408 -112 l 408 1 b 617 193 542 20 617 105 b 412 388 617 283 553 343 b 261 502 293 427 261 454 b 396 588 261 554 319 588 b 557 547 461 588 523 566 l 589 630 b 418 673 554 650 493 670 l 418 788 l 339 788 l 339 669 b 140 494 221 655 140 587 b 351 304 140 401 210 351 b 492 187 450 270 492 241 b 343 87 492 125 423 87 b 158 137 276 87 197 109 l 125 54 b 329 -1 172 22 255 0 l 329 -112 l 408 -112 "},"∆":{"x_min":35.921875,"x_max":755.078125,"ha":790,"o":"m 755 0 l 755 69 l 464 911 l 328 911 l 35 68 l 35 0 l 755 0 m 627 100 l 158 100 l 330 601 b 389 802 351 668 376 754 l 394 802 b 460 583 410 741 438 650 l 627 100 "},"ỹ":{"x_min":12.5,"x_max":644.4375,"ha":654,"o":"m 12 672 l 259 52 b 269 20 266 37 269 27 b 259 -8 269 13 265 4 b 156 -144 230 -70 190 -118 b 50 -204 120 -175 80 -194 l 80 -305 b 230 -227 111 -300 169 -279 b 461 193 313 -154 373 -37 l 644 672 l 515 672 l 381 277 b 338 137 365 229 351 177 l 336 137 b 291 275 325 177 308 230 l 145 672 l 12 672 m 230 787 b 266 850 233 826 244 850 b 326 826 283 850 298 841 b 412 795 355 809 381 795 b 506 936 477 795 508 844 l 441 936 b 404 877 438 890 425 877 b 344 901 386 877 366 888 b 258 931 312 918 288 931 b 163 787 198 931 161 877 l 230 787 "},"ў":{"x_min":12.5,"x_max":644.4375,"ha":654,"o":"m 147 945 b 322 773 152 851 200 773 b 506 945 429 773 500 833 l 419 945 b 325 840 412 886 384 840 b 236 945 269 840 240 886 l 147 945 m 12 672 l 259 52 b 269 20 266 37 269 27 b 259 -8 269 13 265 4 b 156 -144 230 -70 190 -118 b 50 -204 120 -175 80 -194 l 80 -305 b 230 -227 111 -300 169 -279 b 461 193 313 -154 373 -37 l 644 672 l 515 672 l 381 277 b 338 137 365 229 351 177 l 336 137 b 291 275 325 177 308 230 l 145 672 l 12 672 "},"ţ":{"x_min":24.5625,"x_max":423.171875,"ha":460,"o":"m 128 797 l 128 672 l 24 672 l 24 579 l 128 579 l 128 212 b 175 36 128 133 142 73 b 307 -15 205 4 250 -15 b 416 1 355 -15 392 -6 l 410 94 b 339 86 392 88 373 86 b 248 216 271 86 248 133 l 248 579 l 423 579 l 423 672 l 248 672 l 248 833 l 128 797 m 169 -315 b 348 -166 255 -309 348 -268 b 292 -63 348 -120 320 -81 l 202 -83 b 249 -168 227 -102 249 -134 b 145 -258 249 -222 199 -250 l 169 -315 "},"«":{"x_min":40,"x_max":550,"ha":582,"o":"m 322 605 l 223 605 l 40 350 l 223 94 l 323 94 l 137 350 l 322 605 m 550 605 l 451 605 l 267 350 l 451 94 l 550 94 l 365 350 l 550 605 "},"ử":{"x_min":97.21875,"x_max":797.21875,"ha":765,"o":"m 679 806 b 704 727 694 781 704 754 b 638 672 704 691 686 672 l 541 672 l 541 261 b 530 198 541 237 537 215 b 369 86 508 143 451 86 b 219 300 259 86 219 172 l 219 672 l 97 672 l 97 279 b 329 -15 97 44 223 -15 b 551 109 448 -15 520 55 l 554 109 l 561 0 l 669 0 b 663 183 665 52 663 113 l 663 605 l 679 605 b 797 723 747 608 797 654 b 772 823 797 759 787 794 l 679 806 m 413 736 b 518 898 445 800 518 820 b 401 1002 518 961 466 1002 b 265 911 331 1002 290 961 l 312 881 b 380 930 327 906 350 930 b 426 884 405 930 426 912 b 347 752 426 833 363 813 l 413 736 "},"":{"x_min":49.65625,"x_max":819.109375,"ha":897,"o":"m 819 491 l 510 491 l 510 394 l 699 394 l 699 115 b 538 90 671 101 617 90 b 177 468 319 90 177 230 b 553 844 177 702 326 844 b 760 804 648 844 710 827 l 791 902 b 556 945 751 922 664 945 b 49 462 242 945 49 741 b 180 113 49 316 99 191 b 530 -9 271 26 388 -9 b 819 41 656 -9 764 20 l 819 491 m 403 993 b 439 1054 408 1030 417 1054 b 505 1027 460 1054 478 1041 b 591 1001 537 1012 562 1001 b 684 1136 655 1001 685 1048 l 620 1136 b 583 1081 616 1091 603 1081 b 516 1106 560 1081 538 1094 b 433 1134 485 1122 463 1134 b 338 993 373 1134 337 1077 l 403 993 "},"í":{"x_min":94.4375,"x_max":350,"ha":325,"o":"m 223 0 l 223 672 l 101 672 l 101 0 l 223 0 m 216 962 l 94 763 l 180 763 l 350 962 l 216 962 "},"ņ":{"x_min":95.828125,"x_max":673.609375,"ha":771,"o":"m 101 0 l 223 0 l 223 404 b 231 461 223 425 226 445 b 395 586 254 529 316 586 b 551 387 511 586 551 495 l 551 0 l 673 0 l 673 400 b 436 686 673 630 529 686 b 213 561 325 686 247 623 l 211 561 l 204 672 l 95 672 b 101 490 100 616 101 561 l 101 0 m 306 -305 b 486 -156 393 -300 486 -258 b 430 -54 486 -111 458 -72 l 340 -73 b 387 -158 365 -93 387 -125 b 283 -248 387 -212 337 -240 l 306 -305 "},"":{"x_min":49.984375,"x_max":662.015625,"ha":713,"o":"m 201 233 b 167 455 179 293 166 368 b 356 823 169 677 241 823 b 481 753 412 823 453 797 l 201 233 m 514 669 b 544 455 534 608 544 536 b 353 79 544 225 481 79 b 234 147 303 79 265 102 l 514 669 m 656 901 l 595 942 l 541 850 b 363 918 494 896 434 918 b 49 448 180 918 48 754 b 127 112 51 304 79 188 l 63 9 l 124 -33 l 174 54 b 349 -15 223 6 283 -15 b 662 461 548 -15 662 154 b 588 791 662 600 637 712 l 656 901 "},"µ":{"x_min":101.390625,"x_max":731.953125,"ha":768,"o":"m 559 104 b 679 -14 570 18 619 -14 b 722 -9 700 -14 706 -13 l 731 79 b 668 185 681 82 668 111 l 668 672 l 545 672 l 545 261 b 534 197 545 237 541 215 b 375 85 512 141 455 85 b 223 275 266 85 223 171 l 223 672 l 101 672 l 101 -26 b 120 -274 101 -134 106 -233 l 230 -274 b 215 -20 218 -219 215 -95 l 215 61 b 362 -12 244 10 301 -12 b 555 104 462 -12 527 51 l 559 104 "},"ỳ":{"x_min":13,"x_max":645,"ha":654,"o":"m 13 672 l 260 52 b 269 20 267 37 269 27 b 260 -8 269 13 265 4 b 157 -144 231 -70 190 -118 b 50 -204 121 -175 81 -194 l 81 -305 b 231 -227 111 -300 169 -279 b 461 193 314 -154 374 -37 l 645 672 l 515 672 l 382 277 b 339 137 365 229 351 177 l 336 137 b 292 275 325 177 308 230 l 146 672 l 13 672 m 150 962 l 319 763 l 406 763 l 283 962 l 150 962 "},"Ι":{"x_min":104.171875,"x_max":226.390625,"ha":332,"o":"m 104 936 l 104 0 l 226 0 l 226 936 l 104 936 "},"Ύ":{"x_min":0,"x_max":973.609375,"ha":982,"o":"m 177 845 b 486 430 300 817 430 681 b 505 241 498 373 505 310 l 505 0 l 627 0 l 627 239 b 652 431 627 312 638 375 b 973 845 716 673 870 806 l 952 944 b 740 814 890 934 805 884 b 577 474 672 741 600 624 l 572 474 b 427 817 554 621 498 738 b 198 944 363 892 263 938 l 177 845 m 9 935 l 0 720 l 72 720 l 119 935 l 9 935 "},"ѕ":{"x_min":55.125,"x_max":494.015625,"ha":550,"o":"m 55 31 b 244 -15 102 4 170 -15 b 494 187 400 -15 494 68 b 317 388 494 287 432 345 b 191 504 230 423 191 448 b 302 595 191 554 230 595 b 439 555 364 595 413 572 l 469 644 b 305 686 432 668 373 686 b 73 488 162 686 73 597 b 252 298 73 408 130 343 b 375 176 341 265 375 234 b 246 76 375 119 334 76 b 84 123 185 76 121 101 l 55 31 "},"Ш":{"x_min":105.5625,"x_max":1072.21875,"ha":1176,"o":"m 105 936 l 105 0 l 1072 0 l 1072 936 l 952 936 l 952 101 l 648 101 l 648 936 l 529 936 l 529 101 l 225 101 l 225 936 l 105 936 "},"M":{"x_min":80.5625,"x_max":1036.109375,"ha":1117,"o":"m 916 0 l 1036 0 l 977 936 l 823 936 l 656 483 b 556 168 615 365 581 262 l 554 168 b 459 483 529 265 498 368 l 300 936 l 145 936 l 80 0 l 195 0 l 220 401 b 238 815 229 543 236 698 l 241 815 b 348 451 268 704 304 584 l 501 5 l 593 5 l 758 459 b 876 815 805 588 843 706 l 879 815 b 894 411 879 700 887 541 l 916 0 "},"Ψ":{"x_min":65.28125,"x_max":886.109375,"ha":951,"o":"m 886 936 l 768 936 l 768 677 b 533 380 768 463 656 387 l 533 936 l 418 936 l 418 381 b 183 651 280 388 183 461 l 183 936 l 65 936 l 65 630 b 418 286 65 386 237 293 l 418 0 l 533 0 l 533 286 b 886 665 740 297 886 422 l 886 936 "},"ũ":{"x_min":97.21875,"x_max":669.453125,"ha":765,"o":"m 663 672 l 541 672 l 541 261 b 530 198 541 237 537 215 b 369 86 508 143 451 86 b 219 301 259 86 219 173 l 219 672 l 97 672 l 97 279 b 329 -15 97 44 223 -15 b 551 109 448 -15 520 55 l 554 109 l 561 0 l 669 0 b 663 184 665 52 663 113 l 663 672 m 277 787 b 313 850 280 826 291 850 b 373 826 330 850 345 841 b 459 795 402 809 429 795 b 554 936 525 795 555 844 l 488 936 b 451 877 486 890 472 877 b 393 901 433 877 415 888 b 305 931 359 918 336 931 b 211 787 245 931 208 877 l 277 787 "},"ŭ":{"x_min":97.21875,"x_max":669.453125,"ha":765,"o":"m 663 672 l 541 672 l 541 261 b 530 198 541 237 537 215 b 369 86 508 143 451 86 b 219 301 259 86 219 173 l 219 672 l 97 672 l 97 279 b 329 -15 97 44 223 -15 b 551 109 448 -15 520 55 l 554 109 l 561 0 l 669 0 b 663 184 665 52 663 113 l 663 672 m 209 947 b 381 773 209 859 259 773 b 554 947 486 773 554 843 l 481 947 b 380 851 477 900 447 851 b 281 947 325 851 290 893 l 209 947 "},"₍":{"x_min":55.5625,"x_max":233.328125,"ha":250,"o":"m 162 386 b 55 48 112 319 55 211 b 162 -286 55 -111 112 -218 l 233 -286 b 133 48 179 -204 133 -98 b 233 386 133 197 177 306 l 162 386 "},"":{"x_min":69.4375,"x_max":665.28125,"ha":736,"o":"m 123 -158 b 665 356 443 -148 665 47 b 369 691 665 570 534 691 b 69 394 200 691 69 563 b 327 129 69 227 187 129 b 527 222 422 129 498 176 l 530 222 b 113 -68 491 58 352 -58 l 123 -158 m 361 215 b 190 404 269 215 190 275 b 363 597 190 534 280 597 b 544 388 462 597 544 513 b 522 305 544 354 536 323 b 361 215 495 256 430 215 "},"{":{"x_min":38.890625,"x_max":359.71875,"ha":394,"o":"m 38 365 b 151 261 137 365 151 305 b 141 148 151 225 145 187 b 129 34 134 111 129 72 b 330 -155 129 -105 216 -155 l 359 -155 l 359 -79 l 336 -79 b 225 41 258 -77 225 -36 b 234 141 225 75 230 108 b 245 248 240 176 245 211 b 144 400 245 337 206 383 l 144 402 b 245 552 206 419 247 463 b 234 658 245 590 240 623 b 225 756 230 691 225 725 b 336 876 225 831 254 875 l 359 876 l 359 952 l 331 952 b 129 770 213 952 129 898 b 140 654 129 733 134 694 b 151 538 145 616 151 577 b 38 436 150 490 136 436 l 38 365 "},"¼":{"x_min":59.71875,"x_max":1004.171875,"ha":1054,"o":"m 275 369 l 275 911 l 190 911 l 59 850 l 75 777 l 175 826 l 177 826 l 177 369 l 275 369 m 270 -15 l 797 918 l 719 918 l 191 -15 l 270 -15 m 920 0 l 920 143 l 1004 143 l 1004 211 l 920 211 l 920 548 l 819 548 l 551 197 l 551 143 l 829 143 l 829 0 l 920 0 m 829 211 l 652 211 l 651 212 l 784 386 b 830 462 800 409 812 433 l 833 462 b 829 375 831 437 829 408 l 829 211 "},"ι":{"x_min":101.390625,"x_max":288.890625,"ha":328,"o":"m 223 672 l 101 672 l 101 150 b 227 -15 101 16 155 -15 b 281 -8 247 -15 269 -12 l 288 80 b 223 162 236 77 223 102 l 223 672 "},"":{"x_min":80.5625,"x_max":333.328125,"ha":417,"o":"m 234 984 b 333 1134 270 1048 333 1063 b 218 1234 333 1191 281 1234 b 80 1141 147 1234 105 1191 l 127 1113 b 195 1162 143 1137 166 1162 b 241 1119 223 1162 241 1145 b 169 1002 241 1073 191 1062 l 234 984 "},"Ĳ":{"x_min":104.171875,"x_max":751.390625,"ha":846,"o":"m 104 936 l 104 0 l 226 0 l 226 936 l 104 936 m 629 320 b 458 87 629 136 566 87 b 355 105 416 87 380 95 l 337 6 b 468 -15 368 -5 422 -15 b 751 309 629 -15 751 61 l 751 936 l 629 936 l 629 320 "},"":{"x_min":50,"x_max":377.78125,"ha":438,"o":"m 286 604 l 286 686 b 377 709 326 688 359 700 l 363 775 b 269 756 343 766 313 756 b 143 890 200 756 143 804 b 272 1025 143 968 193 1025 b 356 1005 312 1025 338 1015 l 375 1075 b 286 1094 352 1084 320 1094 l 286 1173 l 222 1173 l 222 1093 b 50 886 115 1075 50 991 b 97 748 50 829 68 780 b 222 687 127 715 166 694 l 222 604 l 286 604 "},"Ê":{"x_min":103.875,"x_max":631.65625,"ha":683,"o":"m 588 538 l 226 538 l 226 834 l 610 834 l 610 936 l 103 936 l 103 0 l 631 0 l 631 101 l 226 101 l 226 438 l 588 438 l 588 538 m 309 1144 l 167 986 l 266 986 l 355 1081 l 358 1081 l 445 986 l 548 986 l 402 1144 l 309 1144 "},"Ά":{"x_min":40,"x_max":823,"ha":854,"o":"m 592 294 l 693 0 l 823 0 l 503 936 l 357 936 l 40 0 l 164 0 l 262 294 l 592 294 m 285 388 l 378 659 b 424 829 396 716 410 775 l 427 829 b 475 658 441 775 456 719 l 568 388 l 285 388 m 96 936 l 87 720 l 159 720 l 206 936 l 96 936 "},")":{"x_min":27.78125,"x_max":304.171875,"ha":394,"o":"m 122 -168 b 304 398 209 -51 302 126 b 122 963 304 670 209 850 l 27 963 b 201 398 126 825 201 648 b 27 -168 201 148 125 -30 l 122 -168 "},"ε":{"x_min":54.171875,"x_max":583.328125,"ha":611,"o":"m 220 356 b 54 188 122 341 54 270 b 337 -15 54 37 202 -15 b 583 45 431 -15 531 11 l 561 129 b 363 77 520 104 437 77 b 181 198 265 77 181 119 b 393 313 181 280 272 313 l 479 313 l 479 400 l 397 400 b 209 497 291 400 209 429 b 365 597 209 556 270 597 b 533 554 431 597 504 573 l 559 636 b 355 686 511 668 441 686 b 87 505 176 686 87 594 b 220 362 88 438 133 381 l 220 356 "},"э":{"x_min":38.890625,"x_max":591.671875,"ha":644,"o":"m 130 300 l 466 300 b 230 81 456 166 366 81 b 63 118 152 81 95 104 l 38 31 b 236 -13 93 2 162 -13 b 591 333 462 -13 591 138 b 500 591 591 443 558 530 b 256 686 440 654 354 686 b 50 634 184 686 108 668 l 76 554 b 236 591 111 570 166 591 b 468 384 386 591 456 498 l 130 384 l 130 300 "},"":{"x_min":26.390625,"x_max":386.109375,"ha":417,"o":"m 113 780 b 208 886 120 840 148 886 b 297 780 263 886 291 840 l 386 780 b 211 952 380 876 333 952 b 26 780 104 952 31 894 l 113 780 "},"ш":{"x_min":97.21875,"x_max":926.390625,"ha":1025,"o":"m 97 672 l 97 0 l 926 0 l 926 672 l 805 672 l 805 95 l 572 95 l 572 672 l 451 672 l 451 95 l 218 95 l 218 672 l 97 672 "},"Я":{"x_min":19.4375,"x_max":648.609375,"ha":754,"o":"m 150 0 b 180 68 162 25 170 44 b 304 359 213 156 238 294 b 437 405 337 393 380 405 l 527 405 l 527 0 l 648 0 l 648 923 b 425 943 587 936 504 943 b 156 870 306 943 215 918 b 70 680 104 827 70 762 b 277 450 70 552 161 469 l 277 447 b 198 398 248 437 220 420 b 58 84 122 322 98 191 b 19 0 47 54 34 25 l 150 0 m 527 500 b 425 497 504 497 465 497 b 193 675 291 497 193 562 b 412 848 193 804 294 848 b 527 837 468 848 506 843 l 527 500 "},"a":{"x_min":48.921875,"x_max":583.640625,"ha":669,"o":"m 573 412 b 318 686 573 545 523 686 b 96 627 233 686 151 662 l 123 545 b 300 595 171 577 236 595 b 453 441 437 597 453 495 l 453 427 b 48 177 193 429 48 340 b 254 -15 48 80 118 -15 b 460 84 350 -15 422 31 l 464 84 l 473 0 l 583 0 b 573 161 576 45 573 102 l 573 412 m 455 226 b 450 187 455 215 454 201 b 285 75 430 130 373 75 b 171 191 223 75 171 111 b 455 343 171 322 322 345 l 455 226 "},"Ę":{"x_min":104.171875,"x_max":638.890625,"ha":683,"o":"m 619 -191 b 558 -202 598 -200 579 -202 b 495 -147 522 -202 495 -183 b 609 -1 495 -95 552 -37 b 631 0 618 -1 625 0 l 631 101 l 226 101 l 226 438 l 588 438 l 588 538 l 226 538 l 226 834 l 611 834 l 611 936 l 104 936 l 104 0 l 511 0 b 398 -173 461 -33 398 -98 b 526 -286 398 -245 448 -286 b 638 -256 568 -286 606 -276 l 619 -191 "},"Z":{"x_min":41.671875,"x_max":725,"ha":768,"o":"m 41 0 l 725 0 l 725 101 l 201 101 l 201 105 l 718 862 l 718 936 l 86 936 l 86 834 l 559 834 l 559 830 l 41 70 l 41 0 "},"⁸":{"x_min":33.328125,"x_max":422.21875,"ha":456,"o":"m 233 1162 b 52 1016 130 1162 52 1104 b 140 897 52 969 80 923 l 140 893 b 33 754 73 865 33 820 b 225 608 33 679 100 608 b 422 766 340 608 422 672 b 313 902 422 833 376 879 l 313 905 b 401 1027 376 933 401 981 b 233 1162 401 1097 345 1162 m 227 673 b 126 765 163 673 126 716 b 218 865 126 812 158 848 b 327 759 283 848 327 819 b 227 673 327 709 288 673 m 227 1098 b 313 1018 288 1098 313 1056 b 237 930 313 973 280 944 b 140 1020 177 945 140 973 b 227 1098 140 1062 170 1098 "},"":{"x_min":-3,"x_max":444,"ha":417,"o":"m -3 952 l 158 755 l 234 755 l 123 952 l -3 952 m 206 952 l 366 755 l 444 755 l 331 952 l 206 952 "},"":{"x_min":38.890625,"x_max":515.28125,"ha":417,"o":"m 166 1144 l 38 985 l 131 985 l 208 1083 l 211 1083 l 287 985 l 384 985 l 254 1144 l 166 1144 m 419 1046 b 515 1191 455 1110 515 1124 b 404 1288 515 1245 468 1288 b 272 1199 337 1288 297 1248 l 318 1173 b 386 1224 333 1196 355 1224 b 431 1178 412 1224 431 1205 b 361 1063 431 1134 381 1120 l 419 1046 "},"k":{"x_min":101.390625,"x_max":665.28125,"ha":651,"o":"m 222 986 l 101 986 l 101 0 l 222 0 l 222 252 l 284 322 l 515 0 l 665 0 l 369 395 l 627 672 l 481 672 l 283 440 b 225 363 263 416 241 387 l 222 363 l 222 986 "},"Ù":{"x_min":104.171875,"x_max":794.453125,"ha":899,"o":"m 104 936 l 104 384 b 440 -15 104 93 248 -15 b 794 388 643 -15 794 101 l 794 936 l 672 936 l 672 380 b 444 83 672 175 581 83 b 226 380 319 83 226 172 l 226 936 l 104 936 m 254 1148 l 431 987 l 530 987 l 401 1148 l 254 1148 "},"Ů":{"x_min":104.171875,"x_max":794.453125,"ha":899,"o":"m 104 936 l 104 384 b 440 -15 104 93 248 -15 b 794 388 643 -15 794 101 l 794 936 l 672 936 l 672 380 b 444 83 672 175 581 83 b 226 380 319 83 226 172 l 226 936 l 104 936 m 451 1211 b 311 1084 363 1211 311 1154 b 450 962 311 1016 366 962 b 587 1084 530 962 587 1015 b 451 1211 587 1155 534 1211 m 447 1161 b 515 1087 488 1161 515 1127 b 448 1013 515 1045 488 1013 b 381 1084 408 1013 381 1048 b 447 1161 381 1125 405 1161 "},"¢":{"x_min":93.0625,"x_max":612.5,"ha":713,"o":"m 459 -19 l 459 119 b 612 159 527 123 586 144 l 591 248 b 433 213 558 231 508 213 b 215 456 311 213 215 304 b 437 705 215 594 301 705 b 583 670 506 705 554 687 l 611 763 b 459 798 577 780 522 797 l 459 934 l 372 934 l 372 795 b 93 452 202 768 93 631 b 172 218 93 351 123 270 b 372 120 222 163 283 130 l 372 -19 l 459 -19 "},"":{"x_min":0.96875,"x_max":570.40625,"ha":572,"o":"m 0 902 l 0 801 l 442 801 l 442 798 l 50 0 l 177 0 l 570 822 l 570 902 l 0 902 "},"В":{"x_min":105.5625,"x_max":695.828125,"ha":753,"o":"m 105 2 b 293 -8 145 -2 209 -8 b 615 79 445 -8 551 19 b 695 266 663 123 695 186 b 502 500 695 405 591 479 l 502 504 b 661 709 600 538 661 618 b 581 875 661 783 630 838 b 326 943 525 922 447 943 b 105 922 243 943 158 934 l 105 2 m 226 841 b 333 850 245 845 277 850 b 537 697 455 850 537 805 b 336 538 537 606 462 538 l 226 538 l 226 841 m 226 448 l 326 448 b 568 268 458 448 568 394 b 327 86 568 131 452 86 b 226 91 284 86 251 87 l 226 448 "},"І":{"x_min":104.171875,"x_max":226.390625,"ha":332,"o":"m 104 936 l 104 0 l 226 0 l 226 936 l 104 936 "},"ē":{"x_min":52.953125,"x_max":646.015625,"ha":696,"o":"m 641 313 b 646 370 644 327 646 345 b 368 686 646 494 589 686 b 52 325 172 686 52 527 b 383 -15 52 122 176 -15 b 608 27 490 -15 565 8 l 586 115 b 400 80 541 95 487 80 b 169 313 276 80 172 148 l 641 313 m 171 401 b 358 598 180 486 233 598 b 527 401 496 598 529 477 l 171 401 m 196 893 l 196 813 l 508 813 l 508 893 l 196 893 "},"Ẹ":{"x_min":104.171875,"x_max":631.9375,"ha":683,"o":"m 588 538 l 226 538 l 226 834 l 611 834 l 611 936 l 104 936 l 104 0 l 631 0 l 631 101 l 226 101 l 226 438 l 588 438 l 588 538 m 341 -251 b 409 -180 380 -251 409 -218 b 343 -111 409 -144 380 -111 b 273 -180 304 -111 273 -144 b 341 -251 273 -218 302 -251 "},"β":{"x_min":98.609375,"x_max":725,"ha":778,"o":"m 219 69 b 436 -15 272 15 341 -15 b 725 272 583 -15 725 86 b 519 536 725 426 625 515 l 519 543 b 644 759 583 573 644 652 b 400 1001 644 904 538 1001 b 202 927 311 1001 248 972 b 98 600 150 876 98 791 l 98 -38 b 119 -275 98 -136 102 -230 l 233 -275 b 216 -23 219 -218 216 -101 l 216 69 l 219 69 m 216 613 b 388 904 216 806 276 904 b 530 740 470 904 530 840 b 372 562 530 652 477 570 b 348 561 365 561 356 561 l 348 477 b 386 477 361 477 373 477 b 602 270 509 473 602 405 b 412 79 602 161 523 79 b 216 190 316 79 247 138 l 216 613 "},"":{"x_min":0.0625,"x_max":157,"ha":182,"o":"m 66 277 b 157 494 97 327 133 416 l 54 486 b 0 270 44 418 22 331 l 66 277 "},"":{"x_min":22.21875,"x_max":454.171875,"ha":482,"o":"m 377 369 l 377 511 l 454 511 l 454 580 l 377 580 l 377 911 l 268 911 l 22 568 l 22 511 l 284 511 l 284 369 l 377 369 m 284 580 l 120 580 l 119 581 l 238 747 b 286 829 255 772 269 797 l 288 829 b 284 741 287 801 284 772 l 284 580 "},"≠":{"x_min":56.03125,"x_max":772.96875,"ha":828,"o":"m 772 194 l 772 277 l 396 277 l 518 469 l 772 469 l 772 552 l 571 552 l 681 722 l 590 722 l 485 552 l 56 552 l 56 469 l 432 469 l 308 277 l 56 277 l 56 194 l 256 194 l 146 25 l 236 25 l 342 194 l 772 194 "},"¥":{"x_min":22.21875,"x_max":690.28125,"ha":713,"o":"m 405 0 l 405 244 l 622 244 l 622 312 l 405 312 l 405 413 l 622 413 l 622 481 l 441 481 l 690 902 l 562 902 l 412 619 b 356 490 388 572 370 529 l 352 490 b 297 616 336 531 319 569 l 152 902 l 22 902 l 256 481 l 75 481 l 75 413 l 290 413 l 290 312 l 75 312 l 75 244 l 290 244 l 290 0 l 405 0 "},"Ĥ":{"x_min":104.171875,"x_max":801.390625,"ha":906,"o":"m 104 936 l 104 0 l 226 0 l 226 438 l 679 438 l 679 0 l 801 0 l 801 936 l 679 936 l 679 544 l 226 544 l 226 936 l 104 936 m 405 1144 l 263 986 l 362 986 l 451 1081 l 454 1081 l 541 986 l 644 986 l 498 1144 l 405 1144 "},"U":{"x_min":104.171875,"x_max":794.453125,"ha":899,"o":"m 104 936 l 104 384 b 440 -15 104 93 248 -15 b 794 388 643 -15 794 101 l 794 936 l 672 936 l 672 380 b 444 83 672 175 581 83 b 226 380 319 83 226 172 l 226 936 l 104 936 "},"Ñ":{"x_min":105.125,"x_max":807.90625,"ha":914,"o":"m 219 0 l 219 399 b 210 786 219 555 217 668 l 214 788 b 388 475 260 686 323 579 l 685 0 l 807 0 l 807 936 l 694 936 l 694 544 b 707 159 694 398 696 284 l 703 158 b 537 462 660 253 605 352 l 238 936 l 105 936 l 105 0 l 219 0 m 356 993 b 392 1054 360 1031 370 1054 b 457 1028 412 1054 431 1042 b 542 1001 488 1013 513 1001 b 635 1136 606 1001 637 1049 l 571 1136 b 534 1082 567 1092 555 1082 b 467 1107 512 1082 489 1094 b 385 1135 438 1122 416 1135 b 291 993 325 1135 289 1078 l 356 993 "},"F":{"x_min":104.171875,"x_max":608.328125,"ha":676,"o":"m 104 0 l 226 0 l 226 423 l 579 423 l 579 523 l 226 523 l 226 834 l 608 834 l 608 936 l 104 936 l 104 0 "},"ả":{"x_min":48.921875,"x_max":583.640625,"ha":669,"o":"m 573 412 b 318 686 573 545 523 686 b 96 627 233 686 151 662 l 123 545 b 300 595 171 577 236 595 b 453 441 437 597 453 495 l 453 427 b 48 177 193 429 48 340 b 254 -15 48 80 118 -15 b 460 84 350 -15 422 31 l 464 84 l 473 0 l 583 0 b 573 161 576 45 573 102 l 573 412 m 455 226 b 450 187 455 215 454 201 b 285 75 430 130 373 75 b 171 191 223 75 171 111 b 455 343 171 322 322 345 l 455 226 m 354 734 b 460 897 386 798 460 820 b 341 1001 460 959 408 1001 b 205 909 272 1001 230 959 l 253 880 b 321 929 269 905 290 929 b 368 883 347 929 368 911 b 289 751 368 831 305 812 l 354 734 "},"":{"x_min":140.28125,"x_max":418.0625,"ha":556,"o":"m 280 1218 b 140 1091 193 1218 140 1161 b 279 969 140 1023 195 969 b 418 1091 361 969 418 1022 b 280 1218 418 1162 365 1218 m 276 1168 b 345 1094 319 1168 345 1134 b 277 1020 345 1052 319 1020 b 211 1091 237 1020 211 1055 b 276 1168 211 1131 236 1168 "},"Ќ":{"x_min":105.5625,"x_max":740.28125,"ha":753,"o":"m 105 936 l 105 0 l 226 0 l 226 429 l 265 429 b 525 220 423 429 481 344 b 611 0 551 147 576 63 l 740 0 b 637 265 700 83 673 169 b 375 506 590 391 530 486 l 729 936 l 584 936 l 263 520 l 226 520 l 226 936 l 105 936 m 443 1141 l 313 979 l 412 979 l 590 1141 l 443 1141 "},"∕":{"x_min":-217.5625,"x_max":388,"ha":168,"o":"m -139 -15 l 388 918 l 310 918 l -217 -15 l -139 -15 "},"ờ":{"x_min":52.84375,"x_max":769.546875,"ha":768,"o":"m 383 594 b 586 338 529 595 586 452 b 380 76 584 186 497 76 b 177 334 261 76 177 187 b 383 594 177 461 240 594 m 652 769 b 676 687 666 744 676 716 b 619 631 675 651 655 631 b 501 668 576 631 534 658 b 386 686 463 679 427 686 b 52 330 201 686 52 554 b 375 -15 52 118 194 -15 b 709 341 536 -15 709 93 b 640 563 709 430 684 506 b 769 683 725 559 769 609 b 745 784 769 722 759 756 l 652 769 m 204 962 l 373 763 l 459 763 l 337 962 l 204 962 "},"å":{"x_min":48.921875,"x_max":583.640625,"ha":669,"o":"m 573 412 b 318 686 573 545 523 686 b 96 627 233 686 151 662 l 123 545 b 300 595 171 577 236 595 b 453 441 437 597 453 495 l 453 427 b 48 177 193 429 48 340 b 254 -15 48 80 118 -15 b 460 84 350 -15 422 31 l 464 84 l 473 0 l 583 0 b 573 161 576 45 573 102 l 573 412 m 455 226 b 450 187 455 215 454 201 b 285 75 429 130 373 75 b 171 191 223 75 171 111 b 455 343 171 322 322 345 l 455 226 m 333 745 b 472 872 412 745 472 800 b 335 1002 472 947 418 1002 b 193 872 248 1002 193 945 b 333 745 193 801 251 745 m 333 797 b 264 872 291 797 264 834 b 332 951 264 915 289 951 b 404 873 376 951 404 916 b 333 797 404 831 376 797 "},"Ϋ":{"x_min":15.28125,"x_max":811.109375,"ha":817,"o":"m 286 967 b 354 1037 327 967 354 999 b 287 1106 354 1075 325 1106 b 218 1037 248 1106 218 1074 b 286 967 218 999 245 967 m 540 967 b 609 1037 583 967 609 999 b 543 1106 609 1075 580 1106 b 473 1037 502 1106 473 1074 b 540 967 473 999 501 967 m 15 845 b 323 430 137 817 268 681 b 343 241 336 373 343 310 l 343 0 l 465 0 l 465 239 b 490 431 465 312 476 375 b 811 845 554 673 708 806 l 790 944 b 577 814 727 934 643 884 b 415 474 509 741 437 624 l 409 474 b 265 817 391 621 336 738 b 36 944 201 892 101 938 l 15 845 "},"0":{"x_min":50,"x_max":663.890625,"ha":713,"o":"m 365 918 b 50 448 181 918 50 752 b 350 -15 52 150 173 -15 b 663 461 548 -15 663 154 b 365 918 663 748 554 918 m 356 823 b 540 455 484 823 540 677 b 356 79 540 225 480 79 b 173 447 245 79 173 212 b 356 823 173 693 251 823 "},"ō":{"x_min":52.78125,"x_max":709.71875,"ha":763,"o":"m 386 686 b 52 330 201 686 52 554 b 375 -15 52 118 194 -15 b 709 341 536 -15 709 93 b 386 686 709 545 579 686 m 383 594 b 584 337 527 594 584 451 b 380 76 584 186 497 76 b 177 334 261 76 177 187 b 383 594 177 461 240 594 m 225 893 l 225 813 l 537 813 l 537 893 l 225 893 "},"”":{"x_min":47,"x_max":459.75,"ha":492,"o":"m 129 947 b 47 622 113 847 77 704 l 124 630 b 254 961 162 694 222 844 l 129 947 m 334 947 b 252 622 319 847 281 704 l 330 630 b 459 961 368 694 427 844 l 334 947 "},"ö":{"x_min":52.78125,"x_max":709.71875,"ha":763,"o":"m 386 687 b 52 331 201 687 52 555 b 375 -13 52 119 194 -13 b 709 343 536 -13 709 94 b 386 687 709 547 579 687 m 383 595 b 584 338 527 595 584 452 b 380 77 584 187 497 77 b 177 336 261 77 177 188 b 383 595 177 462 240 595 m 251 793 b 320 863 293 793 320 826 b 254 934 320 904 291 934 b 183 863 213 934 183 902 b 251 793 183 826 212 793 m 508 793 b 577 863 550 793 577 826 b 509 934 577 904 548 934 b 440 863 470 934 440 902 b 508 793 440 826 468 793 "},"":{"x_min":40,"x_max":322,"ha":354,"o":"m 322 709 l 223 709 l 40 454 l 223 198 l 322 198 l 137 454 l 322 709 "},"ć":{"x_min":52.78125,"x_max":583.328125,"ha":622,"o":"m 559 115 b 409 83 525 100 479 83 b 176 334 276 83 176 179 b 413 588 176 473 259 588 b 555 556 480 588 526 572 l 583 650 b 413 686 550 668 486 686 b 52 327 194 686 52 534 b 387 -15 52 122 184 -15 b 580 23 477 -15 548 8 l 559 115 m 419 962 l 297 763 l 383 763 l 552 962 l 419 962 "},"þ":{"x_min":101.390625,"x_max":738.890625,"ha":790,"o":"m 101 929 l 101 -275 l 222 -275 l 222 90 l 225 90 b 431 -15 268 23 343 -15 b 738 344 584 -15 738 98 b 454 686 738 552 612 687 b 225 565 344 686 269 637 l 222 565 l 222 929 l 101 929 m 222 388 b 236 456 222 411 229 437 b 416 588 263 538 338 588 b 615 341 543 588 615 475 b 413 80 615 181 534 80 b 234 204 333 80 262 127 b 222 265 226 220 222 245 l 222 388 "},"]":{"x_min":27.78125,"x_max":281.9375,"ha":394,"o":"m 27 952 l 27 876 l 186 876 l 186 -79 l 27 -79 l 27 -155 l 281 -155 l 281 952 l 27 952 "},"А":{"x_min":35,"x_max":818,"ha":850,"o":"m 588 294 l 688 0 l 818 0 l 498 936 l 354 936 l 35 0 l 159 0 l 257 294 l 588 294 m 282 388 l 373 659 b 420 829 393 716 407 775 l 423 829 b 472 658 437 775 451 719 l 565 388 l 282 388 "},"Ы":{"x_min":105.5625,"x_max":925,"ha":1036,"o":"m 105 936 l 105 2 b 293 -8 145 -2 209 -8 b 626 101 419 -8 550 20 b 698 300 670 148 698 213 b 338 593 698 506 530 593 b 226 584 308 593 254 590 l 226 936 l 105 936 m 226 490 b 322 495 241 491 277 495 b 572 295 447 495 572 441 b 323 86 572 154 456 86 b 226 93 283 86 251 87 l 226 490 m 802 936 l 802 0 l 925 0 l 925 936 l 802 936 "},"ẁ":{"x_min":25,"x_max":1001,"ha":1022,"o":"m 25 672 l 227 0 l 338 0 l 447 319 b 508 541 470 391 491 461 l 510 541 b 570 320 527 462 547 395 l 673 0 l 784 0 l 1001 672 l 880 672 l 784 334 b 733 116 762 255 744 184 l 728 116 b 669 336 713 184 694 255 l 565 672 l 462 672 l 352 329 b 292 116 330 256 308 184 l 288 116 b 240 330 276 186 258 255 l 149 672 l 25 672 m 329 962 l 498 763 l 584 763 l 462 962 l 329 962 "},"ệ":{"x_min":52.953125,"x_max":646.015625,"ha":696,"o":"m 641 313 b 646 370 644 327 646 345 b 368 686 646 494 589 686 b 52 325 172 686 52 527 b 383 -15 52 122 176 -15 b 608 27 490 -15 565 8 l 586 115 b 400 80 541 95 487 80 b 169 313 276 80 172 148 l 641 313 m 171 401 b 358 598 180 486 233 598 b 527 401 496 598 529 477 l 171 401 m 304 962 l 173 763 l 265 763 l 346 894 l 348 894 l 429 763 l 522 763 l 389 962 l 304 962 m 347 -111 b 276 -183 308 -111 276 -144 b 346 -254 276 -222 305 -254 b 415 -183 387 -254 415 -222 b 347 -111 415 -143 386 -111 "},"ĭ":{"x_min":-5.5625,"x_max":338.890625,"ha":325,"o":"m 223 0 l 223 672 l 101 672 l 101 0 l 223 0 m -5 947 b 166 773 -5 859 44 773 b 338 947 270 773 338 843 l 266 947 b 165 851 262 900 231 851 b 66 947 109 851 75 893 l -5 947 "},"8":{"x_min":51.390625,"x_max":661.109375,"ha":713,"o":"m 230 470 b 51 227 119 423 51 341 b 354 -15 51 95 165 -15 b 661 247 526 -15 661 88 b 479 480 661 355 591 436 l 479 484 b 629 695 590 536 629 619 b 365 918 629 809 540 918 b 84 677 205 918 84 820 b 229 475 84 600 127 522 l 230 470 m 356 73 b 176 244 241 73 172 154 b 338 431 176 330 233 401 b 537 234 461 397 537 343 b 356 73 537 141 466 73 m 358 830 b 511 683 468 830 511 755 b 373 519 511 601 451 545 b 201 686 269 547 200 595 b 358 830 201 763 256 830 "},"Ữ":{"x_min":104.171875,"x_max":940.28125,"ha":940,"o":"m 823 1069 b 845 990 837 1044 845 1015 b 781 936 845 952 829 936 l 672 936 l 672 380 b 444 83 672 175 581 83 b 226 380 319 83 226 172 l 226 936 l 104 936 l 104 384 b 440 -15 104 93 248 -15 b 794 388 643 -15 794 101 l 794 862 l 815 863 b 940 981 898 866 940 913 b 916 1086 940 1020 930 1055 l 823 1069 m 362 993 b 398 1054 366 1030 376 1054 b 463 1027 419 1054 437 1041 b 550 1001 495 1012 520 1001 b 643 1136 613 1001 644 1048 l 579 1136 b 541 1081 575 1091 562 1081 b 475 1106 519 1081 497 1094 b 391 1134 444 1122 422 1134 b 297 993 331 1134 295 1077 l 362 993 "},"R":{"x_min":105.5625,"x_max":715.28125,"ha":747,"o":"m 105 0 l 226 0 l 226 405 l 340 405 b 529 223 450 401 501 352 b 590 0 554 106 575 27 l 715 0 b 643 256 695 36 673 126 b 506 445 620 354 577 420 l 506 450 b 681 687 604 483 681 565 b 608 866 681 761 654 825 b 337 943 551 918 466 943 b 105 923 255 943 166 934 l 105 0 m 226 838 b 345 848 247 844 287 848 b 561 675 473 848 561 795 b 350 497 561 568 479 497 l 226 497 l 226 838 "},"":{"x_min":25,"x_max":550,"ha":601,"o":"m 25 -131 b 201 -159 55 -145 129 -159 b 550 105 388 -159 550 -54 b 345 305 550 223 455 290 l 345 309 b 509 502 440 337 509 406 b 268 688 509 618 409 688 b 45 626 176 688 88 655 l 70 545 b 241 593 104 563 170 593 b 387 481 331 593 387 556 b 161 334 387 395 290 344 l 134 333 l 137 243 b 213 245 154 244 181 245 b 425 104 341 245 425 191 b 190 -63 425 2 327 -63 b 38 -41 131 -63 73 -52 l 25 -131 "},"":{"x_min":50,"x_max":377.78125,"ha":438,"o":"m 286 -11 l 286 70 b 377 94 326 73 359 84 l 363 159 b 269 141 343 151 313 141 b 143 276 200 141 143 188 b 272 411 143 354 193 411 b 356 391 312 411 338 401 l 375 461 b 286 480 352 470 320 480 l 286 559 l 222 559 l 222 479 b 50 270 115 461 50 376 b 97 133 50 213 68 165 b 222 72 127 100 166 79 l 222 -11 l 286 -11 "},"Ż":{"x_min":41.671875,"x_max":725,"ha":768,"o":"m 41 0 l 725 0 l 725 101 l 201 101 l 201 105 l 718 862 l 718 936 l 86 936 l 86 834 l 559 834 l 559 830 l 41 70 l 41 0 m 388 1000 b 456 1070 427 1000 456 1033 b 390 1140 456 1106 427 1140 b 320 1070 351 1140 320 1106 b 388 1000 320 1033 350 1000 "},"ħ":{"x_min":-5.5625,"x_max":673.609375,"ha":771,"o":"m 673 0 l 673 400 b 438 686 673 630 529 686 b 313 652 393 686 350 673 b 226 565 276 631 245 600 l 223 565 l 223 766 l 493 766 l 493 843 l 223 843 l 223 986 l 101 986 l 101 843 l -5 843 l -5 766 l 101 766 l 101 0 l 223 0 l 223 405 b 231 463 223 427 225 445 b 395 584 255 529 316 584 b 551 386 511 584 551 494 l 551 0 l 673 0 "},"õ":{"x_min":52.78125,"x_max":709.71875,"ha":763,"o":"m 386 686 b 52 330 201 686 52 554 b 375 -15 52 118 194 -15 b 709 341 536 -15 709 93 b 386 686 709 545 579 686 m 383 594 b 584 337 527 594 584 451 b 380 76 584 186 497 76 b 177 334 261 76 177 187 b 383 594 177 461 240 594 m 276 787 b 312 850 279 826 290 850 b 372 825 329 850 344 841 b 458 795 401 809 427 795 b 552 936 523 795 554 844 l 487 936 b 450 877 484 890 470 877 b 391 901 431 877 413 888 b 304 931 358 918 334 931 b 209 787 244 931 206 877 l 276 787 "},"":{"x_min":55.5625,"x_max":680.5625,"ha":736,"o":"m 366 -15 b 680 337 541 -15 680 118 b 368 688 680 561 540 688 b 55 337 194 688 55 555 b 366 -15 55 112 195 -15 m 369 77 b 173 337 245 77 173 187 b 368 595 173 486 245 595 b 562 337 490 595 562 486 b 369 77 562 187 490 77 "},"ẫ":{"x_min":48.921875,"x_max":582.75,"ha":669,"o":"m 573 412 b 317 686 573 545 523 686 b 96 627 233 686 151 662 l 123 545 b 299 595 170 577 236 595 b 452 441 437 597 452 495 l 452 427 b 48 177 193 429 48 340 b 254 -15 48 80 118 -15 b 459 84 349 -15 421 31 l 463 84 l 473 0 l 582 0 b 573 161 575 45 573 102 l 573 412 m 455 226 b 449 187 455 215 453 201 b 284 75 430 130 373 75 b 171 191 223 75 171 111 b 455 343 171 322 322 345 l 455 226 m 288 926 l 165 763 l 258 763 l 331 865 l 334 865 l 409 763 l 504 763 l 378 926 l 288 926 m 234 943 b 270 997 237 975 248 997 b 330 975 287 997 302 988 b 414 945 359 959 384 945 b 509 1079 480 945 510 991 l 444 1079 b 406 1022 441 1034 428 1022 b 348 1044 389 1022 370 1033 b 262 1075 315 1061 291 1075 b 168 943 202 1075 166 1022 l 234 943 "},"˙":{"x_min":123.609375,"x_max":262.5,"ha":417,"o":"m 193 791 b 262 862 234 791 262 825 b 194 934 262 902 233 934 b 123 862 155 934 123 902 b 193 791 123 825 152 791 "},"ê":{"x_min":53,"x_max":646.015625,"ha":696,"o":"m 641 313 b 646 370 644 327 646 345 b 368 686 646 494 589 686 b 53 325 172 686 53 527 b 383 -15 53 122 176 -15 b 608 27 490 -15 565 8 l 586 115 b 400 80 541 95 487 80 b 169 313 276 80 172 148 l 641 313 m 171 401 b 358 598 180 486 233 598 b 528 401 496 598 529 477 l 171 401 m 321 962 l 190 763 l 282 763 l 362 894 l 365 894 l 446 763 l 539 763 l 405 962 l 321 962 "},"":{"x_min":46,"x_max":541.9375,"ha":417,"o":"m 162 962 l 46 763 l 134 763 l 205 894 l 209 894 l 279 763 l 372 763 l 253 962 l 162 962 m 429 1075 l 333 893 l 404 893 l 541 1075 l 429 1075 "},"„":{"x_min":28.25,"x_max":441,"ha":494,"o":"m 106 -155 b 235 175 143 -91 203 58 l 110 161 b 28 -163 94 61 58 -81 l 106 -155 m 311 -155 b 441 175 349 -91 409 58 l 315 161 b 233 -163 300 61 263 -81 l 311 -155 "},"ч":{"x_min":90.28125,"x_max":616.671875,"ha":715,"o":"m 90 672 l 90 430 b 311 212 90 277 184 212 b 494 262 375 212 448 233 l 495 262 l 495 -8 l 616 -8 l 616 672 l 495 672 l 495 348 b 351 302 459 322 404 302 b 212 445 244 302 212 359 l 212 672 l 90 672 "},"δ":{"x_min":52.328125,"x_max":705.09375,"ha":758,"o":"m 646 934 b 424 1001 607 966 521 1001 b 189 844 266 1001 189 918 b 275 705 189 780 243 731 l 306 680 l 306 673 b 52 323 170 609 52 494 b 378 -15 52 106 205 -15 b 705 327 560 -15 705 119 b 527 644 705 461 638 558 l 413 734 b 313 847 349 783 313 809 b 427 909 313 880 350 909 b 610 852 503 909 581 875 l 646 934 m 453 558 b 582 319 539 491 582 413 b 385 76 582 166 492 76 b 175 323 280 76 175 166 b 378 616 175 470 273 561 l 453 558 "},"Â":{"x_min":35,"x_max":818,"ha":850,"o":"m 588 294 l 688 0 l 818 0 l 498 936 l 354 936 l 35 0 l 159 0 l 257 294 l 588 294 m 282 388 l 373 659 b 420 829 393 716 407 775 l 423 829 b 472 658 437 775 451 719 l 565 388 l 282 388 m 383 1144 l 241 986 l 340 986 l 429 1081 l 432 1081 l 519 986 l 622 986 l 476 1144 l 383 1144 "},"Į":{"x_min":38.890625,"x_max":280.5625,"ha":332,"o":"m 226 936 l 104 936 l 104 0 b 38 -170 80 -37 38 -102 b 168 -291 38 -250 91 -291 b 280 -259 202 -291 251 -280 l 261 -195 b 198 -208 245 -202 225 -208 b 127 -136 158 -208 127 -183 b 184 0 127 -86 163 -29 l 226 0 l 226 936 "},"ω":{"x_min":52.78125,"x_max":911.109375,"ha":964,"o":"m 538 504 l 423 504 l 426 237 b 315 86 427 154 377 86 b 172 345 251 86 172 158 b 283 677 172 488 220 609 l 283 680 l 169 680 b 52 343 111 622 52 494 b 298 -15 52 86 181 -15 b 476 102 381 -15 444 30 l 481 102 b 656 -15 509 30 573 -15 b 911 354 784 -15 911 102 b 795 680 911 508 855 630 l 680 680 l 680 677 b 791 356 744 615 791 488 b 651 86 791 175 720 86 b 536 238 584 86 534 152 l 538 504 "},"Ţ":{"x_min":-1.71875,"x_max":691.328125,"ha":690,"o":"m 283 0 l 405 0 l 405 833 l 691 833 l 691 936 l -1 936 l -1 833 l 283 833 l 283 0 m 249 -308 b 428 -159 335 -302 428 -261 b 373 -56 428 -113 401 -75 l 283 -76 b 330 -161 308 -97 330 -127 b 226 -251 330 -215 280 -243 l 249 -308 "},"₎":{"x_min":18.0625,"x_max":195.828125,"ha":250,"o":"m 88 -286 b 195 50 138 -216 195 -109 b 88 386 195 212 138 319 l 18 386 b 118 50 73 305 118 197 b 18 -286 118 -97 72 -204 l 88 -286 "},"₄":{"x_min":22.21875,"x_max":454.171875,"ha":482,"o":"m 377 -204 l 377 -62 l 454 -62 l 454 6 l 377 6 l 377 337 l 268 337 l 22 -5 l 22 -62 l 284 -62 l 284 -204 l 377 -204 m 284 6 l 120 6 l 119 8 l 238 173 b 286 255 255 198 269 223 l 288 255 b 284 168 287 227 284 198 l 284 6 "},"´":{"x_min":140,"x_max":395.5625,"ha":417,"o":"m 262 962 l 140 763 l 226 763 l 395 962 l 262 962 "},"ỏ":{"x_min":52.78125,"x_max":709.71875,"ha":763,"o":"m 386 686 b 52 330 201 686 52 554 b 375 -15 52 118 194 -15 b 709 341 536 -15 709 93 b 386 686 709 545 579 686 m 383 594 b 584 337 527 594 584 451 b 380 76 584 186 497 76 b 177 334 261 76 177 187 b 383 594 177 461 240 594 m 400 734 b 505 897 431 798 505 820 b 388 1001 505 959 454 1001 b 252 909 319 1001 276 959 l 300 880 b 366 929 315 905 337 929 b 413 883 393 929 413 911 b 334 751 413 831 351 812 l 400 734 "},"Ĉ":{"x_min":50,"x_max":761.109375,"ha":806,"o":"m 734 126 b 536 87 686 102 611 87 b 177 463 309 87 177 233 b 543 850 177 709 323 850 b 730 811 620 850 686 833 l 761 909 b 538 951 729 926 654 951 b 50 459 248 951 50 754 b 511 -15 50 151 247 -15 b 758 29 625 -15 715 6 l 734 126 m 436 1150 l 294 991 l 393 991 l 481 1087 l 484 1087 l 572 991 l 675 991 l 529 1150 l 436 1150 "},"":{"x_min":112.5,"x_max":579.171875,"ha":736,"o":"m 559 179 b 418 151 530 165 483 151 b 227 344 313 151 227 216 b 423 540 227 461 306 540 b 554 515 480 540 526 530 l 576 598 b 440 626 548 611 495 625 l 440 718 l 363 718 l 363 623 b 112 338 212 601 112 488 b 363 63 112 180 213 81 l 363 -36 l 440 -36 l 440 63 b 579 97 501 66 555 84 l 559 179 "},"И":{"x_min":105.5625,"x_max":808.328125,"ha":914,"o":"m 105 936 l 105 0 l 234 0 l 527 466 b 701 781 591 569 655 678 l 705 779 b 694 398 695 661 694 550 l 694 0 l 808 0 l 808 936 l 687 936 l 384 454 b 212 144 316 342 258 241 l 208 145 b 219 541 216 270 219 394 l 219 936 l 105 936 "},"Љ":{"x_min":-8.328125,"x_max":1169.453125,"ha":1224,"o":"m 172 936 l 172 543 b 91 137 172 391 165 209 b -8 86 69 115 29 93 l 9 -11 b 150 33 59 -11 115 11 b 290 551 280 122 290 348 l 290 834 l 575 834 l 575 1 b 762 -8 615 -2 677 -8 b 1091 95 891 -8 1013 19 b 1169 300 1138 144 1169 211 b 809 590 1169 505 997 590 b 695 583 779 590 725 587 l 695 936 l 172 936 m 695 490 b 791 495 726 493 763 495 b 1043 295 923 495 1043 441 b 793 86 1043 154 927 86 b 695 91 754 86 725 86 l 695 490 "},"Ờ":{"x_min":50.265625,"x_max":943.34375,"ha":957,"o":"m 478 83 b 178 463 286 83 178 264 b 479 853 178 664 278 853 b 778 471 680 853 778 659 b 478 83 778 259 669 83 m 822 1028 b 846 939 836 1002 846 973 b 783 878 846 899 829 878 b 629 927 739 878 672 913 b 483 952 593 941 540 952 b 50 460 233 952 50 758 b 471 -15 50 177 222 -15 b 905 477 710 -15 905 156 b 797 808 905 624 860 737 b 943 933 897 799 943 856 b 916 1045 943 978 930 1016 l 822 1028 m 286 1148 l 464 987 l 562 987 l 433 1148 l 286 1148 "},"р":{"x_min":95.828125,"x_max":738.890625,"ha":790,"o":"m 101 -275 l 222 -275 l 222 90 l 225 90 b 431 -15 265 23 343 -15 b 738 345 590 -15 738 104 b 452 686 738 548 616 686 b 213 556 343 686 262 638 l 211 556 l 204 672 l 95 672 b 101 452 98 608 101 538 l 101 -275 m 222 390 b 230 438 222 405 226 423 b 415 588 252 530 331 588 b 615 340 544 588 615 473 b 411 80 615 186 540 80 b 227 223 323 80 250 138 b 222 273 223 238 222 255 l 222 390 "},"Ω":{"x_min":41.671875,"x_max":937.5,"ha":979,"o":"m 733 100 b 918 509 826 179 918 316 b 495 952 918 756 755 952 b 59 497 247 952 59 765 b 244 100 61 318 151 177 l 244 95 l 41 95 l 41 0 l 394 0 l 394 76 b 186 487 283 145 186 312 b 493 854 186 672 295 854 b 793 490 691 854 793 661 b 586 76 793 301 697 152 l 586 0 l 937 0 l 937 95 l 733 95 l 733 100 "},"":{"x_min":112.5,"x_max":366.671875,"ha":394,"o":"m 366 -101 l 366 -25 l 208 -25 l 208 930 l 366 930 l 366 1006 l 112 1006 l 112 -101 l 366 -101 "},"т":{"x_min":13.890625,"x_max":555.5625,"ha":571,"o":"m 13 672 l 13 576 l 223 576 l 223 0 l 345 0 l 345 576 l 555 576 l 555 672 l 13 672 "},"П":{"x_min":104.171875,"x_max":783.328125,"ha":888,"o":"m 104 936 l 104 0 l 226 0 l 226 834 l 661 834 l 661 0 l 783 0 l 783 936 l 104 936 "},"Ö":{"x_min":50,"x_max":905.5625,"ha":957,"o":"m 483 952 b 50 461 233 952 50 758 b 470 -15 50 177 222 -15 b 905 477 709 -15 905 156 b 483 952 905 756 740 952 m 479 854 b 777 472 680 854 777 659 b 477 83 777 259 669 83 b 177 463 286 83 177 262 b 479 854 177 668 277 854 m 348 1001 b 416 1072 390 1001 416 1033 b 350 1141 416 1111 388 1141 b 281 1072 311 1141 281 1109 b 348 1001 281 1033 309 1001 m 605 1001 b 675 1072 648 1001 675 1033 b 608 1141 675 1111 647 1141 b 538 1072 568 1141 538 1109 b 605 1001 538 1033 566 1001 "},"z":{"x_min":25,"x_max":569.4375,"ha":594,"o":"m 25 0 l 569 0 l 569 97 l 177 97 l 177 100 b 263 205 208 133 234 168 l 563 595 l 563 672 l 52 672 l 52 575 l 416 575 l 416 572 b 327 466 386 536 358 504 l 25 70 l 25 0 "},"™":{"x_min":43.0625,"x_max":841.671875,"ha":860,"o":"m 43 936 l 43 873 l 162 873 l 162 558 l 237 558 l 237 873 l 358 873 l 358 936 l 43 936 m 841 558 l 812 936 l 704 936 l 638 748 b 612 655 630 722 622 688 l 611 655 b 586 751 601 694 595 722 l 520 936 l 408 936 l 380 558 l 452 558 l 466 780 b 469 886 468 815 469 851 l 473 886 b 500 779 481 852 493 806 l 568 563 l 645 563 l 713 773 b 745 886 723 808 736 852 l 750 886 b 752 780 751 845 751 809 l 766 558 l 841 558 "},"ặ":{"x_min":48.921875,"x_max":583.640625,"ha":669,"o":"m 573 412 b 318 686 573 545 523 686 b 96 627 233 686 151 662 l 123 545 b 300 595 171 577 236 595 b 453 441 437 597 453 495 l 453 427 b 48 177 193 429 48 340 b 254 -15 48 80 118 -15 b 460 84 350 -15 422 31 l 464 84 l 473 0 l 583 0 b 573 161 576 45 573 102 l 573 412 m 455 226 b 450 187 455 215 454 201 b 285 75 430 130 373 75 b 171 191 223 75 171 111 b 455 343 171 322 322 345 l 455 226 m 162 947 b 335 773 162 859 212 773 b 507 947 439 773 507 843 l 435 947 b 333 851 430 900 400 851 b 235 947 278 851 243 893 l 162 947 m 335 -111 b 264 -183 296 -111 264 -143 b 333 -254 264 -220 293 -254 b 403 -183 375 -254 403 -220 b 335 -111 403 -143 373 -111 "},"Θ":{"x_min":50,"x_max":906.953125,"ha":957,"o":"m 472 -15 b 906 476 711 -15 906 156 b 484 952 906 756 740 952 b 50 459 234 952 50 756 b 472 -15 50 176 223 -15 m 479 83 b 177 462 287 83 177 265 b 480 854 177 665 277 854 b 779 472 681 854 779 659 b 479 83 779 259 670 83 m 290 531 l 290 431 l 666 431 l 666 531 l 290 531 "},"Ř":{"x_min":106.109375,"x_max":715.828125,"ha":747,"o":"m 106 0 l 226 0 l 226 405 l 340 405 b 529 223 450 401 501 352 b 590 0 554 106 575 27 l 715 0 b 643 256 696 36 674 126 b 507 445 621 354 578 420 l 507 450 b 682 687 604 483 682 565 b 608 866 682 761 654 825 b 338 943 551 918 467 943 b 106 923 256 943 167 934 l 106 0 m 226 838 b 346 848 247 844 288 848 b 561 675 474 848 561 795 b 350 497 561 568 479 497 l 226 497 l 226 838 m 414 990 l 556 1148 l 457 1148 l 369 1052 l 367 1052 l 278 1148 l 175 1148 l 321 990 l 414 990 "},"":{"x_min":31.9375,"x_max":420.828125,"ha":454,"o":"m 80 362 b 145 365 95 361 120 362 b 326 437 215 370 280 394 b 420 687 381 488 420 572 b 227 916 420 820 351 916 b 31 725 112 916 31 827 b 200 558 31 627 101 558 b 323 611 254 558 295 579 l 326 611 b 255 483 316 555 291 512 b 138 437 223 456 181 441 b 80 436 116 434 95 434 l 80 362 m 222 847 b 327 702 297 847 327 781 b 322 676 327 691 326 681 b 223 625 304 647 269 625 b 125 729 162 625 125 670 b 222 847 125 797 166 847 "},"Ň":{"x_min":105.125,"x_max":807.90625,"ha":914,"o":"m 219 0 l 219 399 b 210 786 219 555 217 668 l 214 788 b 388 475 260 686 323 579 l 685 0 l 807 0 l 807 936 l 694 936 l 694 544 b 707 159 694 398 696 284 l 703 158 b 537 462 660 253 605 352 l 238 936 l 105 936 l 105 0 l 219 0 m 505 979 l 648 1138 l 549 1138 l 462 1042 l 459 1042 l 370 1138 l 267 1138 l 413 979 l 505 979 "},"ừ":{"x_min":96.796875,"x_max":796.796875,"ha":765,"o":"m 678 805 b 703 726 694 781 703 752 b 638 672 703 691 685 672 l 541 672 l 541 261 b 530 198 541 237 537 215 b 369 86 507 143 450 86 b 219 300 259 86 219 172 l 219 672 l 96 672 l 96 279 b 328 -15 96 44 223 -15 b 550 109 448 -15 520 55 l 553 109 l 560 0 l 669 0 b 663 183 664 52 663 113 l 663 605 l 678 605 b 796 722 746 608 796 654 b 771 822 796 759 787 793 l 678 805 m 202 962 l 371 763 l 457 763 l 335 962 l 202 962 "},"Ợ":{"x_min":50.265625,"x_max":943.34375,"ha":957,"o":"m 478 83 b 178 463 286 83 178 264 b 479 853 178 664 278 853 b 778 471 680 853 778 659 b 478 83 778 259 669 83 m 822 1028 b 846 939 836 1003 846 973 b 783 877 846 898 829 877 b 629 927 739 877 672 913 b 483 952 593 941 540 952 b 50 460 233 952 50 758 b 471 -15 50 177 222 -15 b 905 477 710 -15 905 156 b 797 808 905 624 860 737 b 943 933 897 799 943 856 b 916 1046 943 980 930 1016 l 822 1028 m 478 -251 b 546 -180 516 -251 546 -218 b 479 -111 546 -144 516 -111 b 409 -180 440 -111 409 -144 b 478 -251 409 -218 439 -251 "},"É":{"x_min":104.171875,"x_max":631.9375,"ha":683,"o":"m 588 538 l 226 538 l 226 834 l 611 834 l 611 936 l 104 936 l 104 0 l 631 0 l 631 101 l 226 101 l 226 438 l 588 438 l 588 538 m 419 1148 l 290 986 l 388 986 l 566 1148 l 419 1148 "},"и":{"x_min":97.21875,"x_max":672.21875,"ha":769,"o":"m 97 672 l 97 0 l 238 0 b 448 351 309 118 384 247 b 561 561 488 419 516 473 l 563 561 b 555 284 558 451 555 394 l 555 0 l 672 0 l 672 672 l 529 672 l 319 324 b 209 118 273 247 251 199 l 205 119 b 213 388 211 215 213 283 l 213 672 l 97 672 "},"":{"x_min":-33.328125,"x_max":443.0625,"ha":418,"o":"m 31 795 b 100 863 72 795 100 825 b 34 931 100 902 72 931 b -33 863 -4 931 -33 901 b 31 795 -33 827 -5 795 m 373 795 b 443 863 415 795 443 825 b 377 931 443 902 415 931 b 309 863 338 931 309 901 b 373 795 309 827 336 795 m 209 973 l 102 775 l 183 775 l 337 973 l 209 973 "},"³":{"x_min":11.109375,"x_max":390.28125,"ha":424,"o":"m 62 1054 b 180 1091 84 1069 130 1091 b 268 1022 243 1091 268 1056 b 141 934 268 958 193 934 l 102 934 l 102 870 l 140 870 b 287 772 213 870 287 843 b 165 679 288 729 251 679 b 36 715 113 679 58 701 l 11 645 b 170 606 43 625 104 606 b 390 769 312 606 390 684 b 261 904 390 840 336 893 l 261 906 b 368 1033 327 930 368 976 b 198 1163 368 1100 318 1163 b 38 1120 130 1163 70 1141 l 62 1054 "},"":{"x_min":18.0625,"x_max":195.828125,"ha":250,"o":"m 88 287 b 195 623 138 356 195 463 b 88 959 195 786 138 893 l 18 959 b 118 623 73 879 118 770 b 18 287 118 476 72 369 l 88 287 "},"[":{"x_min":112.5,"x_max":366.671875,"ha":394,"o":"m 366 -155 l 366 -79 l 208 -79 l 208 876 l 366 876 l 366 952 l 112 952 l 112 -155 l 366 -155 "},"ζ":{"x_min":54.25,"x_max":565.359375,"ha":568,"o":"m 473 -197 b 557 45 511 -148 557 -34 b 544 61 557 54 551 59 b 350 102 480 69 413 79 b 177 347 248 138 177 197 b 565 900 177 550 343 787 l 547 984 l 315 984 b 145 989 252 984 190 984 l 133 909 b 295 894 175 897 232 894 l 394 894 l 394 890 b 54 325 179 743 54 516 b 275 16 54 147 152 56 b 438 -20 330 -2 390 -13 b 393 -173 437 -56 412 -141 l 473 -197 "},"∏":{"x_min":12.5,"x_max":840.28125,"ha":854,"o":"m 840 801 l 840 902 l 12 902 l 12 801 l 141 801 l 141 -125 l 256 -125 l 256 801 l 595 801 l 595 -125 l 711 -125 l 711 801 l 840 801 "},"Έ":{"x_min":0,"x_max":729.171875,"ha":779,"o":"m 686 538 l 323 538 l 323 834 l 708 834 l 708 936 l 201 936 l 201 0 l 729 0 l 729 101 l 323 101 l 323 438 l 686 438 l 686 538 m 9 936 l 0 720 l 72 720 l 120 936 l 9 936 "},"Ρ":{"x_min":105.5625,"x_max":681.953125,"ha":739,"o":"m 105 0 l 226 0 l 226 375 b 323 366 254 368 287 366 b 609 469 441 366 544 401 b 681 669 656 518 681 585 b 600 865 681 753 650 821 b 337 943 544 915 456 943 b 105 925 240 943 163 935 l 105 0 m 226 837 b 340 847 247 843 287 847 b 561 662 472 847 561 787 b 326 464 561 536 472 464 b 226 473 286 464 252 466 l 226 837 "},"ğ":{"x_min":53.1875,"x_max":682.34375,"ha":776,"o":"m 676 487 b 682 670 676 568 678 623 l 574 670 l 569 569 l 567 569 b 357 684 536 625 474 684 b 53 329 201 684 53 556 b 339 1 53 143 172 1 b 553 113 443 1 517 51 l 555 113 l 555 40 b 339 -195 555 -130 464 -195 b 142 -141 255 -195 186 -170 l 111 -236 b 335 -291 165 -272 254 -291 b 580 -211 419 -291 514 -270 b 676 97 644 -151 676 -58 l 676 487 m 554 284 b 544 219 554 263 551 240 b 375 94 519 141 451 94 b 176 336 244 94 176 204 b 376 590 176 491 260 590 b 547 459 467 590 525 531 b 554 405 553 444 554 426 l 554 284 m 205 945 b 378 772 205 858 255 772 b 550 945 482 772 550 841 l 478 945 b 376 850 474 898 443 850 b 278 945 321 850 286 891 l 205 945 "},"Ở":{"x_min":50.265625,"x_max":943.34375,"ha":957,"o":"m 478 83 b 178 463 286 83 178 264 b 479 853 178 664 278 853 b 778 471 680 853 778 659 b 478 83 778 259 669 83 m 822 1028 b 846 939 836 1003 846 973 b 783 877 846 898 829 877 b 629 927 739 877 672 913 b 483 952 593 941 540 952 b 50 460 233 952 50 758 b 471 -15 50 177 222 -15 b 905 477 710 -15 905 156 b 797 808 905 624 860 737 b 943 933 897 799 943 856 b 916 1046 943 980 930 1016 l 822 1028 m 511 985 b 609 1135 548 1049 609 1064 b 494 1235 609 1192 558 1235 b 357 1142 423 1235 382 1192 l 404 1114 b 472 1163 419 1138 443 1163 b 518 1120 500 1163 518 1146 b 446 1003 518 1074 468 1063 l 511 985 "},"ª":{"x_min":46.125,"x_max":422.515625,"ha":481,"o":"m 422 369 b 415 477 418 402 415 440 l 415 626 b 239 820 415 726 378 820 b 80 775 179 820 121 804 l 103 716 b 221 752 135 740 176 752 b 325 666 312 752 325 688 l 325 652 b 46 495 146 656 46 594 b 189 362 46 422 97 362 b 330 427 254 362 303 394 l 333 427 l 340 369 l 422 369 m 326 516 b 312 480 326 508 322 493 b 218 429 296 452 260 429 b 137 501 175 429 137 454 b 326 593 137 579 239 595 l 326 516 "},"":{"x_min":33.328125,"x_max":583.328125,"ha":622,"o":"m 583 0 l 583 97 l 331 97 b 218 91 295 97 252 95 l 218 95 l 288 147 b 534 474 434 249 534 345 b 294 691 534 612 434 691 b 41 605 181 691 91 642 l 75 526 b 262 594 122 560 191 594 b 412 458 350 594 412 548 b 101 113 412 345 309 251 l 33 66 l 33 0 l 583 0 "},"ї":{"x_min":-34.71875,"x_max":359.71875,"ha":325,"o":"m 223 1 l 223 673 l 101 673 l 101 1 l 223 1 m 33 793 b 102 863 75 793 102 826 b 36 934 102 904 73 934 b -34 863 -4 934 -34 902 b 33 793 -34 826 -5 793 m 290 793 b 359 863 331 793 359 826 b 291 934 359 904 330 934 b 222 863 252 934 222 902 b 290 793 222 826 250 793 "},"ﬀ":{"x_min":20.828125,"x_max":862.5,"ha":810,"o":"m 638 1 l 638 580 l 800 580 l 800 673 l 638 673 l 638 709 b 768 903 638 813 665 903 b 847 888 804 903 827 897 l 862 981 b 758 1001 840 991 802 1001 b 595 939 702 1001 641 983 b 518 705 538 885 518 799 l 518 673 l 234 673 l 234 701 b 356 888 234 806 261 888 b 429 870 384 888 411 880 l 454 961 b 358 984 433 972 397 984 b 188 922 283 984 227 961 b 113 694 136 868 113 788 l 113 673 l 20 673 l 20 580 l 113 580 l 113 1 l 234 1 l 234 580 l 518 580 l 518 1 l 638 1 "},"":{"x_min":50,"x_max":669.453125,"ha":715,"o":"m 580 916 b 491 909 558 916 527 915 b 202 776 377 895 277 850 b 50 369 112 687 50 547 b 368 -15 50 134 176 -15 b 669 304 556 -15 669 137 b 397 595 669 479 556 595 b 177 490 297 595 220 548 l 175 490 b 488 809 195 640 295 779 b 580 816 523 815 555 818 l 580 916 m 370 79 b 170 338 241 79 172 190 b 183 391 170 361 176 377 b 359 502 216 458 286 502 b 545 295 472 502 545 425 b 370 79 545 166 475 79 "},"":{"x_min":77.78125,"x_max":319.4375,"ha":417,"o":"m 190 1 l 125 -118 b 233 -177 190 -125 233 -141 b 175 -220 233 -208 206 -220 b 98 -201 144 -220 119 -212 l 77 -263 b 176 -287 102 -277 140 -287 b 319 -175 248 -287 319 -255 b 222 -72 319 -118 275 -80 l 265 1 l 190 1 "},"T":{"x_min":-1.390625,"x_max":691.671875,"ha":690,"o":"m 283 0 l 405 0 l 405 833 l 691 833 l 691 936 l -1 936 l -1 833 l 283 833 l 283 0 "},"š":{"x_min":55.921875,"x_max":494.015625,"ha":550,"o":"m 55 31 b 244 -15 103 4 171 -15 b 494 187 401 -15 494 68 b 317 388 494 287 433 345 b 191 504 230 423 191 448 b 302 595 191 554 230 595 b 439 555 365 595 413 572 l 469 644 b 305 686 432 668 373 686 b 73 488 162 686 73 597 b 252 298 73 408 130 343 b 376 176 341 265 376 234 b 247 76 376 119 334 76 b 85 123 186 76 122 101 l 55 31 m 326 763 l 456 962 l 365 962 l 283 830 l 280 830 l 198 962 l 105 962 l 238 763 l 326 763 "},"є":{"x_min":53,"x_max":600.21875,"ha":639,"o":"m 600 641 b 419 686 569 659 501 686 b 53 330 205 686 53 544 b 396 -15 53 134 179 -15 b 600 27 491 -15 566 11 l 576 115 b 415 80 543 101 487 80 b 179 300 283 80 189 166 l 518 300 l 518 384 l 178 384 b 418 591 191 498 271 591 b 571 554 489 591 539 569 l 600 641 "},"Þ":{"x_min":105.5625,"x_max":681.953125,"ha":738,"o":"m 105 0 l 225 0 l 225 216 b 330 209 254 212 291 209 b 681 507 533 209 681 308 b 605 687 681 577 654 643 b 358 763 548 738 468 763 b 225 754 308 763 262 761 l 225 936 l 105 936 l 105 0 m 225 657 b 347 668 247 662 291 668 b 561 493 473 668 561 614 b 329 307 561 379 479 307 b 225 315 293 307 256 308 l 225 657 "},"j":{"x_min":-63.890625,"x_max":252.78125,"ha":338,"o":"m -50 -293 b 158 -216 15 -293 104 -270 b 238 59 218 -155 238 -70 l 238 672 l 116 672 l 116 106 b 69 -144 116 -54 102 -106 b -63 -197 40 -177 -6 -193 l -50 -293 m 177 937 b 101 861 131 937 101 902 b 175 786 101 820 130 786 b 252 861 225 786 252 820 b 177 937 252 902 223 937 "},"Σ":{"x_min":36.15625,"x_max":727.875,"ha":767,"o":"m 194 105 l 495 469 l 209 830 l 209 836 l 683 836 l 683 936 l 52 936 l 52 855 l 361 465 l 36 72 l 36 0 l 727 0 l 727 101 l 194 101 l 194 105 "},"1":{"x_min":144.4375,"x_max":445.828125,"ha":713,"o":"m 327 0 l 445 0 l 445 902 l 341 902 l 144 797 l 168 704 l 325 788 l 327 788 l 327 0 "},"ℓ":{"x_min":41.671875,"x_max":659.71875,"ha":700,"o":"m 269 711 b 365 905 269 848 315 905 b 451 776 415 905 451 869 b 269 411 451 652 383 527 l 269 711 m 600 211 b 411 88 565 159 501 88 b 269 275 329 88 270 136 l 269 295 b 552 779 452 458 552 609 b 372 991 552 906 483 991 b 152 687 248 991 152 904 l 152 320 b 41 238 118 293 79 265 l 77 170 b 154 222 104 187 129 204 b 155 211 155 219 155 216 b 381 -13 168 81 238 -13 b 659 154 501 -13 594 40 l 600 211 "},"ĉ":{"x_min":52.78125,"x_max":583.328125,"ha":622,"o":"m 559 115 b 409 83 525 100 479 83 b 176 334 276 83 176 179 b 413 588 176 473 259 588 b 555 556 480 588 526 572 l 583 650 b 413 686 550 668 486 686 b 52 327 194 686 52 534 b 387 -15 52 122 184 -15 b 580 23 477 -15 548 8 l 559 115 m 318 962 l 187 763 l 279 763 l 358 894 l 361 894 l 443 763 l 536 763 l 402 962 l 318 962 "},"ī":{"x_min":6.9375,"x_max":319.4375,"ha":325,"o":"m 223 0 l 223 672 l 101 672 l 101 0 l 223 0 m 6 893 l 6 813 l 319 813 l 319 893 l 6 893 "},"О":{"x_min":50,"x_max":905.5625,"ha":957,"o":"m 483 952 b 50 461 233 952 50 758 b 470 -15 50 177 222 -15 b 905 477 709 -15 905 156 b 483 952 905 756 740 952 m 479 854 b 777 472 680 854 777 659 b 477 83 777 259 669 83 b 177 463 286 83 177 262 b 479 854 177 668 277 854 "},"ξ":{"x_min":54.640625,"x_max":591.015625,"ha":601,"o":"m 501 602 b 435 604 477 602 454 604 b 239 759 325 608 239 661 b 414 911 239 837 297 911 b 549 879 472 911 523 894 l 575 963 b 407 1001 537 986 480 1001 b 117 766 212 1001 117 883 b 271 570 117 676 168 604 l 271 563 b 54 294 151 531 54 427 b 473 -22 54 59 289 4 b 429 -175 472 -56 447 -143 l 508 -198 b 591 44 546 -150 591 -27 b 577 59 591 52 585 59 b 394 93 521 66 459 76 b 181 305 257 130 181 193 b 464 515 181 420 271 513 l 501 515 l 501 602 "},"Ď":{"x_min":105.5625,"x_max":875,"ha":925,"o":"m 105 2 b 325 -8 166 -4 237 -8 b 740 126 506 -8 651 38 b 875 490 826 212 875 337 b 741 826 875 641 826 750 b 362 943 659 901 536 943 b 105 922 266 943 179 934 l 105 2 m 226 834 b 368 847 258 841 305 847 b 747 486 623 847 748 706 b 348 88 747 233 608 88 b 226 94 301 88 256 90 l 226 834 m 475 988 l 616 1147 l 518 1147 l 430 1051 l 427 1051 l 338 1147 l 236 1147 l 381 988 l 475 988 "},"&":{"x_min":42.96875,"x_max":836.03125,"ha":840,"o":"m 836 0 b 681 166 780 59 731 112 b 816 512 751 248 791 365 l 705 512 b 615 238 687 394 658 304 b 387 498 555 305 466 406 l 387 504 b 592 754 536 577 592 655 b 386 952 592 876 502 952 b 148 720 230 952 148 836 b 226 525 148 655 177 586 l 226 520 b 42 247 119 462 42 375 b 330 -15 42 106 148 -15 b 604 90 434 -15 523 16 b 691 0 640 54 665 26 l 836 0 m 352 76 b 159 265 238 76 159 158 b 280 456 159 365 229 423 b 544 161 384 336 488 222 b 352 76 499 112 431 76 m 376 869 b 486 748 454 869 486 805 b 330 563 486 668 424 618 b 259 733 291 613 259 665 b 376 869 259 805 299 869 "},"":{"x_min":35,"x_max":477,"ha":417,"o":"m 250 1223 l 403 1077 l 477 1077 l 376 1223 l 250 1223 m 164 1143 l 35 984 l 129 984 l 205 1081 l 208 1081 l 285 984 l 382 984 l 251 1143 l 164 1143 "},"G":{"x_min":49.65625,"x_max":819.109375,"ha":897,"o":"m 819 491 l 510 491 l 510 394 l 699 394 l 699 115 b 538 90 671 101 617 90 b 177 468 319 90 177 230 b 553 844 177 702 326 844 b 760 804 648 844 710 827 l 791 902 b 556 945 751 922 664 945 b 49 462 242 945 49 741 b 180 113 49 316 99 191 b 530 -9 271 26 388 -9 b 819 41 656 -9 764 20 l 819 491 "},"ΰ":{"x_min":77.640625,"x_max":663.75,"ha":728,"o":"m 498 672 b 544 398 515 637 544 523 b 366 86 544 205 483 86 b 213 273 292 86 213 137 l 213 547 b 194 672 213 619 206 658 l 77 672 b 92 445 90 634 92 563 l 92 256 b 356 -15 92 72 208 -15 b 663 409 599 -15 663 212 b 613 672 663 522 635 629 l 498 672 m 335 965 l 306 748 l 372 748 l 440 965 l 335 965 m 192 777 b 256 841 231 777 256 806 b 195 905 256 877 230 905 b 130 841 159 905 130 877 b 192 777 130 806 156 777 m 529 777 b 594 841 569 777 594 806 b 531 905 594 877 567 905 b 467 841 495 905 467 877 b 529 777 467 806 494 777 "},"`":{"x_min":31,"x_max":287,"ha":417,"o":"m 31 962 l 200 763 l 287 763 l 164 962 l 31 962 "},"ỗ":{"x_min":52.234375,"x_max":709.171875,"ha":763,"o":"m 385 686 b 52 330 200 686 52 554 b 374 -15 52 118 193 -15 b 709 341 535 -15 709 93 b 385 686 709 545 578 686 m 382 594 b 584 337 527 594 584 451 b 380 76 584 186 496 76 b 177 334 260 76 177 187 b 382 594 177 461 239 594 m 334 926 l 210 763 l 303 763 l 377 865 l 380 865 l 455 763 l 550 763 l 424 926 l 334 926 m 280 943 b 316 997 282 975 293 997 b 375 975 332 997 348 988 b 460 945 405 959 430 945 b 555 1079 525 945 556 991 l 489 1079 b 452 1022 486 1034 474 1022 b 393 1044 435 1022 416 1033 b 307 1075 360 1061 336 1075 b 213 943 248 1075 211 1022 l 280 943 "},"Ễ":{"x_min":103.84375,"x_max":631.625,"ha":683,"o":"m 588 538 l 226 538 l 226 834 l 610 834 l 610 936 l 103 936 l 103 0 l 631 0 l 631 101 l 226 101 l 226 438 l 588 438 l 588 538 m 324 1144 l 183 986 l 281 986 l 370 1081 l 373 1081 l 460 986 l 563 986 l 417 1144 l 324 1144 m 273 1162 b 308 1218 274 1195 287 1218 b 369 1194 324 1218 341 1209 b 452 1165 396 1179 423 1165 b 546 1298 517 1165 549 1212 l 483 1298 b 444 1241 480 1254 466 1241 b 385 1263 427 1241 408 1252 b 299 1294 353 1280 330 1294 b 205 1162 241 1294 203 1241 l 273 1162 "},"ằ":{"x_min":48.90625,"x_max":583.53125,"ha":669,"o":"m 573 412 b 318 686 573 545 523 686 b 97 627 233 686 153 662 l 125 545 b 300 595 172 577 236 595 b 452 441 437 597 452 495 l 452 427 b 48 177 193 429 48 340 b 254 -15 48 80 118 -15 b 459 84 350 -15 422 31 l 462 84 l 473 0 l 583 0 b 573 161 576 45 573 102 l 573 412 m 455 226 b 450 187 455 213 454 200 b 284 75 430 130 373 75 b 171 191 223 75 171 111 b 455 343 171 322 322 345 l 455 226 m 155 1073 l 309 890 l 384 890 l 273 1073 l 155 1073 m 150 912 b 329 738 151 825 207 738 b 508 912 434 738 507 808 l 440 912 b 329 816 436 865 400 816 b 219 912 268 816 227 858 l 150 912 "},"ŏ":{"x_min":52.78125,"x_max":709.71875,"ha":763,"o":"m 386 686 b 52 330 201 686 52 554 b 375 -15 52 118 194 -15 b 709 341 536 -15 709 93 b 386 686 709 545 579 686 m 383 594 b 584 337 527 594 584 451 b 380 76 584 186 497 76 b 177 334 261 76 177 187 b 383 594 177 461 240 594 m 208 947 b 380 773 208 859 258 773 b 552 947 484 773 552 843 l 480 947 b 379 851 476 900 445 851 b 280 947 323 851 288 893 l 208 947 "},"Ả":{"x_min":34.71875,"x_max":818.0625,"ha":850,"o":"m 588 294 l 688 0 l 818 0 l 498 936 l 354 936 l 34 0 l 159 0 l 256 294 l 588 294 m 281 388 l 373 659 b 420 829 393 716 406 775 l 423 829 b 472 658 437 775 451 719 l 565 388 l 281 388 m 458 984 b 558 1133 495 1048 558 1063 b 443 1234 558 1190 506 1234 b 305 1141 372 1234 330 1191 l 351 1113 b 420 1162 368 1137 391 1162 b 466 1118 447 1162 466 1145 b 394 1002 466 1073 416 1061 l 458 984 "},"ý":{"x_min":13,"x_max":645,"ha":654,"o":"m 13 672 l 260 52 b 269 20 267 37 269 27 b 260 -8 269 13 265 4 b 157 -144 231 -70 190 -118 b 50 -204 121 -175 81 -194 l 81 -305 b 231 -227 111 -300 169 -279 b 461 193 314 -154 374 -37 l 645 672 l 515 672 l 382 277 b 339 137 365 229 351 177 l 336 137 b 292 275 325 177 308 230 l 146 672 l 13 672 m 396 962 l 275 763 l 361 763 l 531 962 l 396 962 "},"":{"x_min":33,"x_max":315,"ha":354,"o":"m 217 454 l 33 198 l 130 198 l 315 454 l 130 709 l 33 709 l 217 454 "},"º":{"x_min":25,"x_max":468.0625,"ha":493,"o":"m 250 820 b 25 587 129 820 25 731 b 245 362 25 451 122 362 b 468 594 352 362 466 434 b 250 820 468 725 383 820 m 244 751 b 375 591 337 751 375 661 b 247 431 375 495 320 431 b 118 588 177 431 118 498 b 244 751 118 663 156 751 "},"∞":{"x_min":48.609375,"x_max":962.5,"ha":1011,"o":"m 751 162 b 962 365 873 162 962 256 b 763 570 962 486 880 570 b 505 423 650 570 576 494 b 258 570 438 490 362 570 b 48 365 137 570 48 476 b 247 162 48 247 130 162 b 505 308 361 162 434 238 b 751 162 572 243 648 162 m 754 244 b 561 365 672 244 615 316 b 756 488 613 419 677 488 b 875 365 825 488 875 436 b 754 244 875 300 822 244 m 255 244 b 136 365 186 244 136 295 b 258 488 136 431 188 488 b 450 365 338 488 395 415 b 255 244 397 311 333 244 "},"":{"x_min":31.9375,"x_max":434.71875,"ha":467,"o":"m 229 -6 b 434 275 365 -6 434 105 b 236 548 434 443 363 548 b 31 269 111 548 31 441 b 229 -6 31 97 108 -6 m 233 63 b 129 272 169 63 129 138 b 233 477 129 402 170 477 b 337 272 302 477 337 401 b 233 63 337 141 301 63 "},"ź":{"x_min":24.828125,"x_max":569.28125,"ha":594,"o":"m 24 0 l 569 0 l 569 97 l 177 97 l 177 100 b 263 205 208 133 234 168 l 563 595 l 563 672 l 52 672 l 52 575 l 416 575 l 416 572 b 327 466 385 536 358 504 l 24 70 l 24 0 m 360 962 l 240 763 l 326 763 l 495 962 l 360 962 "},"я":{"x_min":15.28125,"x_max":591.671875,"ha":689,"o":"m 591 666 b 376 680 533 675 455 680 b 150 634 287 680 205 668 b 61 488 98 605 61 558 b 238 320 61 384 151 330 l 238 318 b 162 279 208 311 183 297 b 56 76 102 229 86 141 b 15 0 44 47 30 22 l 145 0 b 173 55 155 16 165 34 b 269 243 200 120 218 202 b 380 281 294 268 329 281 l 470 281 l 470 0 l 591 0 l 591 666 m 470 363 b 366 363 443 363 418 363 b 187 481 294 363 187 395 b 369 598 187 575 287 598 b 470 591 412 598 440 595 l 470 363 "},"Ё":{"x_min":104.171875,"x_max":631.9375,"ha":683,"o":"m 588 538 l 226 538 l 226 834 l 611 834 l 611 936 l 104 936 l 104 0 l 631 0 l 631 101 l 226 101 l 226 438 l 588 438 l 588 538 m 225 1001 b 293 1072 266 1001 293 1033 b 226 1141 293 1111 265 1141 b 158 1072 187 1141 158 1109 b 225 1001 158 1033 186 1001 m 481 1001 b 551 1072 525 1001 551 1033 b 484 1141 551 1111 523 1141 b 415 1072 444 1141 415 1109 b 481 1001 415 1033 443 1001 "},"Ư":{"x_min":104.171875,"x_max":940.28125,"ha":940,"o":"m 823 1069 b 845 988 837 1044 845 1015 b 781 936 845 952 829 936 l 672 936 l 672 380 b 444 83 672 175 581 83 b 226 380 319 83 226 172 l 226 936 l 104 936 l 104 384 b 440 -15 104 93 248 -15 b 794 388 643 -15 794 101 l 794 862 l 815 863 b 940 981 898 866 940 913 b 916 1086 940 1020 930 1055 l 823 1069 "},"ń":{"x_min":95.828125,"x_max":673.609375,"ha":771,"o":"m 101 0 l 223 0 l 223 404 b 231 461 223 425 226 445 b 395 586 254 529 316 586 b 551 387 511 586 551 495 l 551 0 l 673 0 l 673 400 b 436 686 673 630 529 686 b 213 561 325 686 247 623 l 211 561 l 204 672 l 95 672 b 101 490 100 616 101 561 l 101 0 m 441 962 l 319 763 l 405 763 l 575 962 l 441 962 "},"Г":{"x_min":104.171875,"x_max":602.78125,"ha":601,"o":"m 104 936 l 104 0 l 226 0 l 226 834 l 602 834 l 602 936 l 104 936 "},"Ь":{"x_min":105.5625,"x_max":702.78125,"ha":757,"o":"m 105 936 l 105 2 b 294 -8 145 -2 209 -8 b 630 101 423 -8 554 20 b 702 301 675 148 702 213 b 341 593 702 508 533 593 b 226 586 309 593 254 590 l 226 936 l 105 936 m 226 490 b 325 495 256 493 294 495 b 576 294 458 495 576 440 b 326 86 576 150 461 86 b 226 93 284 86 254 87 l 226 490 "},"¤":{"x_min":38.8125,"x_max":677.921875,"ha":713,"o":"m 356 741 b 195 684 294 741 236 719 l 101 790 l 38 726 l 144 627 b 90 457 113 589 90 529 b 141 289 90 387 113 326 l 41 192 l 101 131 l 194 233 b 352 178 231 199 295 178 b 515 236 408 178 473 197 l 611 131 l 672 192 l 568 294 b 616 464 594 329 616 389 b 568 627 616 532 595 590 l 677 726 l 615 790 l 516 686 b 356 741 479 719 420 741 m 352 654 b 518 462 461 654 518 559 b 352 265 518 319 430 265 b 188 458 280 265 188 324 b 352 654 188 566 251 654 "},"Ĝ":{"x_min":49.65625,"x_max":819.109375,"ha":897,"o":"m 819 491 l 510 491 l 510 394 l 699 394 l 699 115 b 538 90 671 101 617 90 b 177 468 319 90 177 230 b 553 844 177 702 326 844 b 760 804 648 844 710 827 l 791 902 b 556 945 751 922 664 945 b 49 462 242 945 49 741 b 180 113 49 316 99 191 b 530 -9 271 26 388 -9 b 819 41 656 -9 764 20 l 819 491 m 452 1148 l 310 990 l 409 990 l 498 1086 l 501 1086 l 588 990 l 691 990 l 545 1148 l 452 1148 "},"p":{"x_min":95.828125,"x_max":738.890625,"ha":790,"o":"m 101 -275 l 222 -275 l 222 90 l 225 90 b 431 -15 265 23 343 -15 b 738 345 590 -15 738 104 b 452 686 738 548 616 686 b 213 556 343 686 262 638 l 211 556 l 204 672 l 95 672 b 101 452 98 608 101 538 l 101 -275 m 222 390 b 230 438 222 405 226 423 b 415 588 252 530 331 588 b 615 340 544 588 615 473 b 411 80 615 186 540 80 b 227 223 323 80 250 138 b 222 273 223 238 222 255 l 222 390 "},"":{"x_min":46,"x_max":463,"ha":417,"o":"m 262 1075 l 392 893 l 463 893 l 374 1075 l 262 1075 m 164 962 l 46 763 l 136 763 l 205 894 l 210 894 l 279 763 l 372 763 l 253 962 l 164 962 "},"Ю":{"x_min":105.5625,"x_max":1154.171875,"ha":1204,"o":"m 105 936 l 105 0 l 226 0 l 226 430 l 362 430 b 751 -15 372 156 525 -15 b 1154 477 973 -15 1154 152 b 763 952 1154 756 1006 952 b 365 533 543 952 390 794 l 226 533 l 226 936 l 105 936 m 756 81 b 481 463 579 81 481 265 b 758 855 481 665 572 855 b 1030 472 944 855 1030 659 b 756 81 1030 259 933 81 "},"":{"x_min":22.21875,"x_max":454.171875,"ha":482,"o":"m 377 0 l 377 141 l 454 141 l 454 211 l 377 211 l 377 541 l 268 541 l 22 198 l 22 141 l 284 141 l 284 0 l 377 0 m 284 211 l 120 211 l 119 212 l 238 377 b 286 459 255 402 269 427 l 288 459 b 284 372 287 431 284 402 l 284 211 "},"ο":{"x_min":52.78125,"x_max":709.71875,"ha":763,"o":"m 375 -15 b 709 341 536 -15 709 93 b 386 686 709 545 579 686 b 52 330 201 686 52 554 b 375 -15 52 118 194 -15 m 380 76 b 177 334 261 76 177 187 b 383 594 177 461 240 594 b 584 337 527 594 584 451 b 380 76 584 186 497 76 "},"S":{"x_min":57.78125,"x_max":623.0625,"ha":685,"o":"m 57 45 b 296 -15 107 12 206 -15 b 623 255 517 -15 623 111 b 385 530 623 393 543 469 b 199 711 256 580 199 623 b 375 851 199 775 248 851 b 552 806 460 851 523 825 l 585 905 b 380 951 545 929 474 951 b 77 697 198 951 77 843 b 324 430 77 566 171 486 b 500 245 450 383 500 331 b 305 86 500 151 428 86 b 89 147 221 86 143 112 l 57 45 "},"ễ":{"x_min":53,"x_max":646.015625,"ha":696,"o":"m 641 313 b 646 370 644 327 646 345 b 368 686 646 494 589 686 b 53 325 172 686 53 527 b 383 -15 53 122 176 -15 b 608 27 490 -15 565 8 l 586 115 b 400 80 541 95 487 80 b 169 313 276 80 172 148 l 641 313 m 171 401 b 358 598 180 486 233 598 b 528 401 496 598 529 477 l 171 401 m 316 926 l 191 763 l 284 763 l 359 865 l 362 865 l 436 763 l 532 763 l 405 926 l 316 926 m 261 943 b 297 997 264 975 275 997 b 357 975 314 997 329 988 b 441 945 386 959 411 945 b 536 1079 507 945 537 991 l 471 1079 b 433 1022 468 1034 455 1022 b 375 1044 416 1022 397 1033 b 289 1075 341 1061 318 1075 b 194 943 229 1075 193 1022 l 261 943 "},"/":{"x_min":-0.9375,"x_max":481,"ha":476,"o":"m 92 -54 l 481 952 l 385 952 l 0 -54 l 92 -54 "},"":{"x_min":-28.265625,"x_max":441.328125,"ha":418,"o":"m 37 795 b 105 863 77 795 105 825 b 39 931 105 902 77 931 b -28 863 0 931 -28 901 b 37 795 -28 827 0 795 m 371 795 b 441 863 413 795 441 825 b 376 931 441 902 413 931 b 307 863 337 931 307 901 b 371 795 307 827 334 795 m 77 973 l 232 775 l 313 775 l 205 973 l 77 973 "},"Ọ":{"x_min":50,"x_max":905.5625,"ha":957,"o":"m 483 952 b 50 461 233 952 50 758 b 470 -15 50 177 222 -15 b 905 477 709 -15 905 156 b 483 952 905 756 740 952 m 479 854 b 777 472 680 854 777 659 b 477 83 777 259 669 83 b 177 463 286 83 177 262 b 479 854 177 668 277 854 m 477 -251 b 545 -180 516 -251 545 -218 b 479 -111 545 -144 516 -111 b 409 -180 440 -111 409 -144 b 477 -251 409 -218 438 -251 "},"Ŧ":{"x_min":-1.390625,"x_max":691.671875,"ha":690,"o":"m 691 833 l 691 936 l -1 936 l -1 833 l 283 833 l 283 525 l 109 525 l 109 444 l 283 444 l 283 0 l 405 0 l 405 444 l 577 444 l 577 525 l 405 525 l 405 833 l 691 833 "},"":{"x_min":93.03125,"x_max":630.53125,"ha":736,"o":"m 630 673 l 93 673 l 93 572 l 505 572 l 505 569 b 124 -136 431 374 237 29 l 238 -157 b 630 595 379 59 544 369 l 630 673 "},"ђ":{"x_min":9.71875,"x_max":718.0625,"ha":774,"o":"m 9 868 l 9 780 l 123 780 l 123 0 l 245 0 l 245 423 b 266 500 245 456 252 480 b 415 580 305 547 361 580 b 543 504 472 580 515 550 b 595 268 584 434 595 352 b 513 -34 595 123 562 20 b 384 -104 476 -76 437 -93 l 406 -198 b 580 -122 470 -193 531 -163 b 718 276 666 -50 718 88 b 644 569 718 387 697 491 b 452 679 601 638 536 679 b 248 583 370 679 297 637 l 245 583 l 245 780 l 559 780 l 559 868 l 245 868 l 245 986 l 123 986 l 123 868 l 9 868 "},"y":{"x_min":13,"x_max":645,"ha":654,"o":"m 13 672 l 260 52 b 269 20 267 37 269 27 b 260 -8 269 13 265 4 b 157 -144 231 -70 190 -118 b 50 -204 121 -175 81 -194 l 81 -305 b 231 -227 111 -300 169 -279 b 461 193 314 -154 374 -37 l 645 672 l 515 672 l 382 277 b 339 137 365 229 351 177 l 336 137 b 292 275 325 177 308 230 l 146 672 l 13 672 "},"Π":{"x_min":104.171875,"x_max":775,"ha":881,"o":"m 775 936 l 104 936 l 104 0 l 226 0 l 226 833 l 652 833 l 652 0 l 775 0 l 775 936 "},"":{"x_min":48.65625,"x_max":388.921875,"ha":440,"o":"m 248 -275 l 248 -188 b 388 -44 340 -175 388 -112 b 252 109 388 30 345 75 b 147 194 173 138 147 156 b 231 258 147 225 168 258 b 345 229 288 258 327 238 l 368 297 b 252 326 343 311 304 325 l 252 404 l 190 404 l 190 322 b 55 183 105 308 55 254 b 201 36 55 106 109 69 b 297 -52 268 11 297 -11 b 201 -123 297 -94 259 -123 b 70 -86 150 -123 104 -106 l 48 -155 b 186 -193 80 -176 133 -191 l 186 -275 l 248 -275 "},"–":{"x_min":41.671875,"x_max":652.78125,"ha":694,"o":"m 41 394 l 41 311 l 652 311 l 652 394 l 41 394 "},"ë":{"x_min":52.953125,"x_max":646.015625,"ha":696,"o":"m 641 315 b 646 372 644 329 646 347 b 368 687 646 495 589 687 b 52 326 172 687 52 529 b 383 -13 52 123 176 -13 b 608 29 490 -13 565 9 l 586 116 b 400 81 541 97 487 81 b 169 315 276 81 172 150 l 641 315 m 171 402 b 358 600 180 487 233 600 b 527 402 496 600 529 479 l 171 402 m 243 793 b 312 863 284 793 312 826 b 246 934 312 904 283 934 b 175 863 205 934 175 902 b 243 793 175 826 204 793 m 500 793 b 569 863 541 793 569 826 b 501 934 569 904 540 934 b 432 863 462 934 432 902 b 500 793 432 826 459 793 "},"б":{"x_min":56.171875,"x_max":681.171875,"ha":733,"o":"m 615 1001 b 449 964 570 985 504 974 b 160 806 317 942 224 901 b 56 434 88 713 56 587 b 370 -17 56 210 133 -17 b 681 339 567 -17 681 120 b 395 671 681 553 560 671 b 160 520 299 671 204 619 l 156 520 b 229 742 163 592 186 682 b 470 869 281 816 361 852 b 610 899 514 876 577 887 l 615 1001 m 557 331 b 372 74 557 206 508 74 b 183 346 239 74 183 235 b 217 489 183 401 195 449 b 370 581 246 544 297 581 b 557 331 514 581 557 439 "},"ƒ":{"x_min":15,"x_max":659,"ha":713,"o":"m 153 469 l 281 469 l 249 195 b 114 -22 232 54 200 -22 b 37 -6 85 -22 60 -18 l 15 -93 b 123 -116 38 -106 77 -116 b 364 186 285 -116 342 5 l 397 469 l 575 469 l 575 558 l 408 558 l 417 629 b 564 822 428 731 469 822 b 636 808 592 822 615 816 l 659 897 b 564 918 639 908 606 916 b 299 622 377 918 316 758 l 291 558 l 153 558 l 153 469 "},"⁽":{"x_min":55.5625,"x_max":233.328125,"ha":250,"o":"m 162 1205 b 55 868 112 1138 55 1030 b 162 533 55 708 112 601 l 233 533 b 133 868 179 615 133 720 b 233 1205 133 1016 177 1126 l 162 1205 "},"у":{"x_min":13,"x_max":645,"ha":654,"o":"m 13 672 l 260 52 b 269 20 267 37 269 27 b 260 -8 269 13 265 4 b 157 -144 231 -70 190 -118 b 50 -204 121 -175 81 -194 l 81 -305 b 231 -227 111 -300 169 -279 b 461 193 314 -154 374 -37 l 645 672 l 515 672 l 382 277 b 339 137 365 229 351 177 l 336 137 b 292 275 325 177 308 230 l 146 672 l 13 672 "},"J":{"x_min":5.5625,"x_max":418.0625,"ha":514,"o":"m 295 319 b 125 87 295 136 233 87 b 22 105 83 87 47 95 l 5 6 b 134 -15 34 -5 88 -15 b 418 309 295 -15 418 61 l 418 936 l 295 936 l 295 319 "},"ŷ":{"x_min":13,"x_max":645,"ha":654,"o":"m 13 672 l 260 52 b 269 20 267 37 269 27 b 260 -8 269 13 265 4 b 157 -144 231 -70 190 -118 b 50 -204 121 -175 81 -194 l 81 -305 b 231 -227 111 -300 169 -279 b 461 193 314 -154 374 -37 l 645 672 l 515 672 l 382 277 b 339 137 365 229 351 177 l 336 137 b 292 275 325 177 308 230 l 146 672 l 13 672 m 286 962 l 156 763 l 247 763 l 328 894 l 331 894 l 411 763 l 504 763 l 371 962 l 286 962 "},"ŕ":{"x_min":95.3125,"x_max":434.203125,"ha":454,"o":"m 100 0 l 223 0 l 223 358 b 227 415 223 377 224 398 b 391 570 243 506 305 570 b 432 568 407 570 420 570 l 432 683 b 399 686 421 684 411 686 b 211 538 317 686 242 629 l 207 538 l 202 672 l 95 672 b 100 462 99 609 100 541 l 100 0 m 300 962 l 178 763 l 264 763 l 434 962 l 300 962 "},"‐":{"x_min":41.671875,"x_max":384.71875,"ha":426,"o":"m 41 419 l 41 330 l 384 330 l 384 419 l 41 419 "},"ώ":{"x_min":52.78125,"x_max":911.109375,"ha":964,"o":"m 500 952 l 426 754 l 506 754 l 623 952 l 500 952 m 538 504 l 423 504 l 426 237 b 315 86 427 154 377 86 b 172 345 251 86 172 158 b 283 677 172 488 220 609 l 283 680 l 169 680 b 52 343 111 622 52 494 b 298 -15 52 86 181 -15 b 476 102 381 -15 444 30 l 481 102 b 656 -15 509 30 573 -15 b 911 354 784 -15 911 102 b 795 680 911 508 855 630 l 680 680 l 680 677 b 791 356 744 615 791 488 b 651 86 791 175 720 86 b 536 238 584 86 534 152 l 538 504 "},"˘":{"x_min":36.109375,"x_max":380.5625,"ha":417,"o":"m 36 947 b 208 773 36 859 86 773 b 380 947 312 773 380 843 l 308 947 b 206 851 304 900 273 851 b 108 947 151 851 116 893 l 36 947 "},"D":{"x_min":105.5625,"x_max":875,"ha":925,"o":"m 105 2 b 325 -8 166 -4 237 -8 b 740 126 506 -8 651 38 b 875 490 826 212 875 337 b 741 826 875 641 826 750 b 362 943 659 901 536 943 b 105 922 266 943 179 934 l 105 2 m 226 834 b 368 847 258 841 305 847 b 747 486 623 847 748 706 b 348 88 747 233 608 88 b 226 94 301 88 256 90 l 226 834 "},"":{"x_min":11.109375,"x_max":390.28125,"ha":424,"o":"m 62 808 b 180 845 84 823 130 845 b 268 776 243 845 268 811 b 141 688 268 712 193 688 l 102 688 l 102 625 l 140 625 b 287 527 213 626 287 598 b 165 434 288 484 251 434 b 36 470 113 434 58 455 l 11 401 b 170 362 43 380 104 362 b 390 525 312 362 390 438 b 261 659 390 595 336 648 l 261 662 b 368 787 327 684 368 730 b 198 918 368 854 318 918 b 38 875 130 918 70 895 l 62 808 "},"":{"x_min":105.125,"x_max":807.90625,"ha":914,"o":"m 219 0 l 219 399 b 210 786 219 555 217 668 l 214 788 b 388 475 260 686 323 579 l 685 0 l 807 0 l 807 936 l 694 936 l 694 544 b 707 159 694 398 696 284 l 703 158 b 537 462 660 253 605 352 l 238 936 l 105 936 l 105 0 l 219 0 m 409 1144 l 266 986 l 364 986 l 453 1082 l 456 1082 l 544 986 l 646 986 l 500 1144 l 409 1144 "},"ł":{"x_min":12.5,"x_max":327.78125,"ha":336,"o":"m 229 0 l 229 493 l 327 577 l 327 675 l 229 590 l 229 986 l 106 986 l 106 495 l 12 415 l 12 319 l 106 400 l 106 0 l 229 0 "},"ĺ":{"x_min":84.71875,"x_max":361.109375,"ha":328,"o":"m 101 0 l 223 0 l 223 986 l 101 986 l 101 0 m 213 1188 l 84 1026 l 183 1026 l 361 1188 l 213 1188 "},"ц":{"x_min":97.21875,"x_max":719.453125,"ha":764,"o":"m 97 672 l 97 0 l 611 0 l 616 -212 l 712 -212 l 719 90 l 650 91 l 650 672 l 529 672 l 529 95 l 219 95 l 219 672 l 97 672 "},"Л":{"x_min":-9.71875,"x_max":720.828125,"ha":825,"o":"m 170 936 l 170 541 b 88 136 170 391 163 208 b -9 86 66 113 27 91 l 5 -11 b 150 33 59 -11 115 11 b 290 551 280 122 290 348 l 290 834 l 598 834 l 598 0 l 720 0 l 720 936 l 170 936 "},"$":{"x_min":91.90625,"x_max":609.96875,"ha":713,"o":"m 390 -118 l 390 26 b 609 262 533 48 609 151 b 394 515 609 386 537 456 b 222 673 273 566 222 602 b 369 794 222 730 262 794 b 544 745 458 794 515 762 l 579 837 b 398 886 537 861 480 883 l 398 1020 l 311 1020 l 311 881 b 103 658 184 861 103 773 b 332 416 103 537 190 472 b 489 251 434 375 489 327 b 323 115 489 172 422 115 b 125 175 246 115 173 143 l 91 81 b 303 20 140 47 222 22 l 303 -118 l 390 -118 "},"w":{"x_min":25,"x_max":1001,"ha":1022,"o":"m 25 672 l 227 0 l 338 0 l 447 319 b 508 541 470 391 491 461 l 510 541 b 570 320 527 462 547 395 l 673 0 l 784 0 l 1001 672 l 880 672 l 784 334 b 733 116 762 255 744 184 l 728 116 b 669 336 713 184 694 255 l 565 672 l 462 672 l 352 329 b 292 116 330 256 308 184 l 288 116 b 240 330 276 186 258 255 l 149 672 l 25 672 "},"о":{"x_min":52.78125,"x_max":709.71875,"ha":763,"o":"m 386 686 b 52 330 201 686 52 554 b 375 -15 52 118 194 -15 b 709 341 536 -15 709 93 b 386 686 709 545 579 686 m 383 594 b 584 337 527 594 584 451 b 380 76 584 186 497 76 b 177 334 261 76 177 187 b 383 594 177 461 240 594 "},"Д":{"x_min":16.671875,"x_max":827.78125,"ha":875,"o":"m 222 936 l 222 698 b 177 304 222 537 209 412 b 86 98 155 230 120 162 l 16 95 l 23 -225 l 118 -225 l 126 0 l 716 0 l 725 -225 l 819 -225 l 827 95 l 745 98 l 745 936 l 222 936 m 334 836 l 625 836 l 625 100 l 211 100 b 287 277 237 150 268 212 b 334 659 320 383 334 509 l 334 836 "},"Ç":{"x_min":50,"x_max":761.109375,"ha":813,"o":"m 736 126 b 537 87 686 102 611 87 b 177 463 309 87 177 233 b 543 850 177 709 323 850 b 731 811 620 850 686 833 l 761 909 b 540 951 730 926 655 951 b 50 459 248 951 50 754 b 443 -9 50 177 213 16 l 384 -115 b 493 -175 450 -123 493 -138 b 433 -218 493 -205 465 -218 b 356 -198 405 -218 377 -211 l 337 -261 b 436 -284 362 -275 400 -284 b 579 -172 508 -284 579 -254 b 481 -69 579 -116 534 -79 l 516 -13 b 759 30 631 -12 718 8 l 736 126 "},"Ŝ":{"x_min":58.421875,"x_max":623.0625,"ha":685,"o":"m 58 45 b 297 -15 108 12 206 -15 b 623 255 517 -15 623 111 b 385 530 623 393 544 469 b 200 711 256 580 200 623 b 376 851 200 775 248 851 b 552 806 460 851 523 825 l 585 905 b 380 951 545 929 474 951 b 77 697 198 951 77 843 b 324 430 77 566 172 486 b 500 245 451 383 500 331 b 305 86 500 151 428 86 b 90 147 222 86 144 112 l 58 45 m 297 1148 l 154 990 l 252 990 l 341 1086 l 344 1086 l 431 990 l 534 990 l 388 1148 l 297 1148 "},"C":{"x_min":50,"x_max":761.109375,"ha":806,"o":"m 734 126 b 536 87 686 102 611 87 b 177 463 309 87 177 233 b 543 850 177 709 323 850 b 730 811 620 850 686 833 l 761 909 b 538 951 729 926 654 951 b 50 459 248 951 50 754 b 511 -15 50 151 247 -15 b 758 29 625 -15 715 6 l 734 126 "},"":{"x_min":31.9375,"x_max":429.171875,"ha":461,"o":"m 370 547 b 316 544 356 547 337 545 b 125 465 237 536 173 511 b 31 225 69 412 31 327 b 237 -6 31 90 108 -6 b 429 186 350 -6 429 79 b 259 359 429 290 359 359 b 129 302 201 359 155 331 l 126 302 b 315 472 141 386 204 456 b 370 473 336 475 356 475 l 370 547 m 237 63 b 123 201 162 63 123 126 b 130 230 123 213 126 222 b 229 293 148 266 186 293 b 334 180 294 293 334 248 b 237 63 334 113 295 63 "},"Ĵ":{"x_min":5.5625,"x_max":543.0625,"ha":514,"o":"m 295 319 b 125 87 295 136 233 87 b 22 105 83 87 47 95 l 5 6 b 134 -15 34 -5 88 -15 b 418 309 295 -15 418 61 l 418 936 l 295 936 l 295 319 m 304 1144 l 162 986 l 261 986 l 350 1081 l 352 1081 l 440 986 l 543 986 l 397 1144 l 304 1144 "},"":{"x_min":108.625,"x_max":616.953125,"ha":736,"o":"m 108 -134 b 266 -158 143 -148 205 -158 b 616 123 473 -158 616 -45 b 553 280 616 183 594 240 b 247 365 480 350 362 368 l 287 573 l 589 573 l 604 673 l 205 673 l 135 275 b 450 215 286 284 396 268 b 493 113 478 188 493 152 b 265 -65 493 -2 385 -65 b 123 -47 212 -65 155 -56 l 108 -134 "},"Ẻ":{"x_min":104.171875,"x_max":631.9375,"ha":683,"o":"m 588 538 l 226 538 l 226 834 l 611 834 l 611 936 l 104 936 l 104 0 l 631 0 l 631 101 l 226 101 l 226 438 l 588 438 l 588 538 m 402 984 b 501 1134 440 1050 501 1063 b 386 1234 501 1191 450 1234 b 248 1143 315 1234 275 1191 l 295 1113 b 363 1162 311 1137 336 1162 b 411 1119 391 1162 411 1145 b 337 1002 411 1073 359 1062 l 402 984 "},"È":{"x_min":103.890625,"x_max":631.671875,"ha":683,"o":"m 588 538 l 226 538 l 226 834 l 610 834 l 610 936 l 103 936 l 103 0 l 631 0 l 631 101 l 226 101 l 226 438 l 588 438 l 588 538 m 165 1148 l 342 987 l 441 987 l 312 1148 l 165 1148 "},"ﬁ":{"x_min":20.921875,"x_max":625.078125,"ha":726,"o":"m 234 0 l 234 579 l 502 579 l 502 0 l 625 0 l 625 672 l 234 672 l 234 705 b 401 902 234 812 272 902 b 543 863 461 902 512 884 l 577 956 b 407 1001 543 981 469 1001 b 113 709 218 1001 113 886 l 113 672 l 20 672 l 20 579 l 113 579 l 113 0 l 234 0 "},"X":{"x_min":35,"x_max":759,"ha":793,"o":"m 759 0 l 467 480 l 752 936 l 611 936 l 485 716 b 400 558 450 656 426 613 l 396 558 b 310 716 371 608 344 655 l 186 936 l 46 936 l 321 473 l 35 0 l 173 0 l 286 205 b 387 391 333 287 361 337 l 390 391 b 497 206 419 337 449 286 l 618 0 l 759 0 "},"ô":{"x_min":52.78125,"x_max":709.71875,"ha":763,"o":"m 386 686 b 52 330 201 686 52 554 b 375 -15 52 118 194 -15 b 709 341 536 -15 709 93 b 386 686 709 545 579 686 m 383 594 b 584 337 527 594 584 451 b 380 76 584 186 497 76 b 177 334 261 76 177 187 b 383 594 177 461 240 594 m 337 962 l 206 763 l 298 763 l 377 894 l 380 894 l 462 763 l 555 763 l 422 962 l 337 962 "},"":{"x_min":59.09375,"x_max":968.8125,"ha":1024,"o":"m 621 483 b 452 294 606 397 532 294 b 360 400 391 294 360 338 b 581 650 360 534 459 650 b 650 638 613 650 636 644 l 621 483 m 704 98 b 495 50 647 68 574 50 b 138 426 289 50 138 194 b 554 888 138 708 328 888 b 891 540 770 888 891 743 b 741 287 891 380 811 284 b 699 443 695 288 678 337 l 746 694 b 597 723 710 711 656 723 b 268 394 404 723 268 566 b 418 219 268 284 338 219 b 614 341 502 219 566 259 l 618 341 b 722 219 616 255 667 219 b 968 550 852 219 968 341 b 566 952 968 781 807 952 b 59 418 257 952 59 704 b 479 -16 59 150 252 -16 b 727 38 572 -16 650 -1 l 704 98 "},"Ė":{"x_min":104.171875,"x_max":631.9375,"ha":683,"o":"m 588 538 l 226 538 l 226 834 l 611 834 l 611 936 l 104 936 l 104 0 l 631 0 l 631 101 l 226 101 l 226 438 l 588 438 l 588 538 m 347 1001 b 415 1072 386 1001 415 1034 b 348 1141 415 1108 386 1141 b 279 1072 309 1141 279 1108 b 347 1001 279 1034 308 1001 "},"г":{"x_min":98.609375,"x_max":511.109375,"ha":535,"o":"m 98 672 l 98 0 l 219 0 l 219 575 l 511 575 l 511 672 l 98 672 "},"ấ":{"x_min":48.921875,"x_max":658.75,"ha":669,"o":"m 574 412 b 318 686 574 545 524 686 b 96 627 233 686 151 662 l 123 545 b 300 595 171 577 236 595 b 453 441 437 597 453 495 l 453 427 b 48 177 193 429 48 340 b 254 -15 48 80 118 -15 b 460 84 350 -15 422 31 l 464 84 l 474 0 l 583 0 b 574 161 576 45 574 102 l 574 412 m 455 226 b 450 187 455 215 454 201 b 285 75 430 130 373 75 b 171 191 223 75 171 111 b 455 343 171 322 322 345 l 455 226 m 279 962 l 162 763 l 251 763 l 322 894 l 325 894 l 396 763 l 489 763 l 369 962 l 279 962 m 546 1075 l 450 893 l 521 893 l 658 1075 l 546 1075 "},"":{"x_min":20.828125,"x_max":581.9375,"ha":639,"o":"m 563 902 l 131 902 l 73 469 b 200 477 106 473 147 477 b 458 278 379 477 458 395 b 245 83 459 158 359 83 b 51 133 162 83 88 110 l 20 40 b 245 -15 65 12 147 -15 b 581 292 441 -15 581 116 b 452 523 581 405 523 484 b 258 572 397 558 329 572 b 184 567 225 572 205 570 l 219 799 l 563 799 l 563 902 "},"Ŀ":{"x_min":104.171875,"x_max":626.390625,"ha":656,"o":"m 104 0 l 626 0 l 626 101 l 226 101 l 226 936 l 104 936 l 104 0 m 472 445 b 540 516 511 445 540 479 b 473 586 540 552 511 586 b 404 516 434 586 404 552 b 472 445 404 479 433 445 "},"х":{"x_min":11,"x_max":626,"ha":643,"o":"m 22 672 l 249 343 l 11 0 l 145 0 l 242 151 b 313 268 269 191 291 227 l 316 268 b 388 151 340 227 362 190 l 488 0 l 626 0 l 391 347 l 620 672 l 487 672 l 394 529 b 326 419 370 493 348 458 l 323 419 b 253 527 301 456 280 490 l 158 672 l 22 672 "},"ŋ":{"x_min":95.828125,"x_max":673.609375,"ha":771,"o":"m 101 0 l 223 0 l 223 404 b 231 461 223 425 226 445 b 395 586 254 529 316 586 b 551 387 511 586 551 495 l 551 70 b 386 -151 551 -58 497 -129 l 409 -248 b 673 81 558 -227 673 -131 l 673 400 b 436 686 673 630 529 686 b 213 561 325 686 247 623 l 211 561 l 204 672 l 95 672 b 101 490 100 616 101 561 l 101 0 "},"Ỵ":{"x_min":16.671875,"x_max":748.609375,"ha":751,"o":"m 436 0 l 436 398 l 748 936 l 612 936 l 477 677 b 383 484 441 606 408 545 l 380 484 b 287 677 351 550 322 606 l 155 936 l 16 936 l 313 397 l 313 0 l 436 0 m 375 -251 b 443 -180 413 -251 443 -218 b 376 -111 443 -144 413 -111 b 306 -180 337 -111 306 -144 b 375 -251 306 -218 336 -251 "},"Ч":{"x_min":98.609375,"x_max":723.609375,"ha":829,"o":"m 98 936 l 98 616 b 375 336 98 388 251 336 b 600 394 456 336 534 356 l 602 394 l 602 -5 l 723 -5 l 723 936 l 602 936 l 602 488 b 416 434 554 456 483 434 b 219 636 286 434 219 506 l 219 936 l 98 936 "},"":{"x_min":50.625,"x_max":558.953125,"ha":613,"o":"m 50 -134 b 208 -158 85 -148 147 -158 b 558 123 415 -158 558 -45 b 495 280 558 183 536 240 b 189 365 422 350 304 368 l 229 573 l 531 573 l 546 673 l 147 673 l 77 275 b 392 215 228 284 338 268 b 435 113 420 188 435 152 b 207 -65 435 -2 327 -65 b 65 -47 154 -65 97 -56 l 50 -134 "},"":{"x_min":29.171875,"x_max":151.390625,"ha":182,"o":"m 88 -212 b 151 -150 126 -212 151 -184 b 90 -87 151 -112 126 -87 b 29 -150 55 -87 29 -112 b 88 -212 29 -184 54 -212 "},"":{"x_min":0.0625,"x_max":157,"ha":182,"o":"m 66 522 b 157 738 97 572 133 661 l 54 730 b 0 515 44 662 22 576 l 66 522 "},"":{"x_min":75,"x_max":327.78125,"ha":417,"o":"m 223 736 b 327 898 255 798 327 820 b 211 1002 327 959 276 1002 b 75 909 141 1002 100 959 l 122 881 b 190 930 138 906 159 930 b 236 883 215 930 236 912 b 158 752 236 831 175 813 l 223 736 "},"ü":{"x_min":97.21875,"x_max":669.453125,"ha":765,"o":"m 663 673 l 541 673 l 541 262 b 530 200 541 238 537 216 b 369 87 508 144 451 87 b 219 302 259 87 219 175 l 219 673 l 97 673 l 97 280 b 329 -13 97 45 223 -13 b 551 111 448 -13 520 56 l 554 111 l 561 1 l 669 1 b 663 186 665 54 663 115 l 663 673 m 256 793 b 326 863 298 793 326 826 b 259 934 326 904 297 934 b 188 863 219 934 188 902 b 256 793 188 826 218 793 m 513 793 b 583 863 555 793 583 826 b 515 934 583 904 554 934 b 445 863 476 934 445 902 b 513 793 445 826 473 793 "},"":{"x_min":36.171875,"x_max":382.046875,"ha":417,"o":"m 108 1161 b 143 1204 112 1181 120 1204 b 202 1180 159 1204 175 1195 b 287 1151 232 1165 257 1151 b 382 1284 352 1151 383 1198 l 316 1284 b 279 1229 313 1240 300 1229 b 220 1251 261 1229 243 1238 b 134 1280 187 1268 163 1280 b 40 1161 75 1280 43 1230 l 108 1161 m 36 1113 b 207 970 45 1037 98 970 b 382 1113 315 970 372 1040 l 316 1113 b 208 1047 305 1076 279 1047 b 101 1113 140 1047 111 1080 l 36 1113 "},"ь":{"x_min":97.21875,"x_max":641.671875,"ha":692,"o":"m 97 672 l 97 2 b 277 -6 148 -2 211 -6 b 570 70 376 -6 497 8 b 641 225 613 106 641 155 b 330 452 641 404 481 452 b 219 445 294 452 248 450 l 219 672 l 97 672 m 218 356 b 305 365 247 362 273 365 b 519 222 397 365 519 338 b 309 80 519 111 400 80 b 218 86 269 80 243 81 l 218 356 "},"":{"x_min":25,"x_max":240.28125,"ha":265,"o":"m 25 288 l 25 222 l 240 222 l 240 288 l 25 288 "},"":{"x_min":31.9375,"x_max":429.171875,"ha":461,"o":"m 370 916 b 316 913 356 916 337 915 b 125 834 237 905 173 880 b 31 594 69 781 31 697 b 237 362 31 459 108 362 b 429 555 350 362 429 448 b 259 729 429 659 359 729 b 129 672 201 729 155 701 l 126 672 b 315 841 141 755 204 826 b 370 843 336 844 356 844 l 370 916 m 237 433 b 123 570 162 433 123 495 b 130 600 123 583 126 591 b 229 662 148 636 186 662 b 334 550 294 662 334 618 b 237 433 334 483 295 433 "},"Ÿ":{"x_min":16.671875,"x_max":748.609375,"ha":751,"o":"m 436 0 l 436 398 l 748 936 l 612 936 l 477 677 b 383 484 441 606 408 545 l 380 484 b 287 677 351 550 322 606 l 155 936 l 16 936 l 313 397 l 313 0 l 436 0 m 258 991 b 326 1062 300 991 326 1023 b 259 1131 326 1101 298 1131 b 191 1062 220 1131 191 1100 b 258 991 191 1023 219 991 m 515 991 b 584 1062 558 991 584 1023 b 518 1131 584 1101 556 1131 b 448 1062 477 1131 448 1100 b 515 991 448 1023 476 991 "},"€":{"x_min":14.28125,"x_max":689.28125,"ha":713,"o":"m 665 130 b 496 84 633 111 569 84 b 300 165 421 84 351 109 b 224 347 261 206 235 266 l 617 347 l 617 416 l 214 416 b 214 440 214 425 214 431 b 217 498 214 461 214 480 l 617 498 l 617 568 l 229 568 b 311 745 243 641 271 704 b 496 820 358 794 421 820 b 651 781 558 820 615 802 l 679 873 b 493 918 640 894 576 918 b 219 802 380 918 289 876 b 105 568 162 745 122 665 l 14 568 l 14 498 l 96 498 b 93 437 94 479 93 458 b 93 416 93 430 93 423 l 14 416 l 14 347 l 100 347 b 200 108 112 247 147 166 b 482 -15 268 27 369 -15 b 689 41 572 -15 646 12 l 665 130 "},"в":{"x_min":97.21875,"x_max":641.671875,"ha":694,"o":"m 97 0 b 287 -8 133 -2 212 -8 b 641 190 419 -8 641 13 b 470 355 641 287 569 341 l 470 358 b 611 511 547 375 611 427 b 311 679 611 659 425 679 b 97 663 233 679 145 672 l 97 0 m 215 588 b 309 594 243 591 268 594 b 490 495 431 594 490 562 b 306 388 490 415 397 388 l 215 388 l 215 588 m 213 309 l 302 309 b 516 191 418 309 516 288 b 311 75 516 93 394 75 b 213 79 273 75 248 76 l 213 309 "},"Η":{"x_min":104.171875,"x_max":801.390625,"ha":906,"o":"m 104 936 l 104 0 l 226 0 l 226 438 l 679 438 l 679 0 l 801 0 l 801 936 l 679 936 l 679 544 l 226 544 l 226 936 l 104 936 "},"С":{"x_min":50,"x_max":761.109375,"ha":806,"o":"m 734 126 b 536 87 686 102 611 87 b 177 463 309 87 177 233 b 543 850 177 709 323 850 b 730 811 620 850 686 833 l 761 909 b 538 951 729 926 654 951 b 50 459 248 951 50 754 b 511 -15 50 151 247 -15 b 758 29 625 -15 715 6 l 734 126 "},"ß":{"x_min":101.390625,"x_max":702.78125,"ha":761,"o":"m 223 0 l 223 633 b 390 905 223 830 283 905 b 534 754 476 905 534 850 b 523 694 534 731 530 711 b 398 523 441 655 398 594 b 506 338 398 445 448 394 b 581 195 555 293 581 254 b 445 79 581 131 534 79 b 329 106 404 79 365 88 l 306 13 b 454 -15 347 -6 402 -15 b 702 205 608 -15 702 75 b 590 419 702 305 645 363 b 519 540 547 463 519 493 b 618 652 519 587 555 626 b 651 766 634 676 651 719 b 404 1001 651 919 536 1001 b 201 930 319 1001 252 977 b 101 627 138 875 101 786 l 101 0 l 223 0 "},"њ":{"x_min":97.21875,"x_max":1036.109375,"ha":1086,"o":"m 97 671 l 97 0 l 219 0 l 219 327 l 502 327 l 502 0 b 684 -7 554 -3 618 -7 b 968 69 781 -7 894 5 b 1036 221 1008 103 1036 152 b 738 444 1036 388 875 444 b 625 437 700 444 652 441 l 625 671 l 502 671 l 502 421 l 219 421 l 219 671 l 97 671 m 623 350 b 715 357 651 355 680 357 b 913 217 806 357 913 330 b 715 80 913 109 802 80 b 623 84 673 80 647 82 l 623 350 "},"":{"x_min":-62,"x_max":449,"ha":417,"o":"m -62 1150 l 115 987 l 207 987 l 81 1150 l -62 1150 m 179 1150 l 355 987 l 449 987 l 321 1150 l 179 1150 "},"Ể":{"x_min":105.84375,"x_max":662.796875,"ha":683,"o":"m 590 538 l 228 538 l 228 834 l 611 834 l 611 935 l 105 935 l 105 0 l 633 0 l 633 101 l 228 101 l 228 438 l 590 438 l 590 538 m 314 1144 l 185 985 l 279 985 l 355 1083 l 358 1083 l 436 985 l 533 985 l 401 1144 l 314 1144 m 566 1046 b 662 1191 604 1110 662 1124 b 553 1288 662 1246 615 1288 b 421 1199 485 1288 444 1248 l 465 1173 b 533 1224 480 1196 504 1224 b 580 1178 560 1224 580 1205 b 508 1063 580 1134 530 1121 l 566 1046 "},"ẳ":{"x_min":48.90625,"x_max":585.015625,"ha":669,"o":"m 573 413 b 318 686 573 546 523 686 b 97 628 233 686 153 663 l 125 546 b 300 596 171 578 237 596 b 453 442 437 597 453 496 l 453 428 b 48 178 193 429 48 340 b 254 -14 48 81 118 -14 b 460 85 350 -14 422 32 l 464 85 l 473 0 l 585 0 b 573 161 576 46 573 103 l 573 413 m 455 226 b 450 188 455 214 454 200 b 285 75 430 131 373 75 b 171 192 223 75 171 111 b 455 343 171 322 322 346 l 455 226 m 344 881 b 441 1024 382 943 441 956 b 329 1122 441 1078 393 1122 b 197 1033 262 1122 221 1081 l 241 1006 b 308 1056 257 1029 280 1056 b 354 1011 335 1056 354 1036 b 283 896 354 967 305 954 l 344 881 m 147 913 b 326 740 148 825 204 740 b 507 913 432 740 504 808 l 437 913 b 326 817 433 865 397 817 b 216 913 265 817 225 858 l 147 913 "},"Ű":{"x_min":104.171875,"x_max":794.453125,"ha":899,"o":"m 104 936 l 104 384 b 440 -15 104 93 248 -15 b 794 388 643 -15 794 101 l 794 936 l 672 936 l 672 380 b 444 83 672 175 581 83 b 226 380 319 83 226 172 l 226 936 l 104 936 m 393 1148 l 281 993 l 370 993 l 525 1148 l 393 1148 m 597 1148 l 486 993 l 575 993 l 729 1148 l 597 1148 "},"c":{"x_min":52.78125,"x_max":583.328125,"ha":622,"o":"m 559 115 b 409 83 525 100 479 83 b 176 334 276 83 176 179 b 413 588 176 473 259 588 b 555 556 480 588 526 572 l 583 650 b 413 686 550 668 486 686 b 52 327 194 686 52 534 b 387 -15 52 122 184 -15 b 580 23 477 -15 548 8 l 559 115 "},"¶":{"x_min":47.203125,"x_max":591.671875,"ha":711,"o":"m 406 -68 l 406 855 l 505 855 l 505 -68 l 591 -68 l 591 927 b 429 938 556 934 502 938 b 47 631 125 938 45 776 b 311 368 50 452 201 368 l 320 368 l 320 -68 l 406 -68 "},"Ή":{"x_min":0,"x_max":897.21875,"ha":1003,"o":"m 201 936 l 201 0 l 322 0 l 322 438 l 775 438 l 775 0 l 897 0 l 897 936 l 775 936 l 775 544 l 322 544 l 322 936 l 201 936 m 9 936 l 0 720 l 72 720 l 119 936 l 9 936 "},"Ụ":{"x_min":104.171875,"x_max":794.453125,"ha":899,"o":"m 104 936 l 104 384 b 440 -15 104 93 248 -15 b 794 388 643 -15 794 101 l 794 936 l 672 936 l 672 380 b 444 83 672 175 581 83 b 226 380 319 83 226 172 l 226 936 l 104 936 m 450 -251 b 518 -180 488 -251 518 -218 b 451 -111 518 -144 488 -111 b 381 -180 412 -111 381 -144 b 450 -251 381 -218 411 -251 "},"γ":{"x_min":-6.9375,"x_max":615.28125,"ha":644,"o":"m 375 -275 b 370 2 373 -180 373 -76 b 377 36 370 15 370 25 b 615 626 506 231 615 454 b 612 672 615 643 615 661 l 497 672 b 497 626 497 659 497 645 b 338 150 497 461 400 261 l 334 150 b 130 672 291 355 190 580 l -6 672 b 230 119 61 569 179 341 b 254 -275 261 -13 258 -145 l 375 -275 "},"­":{"x_min":41.671875,"x_max":384.71875,"ha":404,"o":"m 41 419 l 41 330 l 384 330 l 384 419 l 41 419 "},"ȳ":{"x_min":13,"x_max":645,"ha":654,"o":"m 13 672 l 260 52 b 269 20 267 37 269 27 b 260 -8 269 13 265 4 b 157 -144 231 -70 190 -118 b 50 -204 121 -175 81 -194 l 81 -305 b 231 -227 111 -300 169 -279 b 461 193 314 -154 374 -37 l 645 672 l 515 672 l 382 277 b 339 137 365 229 351 177 l 336 137 b 292 275 325 177 308 230 l 146 672 l 13 672 m 172 893 l 172 813 l 485 813 l 485 893 l 172 893 "},":":{"x_min":73.609375,"x_max":237.5,"ha":288,"o":"m 154 475 b 237 561 205 475 237 512 b 155 648 237 612 205 648 b 73 561 108 648 73 612 b 154 475 73 512 106 475 m 154 -15 b 237 70 205 -15 237 22 b 155 158 237 122 205 158 b 73 70 108 158 73 122 b 154 -15 73 22 106 -15 "},"":{"x_min":18.0625,"x_max":195.828125,"ha":250,"o":"m 88 -81 b 195 254 138 -12 195 94 b 88 590 195 416 138 523 l 18 590 b 118 254 73 509 118 401 b 18 -81 118 106 72 0 l 88 -81 "},"":{"x_min":51,"x_max":498.125,"ha":417,"o":"m 162 1148 l 51 993 l 139 993 l 293 1148 l 162 1148 m 366 1148 l 255 993 l 343 993 l 498 1148 l 366 1148 "},"₫":{"x_min":93.0625,"x_max":672.21875,"ha":713,"o":"m 123 136 l 123 54 l 591 54 l 591 136 l 123 136 m 480 922 l 480 829 l 305 829 l 305 761 l 480 761 l 480 638 l 477 638 b 327 711 452 680 401 711 b 93 454 198 711 93 613 b 313 212 93 309 188 212 b 487 302 397 212 458 250 l 490 302 l 494 223 l 590 223 b 586 345 587 255 586 304 l 586 761 l 672 761 l 672 829 l 586 829 l 586 922 l 480 922 m 480 430 b 475 394 480 419 479 404 b 343 294 459 333 404 294 b 204 458 252 294 204 368 b 347 629 204 556 256 629 b 476 533 412 629 463 584 b 480 495 479 523 480 508 l 480 430 "},"ś":{"x_min":55.125,"x_max":494.015625,"ha":550,"o":"m 55 31 b 244 -15 102 4 170 -15 b 494 187 400 -15 494 68 b 317 388 494 287 432 345 b 191 504 230 423 191 448 b 302 595 191 554 230 595 b 439 555 364 595 413 572 l 469 644 b 305 686 432 668 373 686 b 73 488 162 686 73 597 b 252 298 73 408 130 343 b 375 176 341 265 375 234 b 246 76 375 119 334 76 b 84 123 185 76 121 101 l 55 31 m 338 962 l 217 763 l 303 763 l 473 962 l 338 962 "}," ":{"x_min":0,"x_max":0,"ha":294},"У":{"x_min":3,"x_max":729,"ha":724,"o":"m 3 936 l 313 302 b 318 245 325 280 327 266 b 134 86 287 179 230 86 b 89 90 114 86 100 87 l 77 -8 b 145 -16 93 -13 114 -16 b 356 98 229 -16 297 22 b 531 452 423 184 481 327 l 729 936 l 601 936 l 454 538 b 397 370 431 472 413 418 l 393 370 b 326 534 372 425 350 479 l 140 936 l 3 936 "},"¾":{"x_min":41.234375,"x_max":1019.015625,"ha":1054,"o":"m 91 808 b 207 846 113 824 157 846 b 296 776 271 846 296 811 b 170 689 296 713 221 689 l 132 689 l 132 625 l 170 625 b 317 528 244 626 317 599 b 195 435 319 485 281 435 b 66 471 144 435 88 456 l 41 401 b 200 363 73 381 134 363 b 420 525 342 363 420 439 b 291 660 420 596 366 649 l 291 663 b 396 788 356 685 396 731 b 225 918 396 854 346 918 b 67 874 157 918 99 896 l 91 808 m 321 -14 l 848 918 l 770 918 l 242 -14 l 321 -14 m 935 0 l 935 143 l 1019 143 l 1019 211 l 935 211 l 935 549 l 834 549 l 566 197 l 566 143 l 844 143 l 844 0 l 935 0 m 844 211 l 666 211 l 664 213 l 799 386 b 845 463 814 408 827 432 l 848 463 b 844 375 846 438 844 408 l 844 211 "},"Ί":{"x_min":0,"x_max":323.609375,"ha":429,"o":"m 201 936 l 201 0 l 323 0 l 323 936 l 201 936 m 9 936 l 0 720 l 72 720 l 120 936 l 9 936 "},"ŉ":{"x_min":25,"x_max":673.609375,"ha":771,"o":"m 101 0 l 223 0 l 223 404 b 231 461 223 425 226 445 b 395 586 254 529 316 586 b 551 387 511 586 551 495 l 551 0 l 673 0 l 673 400 b 436 686 673 630 529 686 b 213 561 325 686 247 623 l 211 561 l 204 672 l 95 672 b 101 490 100 616 101 561 l 101 0 m 77 744 b 170 904 100 761 170 811 b 122 1004 170 952 144 990 l 33 980 b 76 898 56 961 76 930 b 25 784 76 845 48 811 l 77 744 "},"⁶":{"x_min":31.9375,"x_max":429.171875,"ha":461,"o":"m 370 1162 b 316 1159 356 1162 337 1161 b 125 1080 237 1151 173 1126 b 31 840 69 1027 31 943 b 237 606 31 704 108 606 b 429 800 350 606 429 693 b 259 975 429 905 359 975 b 129 918 201 975 155 947 l 126 918 b 315 1087 141 1001 204 1072 b 370 1088 336 1090 356 1090 l 370 1162 m 237 677 b 123 815 162 677 123 740 b 130 845 123 827 126 837 b 229 908 148 881 186 908 b 334 794 294 908 334 863 b 237 677 334 727 295 677 "},"":{"x_min":77.78125,"x_max":675,"ha":736,"o":"m 612 841 b 77 327 280 823 77 615 b 386 -15 77 122 201 -15 b 675 281 530 -15 675 94 b 416 547 675 447 556 547 b 213 445 319 547 248 495 l 209 447 b 620 751 240 604 370 736 l 612 841 m 387 77 b 201 286 273 77 201 173 b 245 401 201 331 212 366 b 386 461 272 429 322 461 b 554 275 486 461 554 388 b 387 77 554 143 469 77 "},"Ȝ":{"x_min":43.0625,"x_max":612.5,"ha":667,"o":"m 87 -160 b 612 259 406 -122 612 46 b 363 515 612 409 504 502 l 363 519 b 534 746 458 562 534 642 b 281 952 534 869 431 952 b 43 887 187 952 87 915 l 68 805 b 258 855 102 823 184 855 b 412 727 348 853 412 803 b 133 496 412 617 290 531 l 150 410 b 280 434 197 426 251 434 b 484 252 411 437 484 353 b 72 -64 484 88 294 -32 l 87 -160 "},"":{"x_min":66.671875,"x_max":683.328125,"ha":736,"o":"m 423 0 l 423 159 l 637 159 l 637 227 l 423 227 l 423 311 l 637 311 l 637 379 l 461 379 l 683 715 l 556 715 l 430 504 b 372 393 409 465 387 427 l 369 393 b 315 501 354 426 337 459 l 195 715 l 66 715 l 273 379 l 97 379 l 97 311 l 308 311 l 308 227 l 97 227 l 97 159 l 308 159 l 308 0 l 423 0 "},"Ģ":{"x_min":49.65625,"x_max":819.109375,"ha":897,"o":"m 819 491 l 510 491 l 510 394 l 699 394 l 699 115 b 538 90 671 101 617 90 b 177 468 319 90 177 230 b 553 844 177 702 326 844 b 760 804 648 844 710 827 l 791 902 b 556 945 751 922 664 945 b 49 462 242 945 49 741 b 180 113 49 316 99 191 b 530 -9 271 26 388 -9 b 819 41 656 -9 764 20 l 819 491 m 413 -308 b 592 -159 499 -302 592 -261 b 537 -56 592 -113 564 -75 l 446 -76 b 494 -161 471 -97 494 -127 b 389 -251 494 -215 444 -243 l 413 -308 "},"m":{"x_min":95.828125,"x_max":1062.5,"ha":1158,"o":"m 101 0 l 220 0 l 220 404 b 230 463 220 425 223 447 b 381 586 250 525 306 586 b 522 402 475 586 522 509 l 522 0 l 641 0 l 641 415 b 651 476 641 437 645 458 b 797 586 673 534 726 586 b 943 379 894 586 943 509 l 943 0 l 1062 0 l 1062 394 b 840 686 1062 627 930 686 b 693 638 776 686 733 669 b 616 551 665 618 637 590 l 613 551 b 425 686 584 630 515 686 b 212 562 312 686 250 626 l 208 562 l 202 672 l 95 672 b 101 490 98 616 101 561 l 101 0 "},"Ị":{"x_min":98.609375,"x_max":234.71875,"ha":332,"o":"m 104 936 l 104 0 l 226 0 l 226 936 l 104 936 m 166 -251 b 234 -180 205 -251 234 -218 b 168 -111 234 -144 205 -111 b 98 -180 129 -111 98 -144 b 166 -251 98 -218 127 -251 "},"Е":{"x_min":104.171875,"x_max":631.9375,"ha":683,"o":"m 588 538 l 226 538 l 226 834 l 611 834 l 611 936 l 104 936 l 104 0 l 631 0 l 631 101 l 226 101 l 226 438 l 588 438 l 588 538 "},"":{"x_min":140.28125,"x_max":276.390625,"ha":417,"o":"m 208 -251 b 276 -180 247 -251 276 -218 b 209 -111 276 -144 247 -111 b 140 -180 170 -111 140 -144 b 208 -251 140 -218 169 -251 "},"ž":{"x_min":24.90625,"x_max":569.0625,"ha":594,"o":"m 24 0 l 569 0 l 569 97 l 177 97 l 177 100 b 263 205 208 133 234 168 l 563 595 l 563 672 l 52 672 l 52 575 l 416 575 l 416 572 b 327 466 385 536 358 504 l 24 70 l 24 0 m 359 763 l 489 962 l 398 962 l 316 830 l 313 830 l 231 962 l 138 962 l 272 763 l 359 763 "},"⁵":{"x_min":26.390625,"x_max":387.5,"ha":428,"o":"m 372 1152 l 91 1152 l 55 888 b 134 894 76 890 104 894 b 291 784 247 894 291 848 b 169 679 291 717 231 679 b 45 708 116 679 69 695 l 26 638 b 172 606 54 623 111 606 b 387 791 300 606 387 684 b 311 931 387 861 352 908 b 181 961 273 954 227 961 b 138 959 163 961 150 961 l 156 1076 l 372 1076 l 372 1152 "},"ớ":{"x_min":52.84375,"x_max":769.546875,"ha":768,"o":"m 383 594 b 586 338 529 595 586 452 b 380 76 584 186 497 76 b 177 334 261 76 177 187 b 383 594 177 461 240 594 m 652 769 b 676 687 666 744 676 716 b 619 631 675 651 655 631 b 501 668 576 631 534 658 b 386 686 463 679 427 686 b 52 330 201 686 52 554 b 375 -15 52 118 194 -15 b 709 341 536 -15 709 93 b 640 563 709 430 684 506 b 769 683 725 559 769 609 b 745 784 769 722 759 756 l 652 769 m 443 962 l 320 763 l 407 763 l 576 962 l 443 962 "},"":{"x_min":28.875,"x_max":387.21875,"ha":417,"o":"m 266 1075 l 156 891 l 230 891 l 384 1075 l 266 1075 m 28 912 b 208 740 30 826 85 740 b 387 912 312 740 385 808 l 317 912 b 208 816 313 865 278 816 b 98 912 146 816 106 858 l 28 912 "},"á":{"x_min":48.921875,"x_max":583.640625,"ha":669,"o":"m 573 412 b 318 686 573 545 523 686 b 96 627 233 686 151 662 l 123 545 b 300 595 171 577 236 595 b 453 441 437 597 453 495 l 453 427 b 48 177 193 429 48 340 b 254 -15 48 80 118 -15 b 460 84 350 -15 422 31 l 464 84 l 473 0 l 583 0 b 573 161 576 45 573 102 l 573 412 m 455 226 b 450 187 455 215 454 201 b 285 75 430 130 373 75 b 171 191 223 75 171 111 b 455 343 171 322 322 345 l 455 226 m 382 962 l 261 763 l 347 763 l 516 962 l 382 962 "},"×":{"x_min":56,"x_max":773,"ha":828,"o":"m 56 669 l 353 365 l 56 61 l 117 0 l 414 304 l 711 0 l 773 61 l 474 365 l 773 669 l 711 730 l 414 426 l 117 730 l 56 669 "},"п":{"x_min":97.21875,"x_max":654.171875,"ha":751,"o":"m 97 672 l 97 0 l 219 0 l 219 576 l 531 576 l 531 0 l 654 0 l 654 672 l 97 672 "},"Ǻ":{"x_min":34.875,"x_max":819.59375,"ha":850,"o":"m 433 961 b 558 1068 509 961 558 1006 b 434 1177 558 1129 512 1177 b 307 1068 354 1177 307 1127 b 433 961 307 1008 354 961 m 432 1012 b 370 1068 395 1012 370 1037 b 430 1127 370 1100 391 1127 b 494 1069 469 1127 494 1101 b 432 1012 494 1034 469 1012 m 508 1322 l 359 1202 l 468 1202 l 666 1322 l 508 1322 m 590 294 l 690 0 l 819 0 l 500 936 l 352 936 l 34 0 l 159 0 l 257 294 l 590 294 m 282 388 l 373 659 b 420 829 393 716 407 775 l 423 829 b 472 658 437 775 451 719 l 565 388 l 282 388 "},"K":{"x_min":105.5625,"x_max":766.671875,"ha":753,"o":"m 105 0 l 226 0 l 226 356 l 316 459 l 623 0 l 766 0 l 401 538 l 740 936 l 590 936 l 304 584 b 230 484 280 554 255 520 l 226 484 l 226 936 l 105 936 l 105 0 "},"7":{"x_min":78.96875,"x_max":648.40625,"ha":713,"o":"m 78 902 l 78 801 l 520 801 l 520 798 l 128 0 l 255 0 l 648 822 l 648 902 l 78 902 "},"¨":{"x_min":9.71875,"x_max":405.5625,"ha":417,"o":"m 77 793 b 147 863 119 793 147 826 b 80 934 147 904 118 934 b 9 863 40 934 9 902 b 77 793 9 826 38 793 m 336 793 b 405 863 377 793 405 826 b 337 934 405 904 376 934 b 268 863 298 934 268 902 b 336 793 268 826 295 793 "},"Y":{"x_min":16.671875,"x_max":748.609375,"ha":751,"o":"m 436 0 l 436 398 l 748 936 l 612 936 l 477 677 b 383 484 441 606 408 545 l 380 484 b 287 677 351 550 322 606 l 155 936 l 16 936 l 313 397 l 313 0 l 436 0 "},"E":{"x_min":104.171875,"x_max":631.9375,"ha":683,"o":"m 588 538 l 226 538 l 226 834 l 611 834 l 611 936 l 104 936 l 104 0 l 631 0 l 631 101 l 226 101 l 226 438 l 588 438 l 588 538 "},"Ô":{"x_min":50,"x_max":905.5625,"ha":957,"o":"m 483 952 b 50 461 233 952 50 758 b 470 -15 50 177 222 -15 b 905 477 709 -15 905 156 b 483 952 905 756 740 952 m 479 854 b 777 472 680 854 777 659 b 477 83 777 259 669 83 b 177 463 286 83 177 262 b 479 854 177 668 277 854 m 429 1148 l 287 990 l 386 990 l 475 1086 l 477 1086 l 565 990 l 668 990 l 522 1148 l 429 1148 "},"":{"x_min":0.0625,"x_max":157,"ha":182,"o":"m 66 -295 b 157 -79 97 -245 133 -156 l 54 -87 b 0 -302 44 -155 22 -241 l 66 -295 "},"ổ":{"x_min":52.78125,"x_max":709.71875,"ha":763,"o":"m 386 686 b 52 330 201 686 52 554 b 375 -14 52 118 194 -14 b 709 342 536 -14 709 93 b 386 686 709 546 579 686 m 383 594 b 584 337 527 594 584 451 b 380 76 584 186 497 76 b 177 335 261 76 177 187 b 383 594 177 461 240 594 m 334 962 l 218 764 l 306 764 l 377 894 l 380 894 l 451 764 l 543 764 l 425 962 l 334 962 m 584 880 b 679 1023 620 943 679 955 b 569 1122 679 1078 631 1122 b 437 1033 501 1122 461 1080 l 481 1005 b 547 1055 497 1029 519 1055 b 594 1011 573 1055 594 1036 b 523 897 594 967 545 954 l 584 880 "},"Є":{"x_min":51.4375,"x_max":755.609375,"ha":800,"o":"m 755 906 b 537 951 722 925 655 951 b 51 466 233 951 51 730 b 515 -15 51 163 250 -15 b 754 30 626 -15 708 6 l 733 123 b 537 86 677 100 609 86 b 182 430 323 86 187 240 l 661 430 l 661 526 l 180 526 b 541 851 200 708 329 851 b 726 812 615 851 682 834 l 755 906 "},"Ï":{"x_min":-29.171875,"x_max":363.890625,"ha":332,"o":"m 104 936 l 104 0 l 226 0 l 226 936 l 104 936 m 37 1001 b 105 1072 79 1001 105 1033 b 38 1141 105 1111 77 1141 b -29 1072 0 1141 -29 1109 b 37 1001 -29 1033 -1 1001 m 294 1001 b 363 1072 337 1001 363 1033 b 297 1141 363 1111 336 1141 b 227 1072 256 1141 227 1109 b 294 1001 227 1033 255 1001 "},"ġ":{"x_min":53.1875,"x_max":682.34375,"ha":776,"o":"m 676 487 b 682 670 676 568 678 623 l 574 670 l 569 569 l 567 569 b 357 684 536 625 474 684 b 53 329 201 684 53 556 b 339 1 53 143 172 1 b 553 113 443 1 517 51 l 555 113 l 555 40 b 339 -195 555 -130 464 -195 b 142 -141 255 -195 186 -170 l 111 -236 b 335 -291 165 -272 254 -291 b 580 -211 419 -291 514 -270 b 676 97 644 -151 676 -58 l 676 487 m 554 284 b 544 219 554 263 551 240 b 375 94 519 141 451 94 b 176 336 244 94 176 204 b 376 590 176 491 260 590 b 547 459 467 590 525 531 b 554 405 553 444 554 426 l 554 284 m 386 794 b 455 866 428 794 455 827 b 387 937 455 905 426 937 b 317 866 349 937 317 905 b 386 794 317 827 346 794 "},"Ẳ":{"x_min":34.71875,"x_max":818.0625,"ha":850,"o":"m 588 294 l 688 0 l 818 0 l 498 936 l 354 936 l 34 0 l 159 0 l 256 294 l 588 294 m 281 388 l 373 659 b 420 829 393 716 406 775 l 423 829 b 472 658 437 775 451 719 l 563 388 l 281 388 m 450 1080 b 545 1225 487 1143 545 1155 b 436 1322 545 1277 498 1322 b 304 1233 368 1322 327 1281 l 348 1205 b 415 1255 363 1229 386 1255 b 461 1211 441 1255 461 1237 b 390 1097 461 1168 412 1154 l 450 1080 m 258 1113 b 430 970 268 1036 322 970 b 604 1113 538 970 595 1040 l 538 1113 b 431 1045 529 1076 502 1045 b 325 1113 362 1045 334 1080 l 258 1113 "},"ứ":{"x_min":97.21875,"x_max":797.21875,"ha":765,"o":"m 679 805 b 704 726 694 781 704 752 b 638 672 704 691 686 672 l 541 672 l 541 261 b 530 198 541 237 537 215 b 369 86 508 143 451 86 b 219 300 259 86 219 172 l 219 672 l 97 672 l 97 279 b 329 -15 97 44 223 -15 b 551 109 448 -15 520 55 l 554 109 l 561 0 l 669 0 b 663 183 665 52 663 113 l 663 605 l 679 605 b 797 722 747 608 797 654 b 772 822 797 759 787 793 l 679 805 m 459 962 l 337 763 l 423 763 l 593 962 l 459 962 "},"έ":{"x_min":54.171875,"x_max":583.328125,"ha":611,"o":"m 356 952 l 281 754 l 363 754 l 479 952 l 356 952 m 220 356 b 54 188 122 340 54 270 b 337 -15 54 37 202 -15 b 583 45 431 -15 531 11 l 561 127 b 363 77 520 104 437 77 b 181 198 265 77 181 119 b 393 313 181 280 272 313 l 479 313 l 479 400 l 397 400 b 209 497 291 400 209 429 b 365 597 209 556 270 597 b 533 554 431 597 504 573 l 559 634 b 355 686 509 668 441 686 b 87 505 176 686 87 594 b 220 362 88 437 131 381 l 220 356 "},"":{"x_min":25,"x_max":240.28125,"ha":265,"o":"m 25 902 l 25 836 l 240 836 l 240 902 l 25 902 "},"Ấ":{"x_min":35,"x_max":820,"ha":850,"o":"m 589 294 l 690 0 l 820 0 l 499 936 l 354 936 l 35 0 l 160 0 l 257 294 l 589 294 m 282 388 l 374 659 b 421 829 393 716 407 774 l 424 829 b 472 658 437 774 451 719 l 565 388 l 282 388 m 389 1143 l 261 984 l 354 984 l 432 1081 l 435 1081 l 511 984 l 608 984 l 476 1143 l 389 1143 m 658 1248 l 542 1102 l 614 1102 l 782 1248 l 658 1248 "},"":{"x_min":87.5,"x_max":329.171875,"ha":417,"o":"m 170 5 b 87 -165 137 -30 87 -95 b 218 -284 87 -243 140 -284 b 329 -252 251 -284 300 -273 l 309 -188 b 245 -202 293 -197 270 -202 b 176 -133 204 -202 176 -176 b 250 5 176 -80 229 -20 l 170 5 "},"ể":{"x_min":52.953125,"x_max":659.90625,"ha":696,"o":"m 640 314 b 646 371 644 328 646 346 b 368 686 646 494 589 686 b 52 325 172 686 52 528 b 383 -14 52 122 176 -14 b 608 28 490 -14 565 8 l 586 115 b 400 80 541 96 487 80 b 169 314 276 80 172 148 l 640 314 m 171 401 b 358 598 180 486 233 598 b 527 401 496 598 529 478 l 171 401 m 314 962 l 196 764 l 286 764 l 357 894 l 359 894 l 430 764 l 523 764 l 402 962 l 314 962 m 564 880 b 659 1023 600 943 659 955 b 548 1122 659 1078 611 1122 b 415 1033 480 1122 440 1080 l 461 1005 b 527 1055 476 1029 498 1055 b 573 1011 554 1055 573 1036 b 502 897 573 967 525 954 l 564 880 "},"":{"x_min":27.78125,"x_max":304.171875,"ha":394,"o":"m 122 -112 b 304 454 209 4 302 181 b 122 1019 304 726 209 905 l 27 1019 b 201 454 126 880 201 704 b 27 -112 201 204 125 25 l 122 -112 "},"ϋ":{"x_min":78.046875,"x_max":664.15625,"ha":728,"o":"m 229 773 b 297 844 271 773 297 806 b 230 913 297 883 268 913 b 161 844 191 913 161 881 b 229 773 161 806 189 773 m 483 773 b 553 844 526 773 553 806 b 486 913 553 883 523 913 b 416 844 446 913 416 881 b 483 773 416 806 444 773 m 500 672 b 544 398 515 637 544 523 b 366 86 544 205 483 86 b 214 273 293 86 214 137 l 214 547 b 194 672 214 619 207 658 l 78 672 b 93 445 90 634 93 563 l 93 256 b 357 -15 93 72 208 -15 b 664 409 600 -15 664 212 b 614 672 664 522 636 629 l 500 672 "},"й":{"x_min":97.21875,"x_max":672.21875,"ha":769,"o":"m 97 672 l 97 0 l 238 0 b 448 351 309 118 384 247 b 561 561 488 419 516 473 l 563 561 b 555 284 558 451 555 394 l 555 0 l 672 0 l 672 672 l 529 672 l 319 324 b 209 118 273 247 251 199 l 205 119 b 213 388 211 215 213 283 l 213 672 l 97 672 m 204 945 b 379 773 209 851 256 773 b 563 945 486 773 556 833 l 476 945 b 381 840 469 886 441 840 b 293 945 326 840 297 886 l 204 945 "},"b":{"x_min":95.828125,"x_max":738.890625,"ha":790,"o":"m 101 173 b 95 0 101 113 98 45 l 200 0 l 206 109 l 209 109 b 436 -15 261 22 338 -15 b 738 344 586 -15 738 104 b 454 686 738 547 622 686 b 225 563 345 686 268 638 l 222 563 l 222 986 l 101 986 l 101 173 m 222 388 b 229 440 222 408 225 425 b 413 590 254 531 331 590 b 615 340 545 590 615 475 b 411 81 615 186 540 81 b 227 225 322 81 250 140 b 222 269 223 238 222 254 l 222 388 "},"ύ":{"x_min":77.78125,"x_max":663.890625,"ha":728,"o":"m 377 952 l 302 754 l 386 754 l 501 952 l 377 952 m 498 672 b 544 398 515 637 544 523 b 366 86 544 205 483 86 b 213 273 293 86 213 137 l 213 547 b 194 672 213 619 206 658 l 77 672 b 93 445 90 634 93 563 l 93 256 b 356 -15 93 72 208 -15 b 663 409 600 -15 663 212 b 613 672 663 522 636 629 l 498 672 "},"ﬂ":{"x_min":20.828125,"x_max":626.390625,"ha":726,"o":"m 234 0 l 234 579 l 391 579 l 391 672 l 234 672 l 234 706 b 404 906 234 813 277 906 b 504 888 451 906 483 900 l 504 0 l 626 0 l 626 956 b 425 1001 575 984 502 1001 b 208 933 330 1001 261 977 b 113 701 145 879 113 795 l 113 672 l 20 672 l 20 579 l 113 579 l 113 0 l 234 0 "},"":{"x_min":15.28125,"x_max":676.390625,"ha":699,"o":"m 550 0 l 550 247 l 676 247 l 676 341 l 550 341 l 550 902 l 418 902 l 15 326 l 15 247 l 434 247 l 434 0 l 550 0 m 138 341 l 138 344 l 359 651 b 434 784 384 693 406 731 l 438 784 b 434 643 436 737 434 690 l 434 341 l 138 341 "},"":{"x_min":105.5625,"x_max":308.328125,"ha":417,"o":"m 129 -308 b 308 -159 215 -302 308 -261 b 252 -56 308 -113 280 -75 l 162 -76 b 209 -161 187 -97 209 -127 b 105 -251 209 -215 159 -243 l 129 -308 "},"ф":{"x_min":52.78125,"x_max":838.890625,"ha":890,"o":"m 388 984 l 390 684 b 52 331 201 669 52 552 b 390 -12 52 122 195 0 l 388 -273 l 502 -273 l 501 -11 b 838 338 690 1 838 118 b 501 686 838 547 697 670 l 502 984 l 388 984 m 390 72 b 173 334 256 88 173 197 b 390 601 173 473 255 584 l 390 72 m 501 601 b 718 338 636 583 718 477 b 501 70 718 201 636 90 l 501 601 "},"":{"x_min":20.375,"x_max":1030.09375,"ha":1124,"o":"m 978 959 b 810 1002 942 983 871 1002 b 517 711 621 1002 517 887 l 517 673 l 234 673 l 234 698 b 278 854 234 756 245 818 b 366 888 299 875 327 888 b 449 865 396 888 428 877 l 484 955 b 366 984 459 968 412 984 b 193 919 291 984 232 959 b 113 697 137 863 113 780 l 113 673 l 20 673 l 20 580 l 113 580 l 113 1 l 234 1 l 234 580 l 517 580 l 517 1 l 638 1 l 638 580 l 907 580 l 907 108 b 860 -144 907 -52 893 -105 b 727 -195 831 -176 784 -191 l 741 -291 b 949 -215 806 -291 895 -269 b 1030 61 1009 -154 1030 -69 l 1030 673 l 638 673 l 638 706 b 805 904 638 813 677 904 b 942 868 862 904 912 887 l 978 959 "},"Ŋ":{"x_min":105.125,"x_max":807.90625,"ha":914,"o":"m 219 0 l 219 400 b 210 786 219 556 217 668 l 214 788 b 388 475 260 686 323 579 l 691 -7 b 514 -181 681 -106 625 -159 l 539 -276 b 807 53 716 -249 807 -144 l 807 936 l 694 936 l 694 544 b 707 160 694 399 696 285 l 703 158 b 537 462 660 254 605 353 l 238 936 l 105 936 l 105 0 l 219 0 "},"Ũ":{"x_min":104.171875,"x_max":794.453125,"ha":899,"o":"m 104 936 l 104 384 b 440 -15 104 93 248 -15 b 794 388 643 -15 794 101 l 794 936 l 672 936 l 672 380 b 444 83 672 175 581 83 b 226 380 319 83 226 172 l 226 936 l 104 936 m 341 993 b 377 1054 345 1030 355 1054 b 443 1027 398 1054 416 1041 b 529 1001 475 1012 500 1001 b 622 1136 593 1001 623 1048 l 558 1136 b 520 1081 554 1091 541 1081 b 454 1106 498 1081 476 1094 b 370 1134 423 1122 401 1134 b 276 993 311 1134 275 1077 l 341 993 "},"Щ":{"x_min":105.5625,"x_max":1154.171875,"ha":1200,"o":"m 105 936 l 105 0 l 1043 0 l 1051 -226 l 1145 -226 l 1154 95 l 1072 98 l 1072 936 l 952 936 l 952 101 l 648 101 l 648 936 l 529 936 l 529 101 l 225 101 l 225 936 l 105 936 "},"L":{"x_min":104.171875,"x_max":626.390625,"ha":656,"o":"m 104 0 l 626 0 l 626 101 l 226 101 l 226 936 l 104 936 l 104 0 "},"":{"x_min":66.671875,"x_max":665.28125,"ha":736,"o":"m 487 444 b 633 633 586 491 633 552 b 373 843 633 750 530 843 b 100 618 219 843 100 751 b 240 438 100 530 162 472 l 240 434 b 66 215 137 388 66 315 b 362 -15 66 80 186 -15 b 665 230 529 -15 665 80 b 486 440 665 329 591 402 l 487 444 m 372 759 b 519 627 447 759 519 715 b 386 477 519 550 459 500 b 218 627 280 505 218 552 b 372 759 218 709 287 759 m 365 72 b 188 226 255 72 188 136 b 343 398 188 304 251 368 b 540 219 469 365 540 306 b 365 72 540 130 462 72 "},";":{"x_min":41.859375,"x_max":252.96875,"ha":301,"o":"m 127 -161 b 240 165 159 -95 216 56 l 105 158 b 41 -170 97 59 65 -87 l 127 -161 m 164 448 b 252 540 218 448 252 488 b 166 631 252 594 218 631 b 79 540 115 631 79 593 b 164 448 79 488 114 448 "},"ď":{"x_min":52.765625,"x_max":887.5,"ha":797,"o":"m 559 986 l 559 585 l 556 585 b 354 686 526 637 458 686 b 52 326 191 686 51 550 b 341 -14 52 122 179 -14 b 568 117 451 -14 531 42 l 572 117 l 577 0 l 686 0 b 680 174 683 46 680 114 l 680 986 l 559 986 m 559 282 b 554 229 559 262 558 246 b 375 83 531 139 456 83 b 176 332 244 83 176 196 b 377 590 176 479 251 590 b 554 450 469 590 536 526 b 559 399 558 435 559 414 l 559 282 m 794 724 b 887 897 815 740 887 793 b 837 999 887 943 862 983 l 750 979 b 793 889 773 958 793 924 b 743 765 793 832 765 790 l 794 724 "},"":{"x_min":-45.953125,"x_max":466.546875,"ha":418,"o":"m 17 1001 b 86 1069 58 1001 86 1030 b 20 1138 86 1108 58 1138 b -45 1069 -16 1138 -45 1108 b 17 1001 -45 1033 -19 1001 m 397 1001 b 466 1069 438 1001 466 1030 b 401 1138 466 1108 438 1138 b 334 1069 363 1138 334 1108 b 397 1001 334 1033 361 1001 m 197 1150 l 84 987 l 177 987 l 338 1150 l 197 1150 "},"Ο":{"x_min":50,"x_max":905.5625,"ha":957,"o":"m 470 -15 b 905 477 709 -15 905 156 b 483 952 905 756 740 952 b 50 461 233 952 50 758 b 470 -15 50 177 222 -15 m 477 83 b 177 463 286 83 177 265 b 479 854 177 665 277 854 b 777 472 680 854 777 659 b 477 83 777 259 669 83 "},"Ĭ":{"x_min":-5.5625,"x_max":337.5,"ha":332,"o":"m 104 936 l 104 0 l 226 0 l 226 936 l 104 936 m -5 1143 b 163 995 -2 1059 47 995 b 337 1143 283 995 334 1061 l 266 1143 b 166 1075 259 1106 233 1075 b 66 1143 98 1075 73 1111 l -5 1143 "},"":{"x_min":18,"x_max":399,"ha":417,"o":"m 159 1144 l 18 986 l 116 986 l 205 1081 l 208 1081 l 296 986 l 399 986 l 253 1144 l 159 1144 "},"ŧ":{"x_min":25,"x_max":423.609375,"ha":460,"o":"m 423 579 l 423 672 l 248 672 l 248 833 l 129 797 l 129 672 l 25 672 l 25 579 l 129 579 l 129 419 l 37 419 l 37 344 l 129 344 l 129 212 b 176 36 129 133 143 73 b 308 -15 205 4 251 -15 b 416 1 355 -15 393 -6 l 411 94 b 340 86 393 88 373 86 b 248 211 275 86 248 130 l 248 344 l 384 344 l 384 419 l 248 419 l 248 579 l 423 579 "},"À":{"x_min":35,"x_max":818,"ha":850,"o":"m 588 294 l 688 0 l 818 0 l 498 936 l 354 936 l 35 0 l 159 0 l 257 294 l 588 294 m 282 388 l 373 659 b 420 829 393 716 407 775 l 423 829 b 472 658 437 775 451 719 l 565 388 l 282 388 m 223 1148 l 401 987 l 500 987 l 370 1148 l 223 1148 "},"Ϊ":{"x_min":-30.5625,"x_max":361.109375,"ha":332,"o":"m 37 987 b 105 1056 79 987 105 1019 b 38 1126 105 1095 76 1126 b -30 1056 0 1126 -30 1094 b 37 987 -30 1019 -2 987 m 291 987 b 361 1056 334 987 361 1019 b 294 1126 361 1095 331 1126 b 225 1056 254 1126 225 1094 b 291 987 225 1019 252 987 m 104 936 l 104 0 l 226 0 l 226 936 l 104 936 "},"½":{"x_min":40.28125,"x_max":986.109375,"ha":1054,"o":"m 255 369 l 255 911 l 170 911 l 40 850 l 55 777 l 155 826 l 158 826 l 158 369 l 255 369 m 243 -15 l 769 918 l 691 918 l 165 -15 l 243 -15 m 611 0 l 986 0 l 986 76 l 750 76 l 750 79 l 791 118 b 976 393 897 212 976 287 b 793 548 976 466 923 548 b 622 491 722 548 659 522 l 651 427 b 768 470 677 447 719 470 b 873 373 840 470 873 427 b 698 131 873 302 813 238 l 611 51 l 611 0 "},"":{"x_min":41.671875,"x_max":1347.21875,"ha":1389,"o":"m 41 498 l 41 415 l 1347 415 l 1347 498 l 41 498 "},"'":{"x_min":70.828125,"x_max":191.671875,"ha":261,"o":"m 70 961 l 93 627 l 168 627 l 191 961 l 70 961 "},"ĳ":{"x_min":86.109375,"x_max":577.78125,"ha":663,"o":"m 223 0 l 223 672 l 101 672 l 101 0 l 223 0 m 162 937 b 86 861 116 937 86 902 b 159 786 86 819 115 786 b 237 861 208 786 237 819 b 162 937 237 904 206 937 m 273 -293 b 483 -216 340 -293 429 -270 b 563 59 543 -155 563 -70 l 563 672 l 441 672 l 441 106 b 394 -145 441 -54 427 -106 b 261 -197 365 -177 318 -193 l 273 -293 m 502 937 b 426 861 456 937 426 902 b 500 786 426 820 455 786 b 577 861 550 786 577 820 b 502 937 577 902 548 937 "},"Р":{"x_min":105.5625,"x_max":681.953125,"ha":739,"o":"m 105 0 l 226 0 l 226 375 b 323 366 254 368 287 366 b 609 469 441 366 544 401 b 681 669 656 518 681 585 b 600 865 681 753 650 821 b 337 943 544 915 456 943 b 105 925 240 943 163 935 l 105 0 m 226 837 b 340 847 247 843 287 847 b 561 662 472 847 561 787 b 326 464 561 536 472 464 b 226 473 286 464 252 466 l 226 837 "},"˛":{"x_min":87.5,"x_max":329.171875,"ha":417,"o":"m 170 5 b 87 -165 137 -30 87 -95 b 218 -284 87 -243 140 -284 b 329 -252 251 -284 300 -273 l 309 -188 b 245 -202 293 -197 270 -202 b 176 -133 204 -202 176 -176 b 250 5 176 -80 229 -20 l 170 5 "},"":{"x_min":26.390625,"x_max":387.5,"ha":428,"o":"m 372 909 l 91 909 l 55 643 b 134 649 76 646 104 649 b 291 539 247 649 291 604 b 169 434 291 472 231 434 b 45 464 116 434 69 450 l 26 395 b 172 361 54 379 111 361 b 387 547 300 361 387 441 b 311 686 387 616 352 663 b 181 716 273 709 227 716 b 138 714 163 716 150 716 l 156 832 l 372 832 l 372 909 "},"⁷":{"x_min":25.96875,"x_max":391.25,"ha":408,"o":"m 25 1154 l 25 1077 l 292 1077 l 292 1076 l 55 615 l 152 615 l 391 1094 l 391 1154 l 25 1154 "},"Ć":{"x_min":50,"x_max":761.109375,"ha":806,"o":"m 734 126 b 536 87 686 102 611 87 b 177 463 309 87 177 233 b 543 850 177 709 323 850 b 730 811 620 850 686 833 l 761 909 b 538 951 729 926 654 951 b 50 459 248 951 50 754 b 511 -15 50 151 247 -15 b 758 29 625 -15 715 6 l 734 126 m 555 1151 l 426 988 l 525 988 l 702 1151 l 555 1151 "},"Т":{"x_min":-1.390625,"x_max":691.671875,"ha":690,"o":"m 283 0 l 405 0 l 405 833 l 691 833 l 691 936 l -1 936 l -1 833 l 283 833 l 283 0 "},"£":{"x_min":77.734375,"x_max":654.125,"ha":713,"o":"m 654 0 l 654 101 l 240 101 l 240 104 b 336 254 287 144 320 194 b 341 409 348 304 345 356 l 530 409 l 530 497 l 330 497 b 315 645 322 541 315 586 b 466 819 315 744 358 819 b 591 791 524 819 566 805 l 618 883 b 466 918 588 901 538 918 b 199 647 312 918 199 811 b 215 497 199 593 208 538 l 86 497 l 86 409 l 229 409 b 236 312 234 373 236 345 b 77 69 236 208 170 116 l 77 0 l 654 0 "},"":{"x_min":48.65625,"x_max":388.921875,"ha":440,"o":"m 248 -70 l 248 15 b 388 159 340 29 388 91 b 252 313 388 234 345 279 b 147 398 173 343 147 361 b 231 462 147 429 168 462 b 345 433 288 462 327 443 l 368 501 b 252 530 343 515 304 529 l 252 608 l 190 608 l 190 526 b 55 387 105 512 55 458 b 201 240 55 311 109 273 b 297 151 268 215 297 193 b 201 80 297 109 259 80 b 70 118 150 80 104 97 l 48 48 b 186 11 80 27 133 12 l 186 -70 l 248 -70 "},"ẹ":{"x_min":52.953125,"x_max":646.015625,"ha":696,"o":"m 641 313 b 646 370 644 327 646 345 b 368 686 646 494 589 686 b 52 325 172 686 52 527 b 383 -15 52 122 176 -15 b 608 27 490 -15 565 8 l 586 115 b 400 80 541 95 487 80 b 169 313 276 80 172 148 l 641 313 m 171 401 b 358 598 180 486 233 598 b 527 401 496 598 529 477 l 171 401 m 347 -112 b 276 -183 308 -112 276 -144 b 346 -254 276 -222 305 -254 b 415 -183 387 -254 415 -222 b 347 -112 415 -143 386 -112 "},"ů":{"x_min":97.21875,"x_max":669.453125,"ha":765,"o":"m 663 672 l 541 672 l 541 261 b 530 198 541 237 537 215 b 369 86 508 143 451 86 b 219 301 259 86 219 173 l 219 672 l 97 672 l 97 279 b 329 -15 97 44 223 -15 b 551 109 448 -15 520 55 l 554 109 l 561 0 l 669 0 b 663 184 665 52 663 113 l 663 672 m 383 745 b 522 872 462 745 522 800 b 384 1002 522 947 468 1002 b 241 872 297 1002 241 945 b 383 745 241 801 300 745 m 381 797 b 312 872 340 797 312 834 b 380 951 312 915 338 951 b 454 873 426 951 454 916 b 381 797 454 831 426 797 "},"Ō":{"x_min":50,"x_max":905.5625,"ha":957,"o":"m 483 952 b 50 461 233 952 50 758 b 470 -15 50 177 222 -15 b 905 477 709 -15 905 156 b 483 952 905 756 740 952 m 479 854 b 777 472 680 854 777 659 b 477 83 777 259 669 83 b 177 463 286 83 177 262 b 479 854 177 668 277 854 m 312 1102 l 312 1026 l 645 1026 l 645 1102 l 312 1102 "},"":{"x_min":19.4375,"x_max":400,"ha":417,"o":"m 161 1144 l 19 986 l 118 986 l 206 1081 l 209 1081 l 297 986 l 400 986 l 254 1144 l 161 1144 m 109 1162 b 144 1218 111 1195 123 1218 b 205 1194 161 1218 177 1209 b 288 1165 233 1179 259 1165 b 383 1298 354 1165 386 1212 l 319 1298 b 280 1241 316 1254 302 1241 b 222 1263 263 1241 244 1252 b 136 1294 190 1280 166 1294 b 41 1162 77 1294 40 1241 l 109 1162 "},"а":{"x_min":48.921875,"x_max":583.640625,"ha":669,"o":"m 573 412 b 318 686 573 545 523 686 b 96 627 233 686 151 662 l 123 545 b 300 595 171 577 236 595 b 453 441 437 597 453 495 l 453 427 b 48 177 193 429 48 340 b 254 -15 48 80 118 -15 b 460 84 350 -15 422 31 l 464 84 l 473 0 l 583 0 b 573 161 576 45 573 102 l 573 412 m 455 226 b 450 187 455 215 454 201 b 285 75 430 130 373 75 b 171 191 223 75 171 111 b 455 343 171 322 322 345 l 455 226 "},"Ğ":{"x_min":49.65625,"x_max":819.109375,"ha":897,"o":"m 819 491 l 510 491 l 510 394 l 699 394 l 699 115 b 538 90 671 101 617 90 b 177 468 319 90 177 230 b 553 844 177 702 326 844 b 760 804 648 844 710 827 l 791 902 b 556 945 751 922 664 945 b 49 462 242 945 49 741 b 180 113 49 316 99 191 b 530 -9 271 26 388 -9 b 819 41 656 -9 764 20 l 819 491 m 320 1148 b 489 1001 323 1065 373 1001 b 663 1148 609 1001 660 1066 l 592 1148 b 492 1080 585 1112 559 1080 b 392 1148 424 1080 399 1116 l 320 1148 "},"ә":{"x_min":48.609375,"x_max":641.671875,"ha":456,"o":"m 108 555 b 295 590 156 575 209 590 b 525 356 422 590 522 522 l 52 356 b 48 300 50 344 48 325 b 326 -13 48 177 106 -13 b 641 345 522 -13 641 144 b 312 686 641 548 518 686 b 86 641 205 686 130 661 l 108 555 m 523 269 b 336 73 513 184 462 73 b 166 269 198 73 165 193 l 523 269 "},"v":{"x_min":18,"x_max":654,"ha":668,"o":"m 18 672 l 273 0 l 390 0 l 654 672 l 526 672 l 395 295 b 338 122 373 233 354 177 l 334 122 b 280 295 320 177 302 233 l 148 672 l 18 672 "},"Ї":{"x_min":-29.171875,"x_max":363.890625,"ha":332,"o":"m 104 936 l 104 0 l 226 0 l 226 936 l 104 936 m 37 1001 b 105 1072 79 1001 105 1033 b 38 1141 105 1111 77 1141 b -29 1072 0 1141 -29 1109 b 37 1001 -29 1033 -1 1001 m 294 1001 b 363 1072 337 1001 363 1033 b 297 1141 363 1111 336 1141 b 227 1072 256 1141 227 1109 b 294 1001 227 1033 255 1001 "},"û":{"x_min":96.796875,"x_max":669.75,"ha":765,"o":"m 664 672 l 541 672 l 541 261 b 530 198 541 237 537 215 b 369 86 508 143 451 86 b 219 301 259 86 219 173 l 219 672 l 96 672 l 96 279 b 329 -15 96 44 223 -15 b 551 109 448 -15 521 55 l 554 109 l 561 0 l 669 0 b 664 184 665 52 664 113 l 664 672 m 338 962 l 207 763 l 299 763 l 380 894 l 383 894 l 464 763 l 557 763 l 423 962 l 338 962 "},"":{"x_min":26.390625,"x_max":387.5,"ha":428,"o":"m 372 539 l 91 539 l 55 273 b 134 279 76 275 104 279 b 291 169 247 279 291 233 b 169 64 291 102 231 64 b 45 94 116 64 69 80 l 26 25 b 172 -8 54 9 111 -8 b 387 177 300 -8 387 71 b 311 316 387 246 352 293 b 181 346 273 339 227 346 b 138 344 163 346 150 346 l 156 462 l 372 462 l 372 539 "},"Ź":{"x_min":41.859375,"x_max":725.203125,"ha":768,"o":"m 41 0 l 725 0 l 725 101 l 201 101 l 201 105 l 718 862 l 718 936 l 86 936 l 86 834 l 559 834 l 559 830 l 41 70 l 41 0 m 451 1148 l 322 986 l 421 986 l 598 1148 l 451 1148 "},"ˉ":{"x_min":52.78125,"x_max":365.28125,"ha":417,"o":"m 52 893 l 52 813 l 365 813 l 365 893 l 52 893 "},"Ĺ":{"x_min":103.96875,"x_max":626.1875,"ha":656,"o":"m 103 0 l 626 0 l 626 101 l 226 101 l 226 936 l 103 936 l 103 0 m 248 1148 l 119 986 l 217 986 l 395 1148 l 248 1148 "},"ỵ":{"x_min":12.5,"x_max":644.4375,"ha":654,"o":"m 12 672 l 261 52 b 269 20 268 37 269 27 b 259 -8 269 13 266 4 b 158 -144 231 -70 190 -118 b 50 -204 120 -175 80 -194 l 80 -306 b 230 -227 111 -301 169 -280 b 461 193 313 -155 373 -37 l 644 672 l 515 672 l 381 277 b 338 137 365 229 351 177 l 336 137 b 291 275 325 177 308 230 l 145 672 l 12 672 m 452 -111 b 381 -183 413 -111 381 -143 b 451 -254 381 -220 411 -254 b 520 -183 493 -254 520 -220 b 452 -111 520 -143 491 -111 "},"Č":{"x_min":50,"x_max":761.109375,"ha":806,"o":"m 734 126 b 536 87 686 102 611 87 b 177 463 309 87 177 233 b 543 850 177 709 323 850 b 730 811 620 850 686 833 l 761 909 b 538 951 729 926 654 951 b 50 459 248 951 50 754 b 511 -15 50 151 247 -15 b 758 29 625 -15 715 6 l 734 126 m 537 990 l 679 1148 l 580 1148 l 493 1052 l 490 1052 l 401 1148 l 298 1148 l 444 990 l 537 990 "},"x":{"x_min":11,"x_max":626,"ha":643,"o":"m 22 672 l 249 343 l 11 0 l 145 0 l 242 151 b 313 268 269 191 291 227 l 316 268 b 388 151 340 227 362 190 l 488 0 l 626 0 l 391 347 l 620 672 l 487 672 l 394 529 b 326 419 370 493 348 458 l 323 419 b 253 527 301 456 280 490 l 158 672 l 22 672 "},"":{"x_min":87.296875,"x_max":664.671875,"ha":736,"o":"m 664 0 l 664 98 l 259 98 l 259 101 b 348 264 310 135 346 190 b 343 308 348 278 346 293 l 536 308 l 536 385 l 329 385 b 320 469 324 411 320 440 b 471 644 320 576 370 644 b 596 617 528 644 571 630 l 623 705 b 471 740 592 723 541 740 b 203 471 311 740 203 630 b 215 385 203 443 209 414 l 95 385 l 95 308 l 230 308 b 236 247 233 289 236 268 b 87 69 236 172 179 108 l 87 0 l 664 0 "},"è":{"x_min":52.953125,"x_max":646.015625,"ha":696,"o":"m 641 313 b 646 370 644 327 646 345 b 368 686 646 494 589 686 b 52 325 172 686 52 527 b 383 -15 52 122 176 -15 b 608 27 490 -15 565 8 l 586 115 b 400 80 541 95 487 80 b 169 313 276 80 172 148 l 641 313 m 171 401 b 358 598 180 486 233 598 b 527 401 496 598 529 477 l 171 401 m 187 962 l 357 763 l 443 763 l 321 962 l 187 962 "},"Ń":{"x_min":105.125,"x_max":807.90625,"ha":914,"o":"m 219 0 l 219 399 b 210 786 219 555 217 668 l 214 788 b 388 475 260 686 323 579 l 685 0 l 807 0 l 807 936 l 694 936 l 694 544 b 707 159 694 398 696 284 l 703 158 b 537 462 660 253 605 352 l 238 936 l 105 936 l 105 0 l 219 0 m 513 1149 l 385 986 l 484 986 l 662 1149 l 513 1149 "},"":{"x_min":55.5625,"x_max":233.328125,"ha":250,"o":"m 162 590 b 55 252 112 523 55 415 b 162 -81 55 93 112 -13 l 233 -81 b 133 252 179 0 133 105 b 233 590 133 401 177 511 l 162 590 "},"μ":{"x_min":101.390625,"x_max":731.953125,"ha":768,"o":"m 559 104 b 679 -14 570 18 619 -14 b 722 -9 700 -14 706 -13 l 731 79 b 668 185 681 82 668 111 l 668 672 l 545 672 l 545 261 b 534 197 545 237 541 215 b 375 85 512 141 455 85 b 223 275 266 85 223 171 l 223 672 l 101 672 l 101 -26 b 120 -274 101 -134 106 -233 l 230 -274 b 215 -20 218 -219 215 -95 l 215 61 b 362 -12 244 10 301 -12 b 555 104 462 -12 527 51 l 559 104 "},".":{"x_min":72.21875,"x_max":237.5,"ha":288,"o":"m 152 -15 b 237 72 204 -15 237 22 b 155 159 237 123 204 159 b 72 72 106 159 72 122 b 152 -15 72 22 105 -15 "},"‘":{"x_min":49.0625,"x_max":256,"ha":288,"o":"m 174 636 b 256 961 189 736 226 879 l 178 952 b 49 622 140 888 81 738 l 174 636 "},"π":{"x_min":19.4375,"x_max":734.71875,"ha":771,"o":"m 722 577 l 734 672 l 212 672 b 19 637 104 672 50 658 l 36 565 b 172 577 70 573 118 577 b 79 0 168 398 129 131 l 194 0 b 288 577 243 111 283 400 l 508 577 l 508 187 b 530 0 508 80 518 20 l 647 0 b 629 200 637 34 629 90 l 629 577 l 722 577 "},"Ỏ":{"x_min":50,"x_max":905.5625,"ha":957,"o":"m 483 952 b 50 461 233 952 50 758 b 470 -15 50 177 222 -15 b 905 477 709 -15 905 156 b 483 952 905 756 740 952 m 479 854 b 777 472 680 854 777 659 b 477 83 777 259 669 83 b 177 463 286 83 177 262 b 479 854 177 668 277 854 m 511 986 b 609 1136 548 1050 609 1065 b 494 1236 609 1193 558 1236 b 356 1143 423 1236 381 1193 l 404 1115 b 472 1163 419 1138 443 1163 b 518 1120 500 1163 518 1147 b 445 1004 518 1075 468 1063 l 511 986 "},"Ớ":{"x_min":50.265625,"x_max":943.34375,"ha":957,"o":"m 478 83 b 178 463 286 83 178 264 b 479 853 178 664 278 853 b 778 471 680 853 778 659 b 478 83 778 259 669 83 m 822 1028 b 846 939 836 1002 846 973 b 783 878 846 898 829 878 b 629 927 739 878 672 913 b 483 952 593 941 540 952 b 50 460 233 952 50 758 b 471 -15 50 177 222 -15 b 905 477 710 -15 905 156 b 797 808 905 624 860 737 b 943 933 897 799 943 856 b 916 1045 943 978 930 1016 l 822 1028 m 544 1148 l 416 985 l 515 985 l 693 1148 l 544 1148 "},"9":{"x_min":56.671875,"x_max":663.609375,"ha":713,"o":"m 133 -14 b 245 -7 162 -15 201 -14 b 508 113 342 3 438 45 b 663 535 596 199 663 338 b 365 917 663 769 549 917 b 56 596 180 917 56 767 b 321 320 56 442 160 320 b 535 416 413 320 485 355 l 540 416 b 420 177 523 310 480 231 b 231 90 369 127 302 99 b 133 85 190 85 159 83 l 133 -14 m 353 824 b 540 552 483 824 540 706 b 528 506 540 531 535 519 b 351 412 496 452 433 412 b 177 603 245 412 177 491 b 353 824 177 733 251 824 "},"":{"x_min":29.171875,"x_max":151.390625,"ha":182,"o":"m 88 361 b 151 423 126 361 151 388 b 90 486 151 461 126 486 b 29 423 55 486 29 461 b 88 361 29 388 54 361 "},"l":{"x_min":101.390625,"x_max":223.609375,"ha":328,"o":"m 101 0 l 223 0 l 223 986 l 101 986 l 101 0 "},"Ẫ":{"x_min":34.984375,"x_max":818.3125,"ha":850,"o":"m 589 294 l 689 0 l 818 0 l 498 936 l 354 936 l 34 0 l 159 0 l 257 294 l 589 294 m 282 388 l 373 659 b 421 829 393 716 407 775 l 423 829 b 472 658 437 775 451 719 l 565 388 l 282 388 m 379 1144 l 237 986 l 336 986 l 425 1081 l 428 1081 l 515 986 l 618 986 l 472 1144 l 379 1144 m 328 1162 b 362 1218 329 1195 341 1218 b 423 1194 379 1218 396 1209 b 507 1165 451 1179 478 1165 b 601 1298 572 1165 604 1212 l 537 1298 b 498 1241 534 1254 521 1241 b 440 1263 482 1241 462 1252 b 354 1294 408 1280 384 1294 b 259 1162 296 1294 258 1241 l 328 1162 "},"":{"x_min":40,"x_max":550,"ha":582,"o":"m 322 709 l 223 709 l 40 454 l 223 198 l 323 198 l 137 454 l 322 709 m 550 709 l 451 709 l 267 454 l 451 198 l 550 198 l 365 454 l 550 709 "},"Ъ":{"x_min":-2.78125,"x_max":822.21875,"ha":876,"o":"m -2 936 l -2 836 l 237 836 l 237 2 b 423 -8 277 -2 341 -8 b 750 101 550 -8 673 19 b 822 300 794 148 822 213 b 470 593 822 504 651 593 b 358 586 434 593 386 590 l 358 936 l -2 936 m 358 490 b 455 495 387 493 423 495 b 695 295 577 495 695 440 b 454 86 695 154 590 86 b 358 93 415 86 384 87 l 358 490 "},"Ś":{"x_min":57.78125,"x_max":623.0625,"ha":685,"o":"m 57 45 b 296 -15 107 12 206 -15 b 623 255 517 -15 623 111 b 385 530 623 393 543 469 b 199 711 256 580 199 623 b 375 851 199 775 248 851 b 552 806 460 851 523 825 l 585 905 b 380 951 545 929 474 951 b 77 697 198 951 77 843 b 324 430 77 566 171 486 b 500 245 450 383 500 331 b 305 86 500 151 428 86 b 89 147 221 86 143 112 l 57 45 m 413 1151 l 285 988 l 384 988 l 561 1151 l 413 1151 "},"Ü":{"x_min":104.171875,"x_max":794.453125,"ha":899,"o":"m 104 936 l 104 384 b 440 -15 104 93 248 -15 b 794 388 643 -15 794 101 l 794 936 l 672 936 l 672 380 b 444 83 672 175 581 83 b 226 380 319 83 226 172 l 226 936 l 104 936 m 322 1001 b 390 1072 363 1001 390 1033 b 323 1141 390 1111 362 1141 b 255 1072 284 1141 255 1109 b 322 1001 255 1033 283 1001 m 580 1001 b 650 1072 623 1001 650 1033 b 583 1141 650 1111 622 1141 b 513 1072 543 1141 513 1109 b 580 1001 513 1033 541 1001 "},"à":{"x_min":48.921875,"x_max":583.578125,"ha":669,"o":"m 573 412 b 318 686 573 545 523 686 b 96 627 233 686 151 662 l 123 545 b 300 595 171 577 236 595 b 453 441 437 597 453 495 l 453 427 b 48 177 193 429 48 340 b 254 -15 48 80 118 -15 b 459 84 350 -15 422 31 l 464 84 l 473 0 l 583 0 b 573 161 576 45 573 102 l 573 412 m 455 226 b 450 187 455 215 454 201 b 284 75 430 130 373 75 b 171 191 223 75 171 111 b 455 343 171 322 322 345 l 455 226 m 132 962 l 301 763 l 387 763 l 265 962 l 132 962 "},"η":{"x_min":81.9375,"x_max":688.890625,"ha":771,"o":"m 211 561 b 191 672 211 604 204 647 l 81 672 b 101 490 97 626 101 558 l 101 0 l 223 0 l 223 405 b 231 461 223 425 226 447 b 395 586 254 529 316 586 b 551 387 511 586 551 495 l 551 -29 b 572 -275 551 -118 555 -233 l 688 -275 b 673 -25 675 -219 673 -101 l 673 400 b 436 686 673 630 529 686 b 213 561 325 686 247 623 l 211 561 "},"ó":{"x_min":52.78125,"x_max":709.71875,"ha":763,"o":"m 386 686 b 52 330 201 686 52 554 b 375 -15 52 118 194 -15 b 709 341 536 -15 709 93 b 386 686 709 545 579 686 m 383 594 b 584 337 527 594 584 451 b 380 76 584 186 497 76 b 177 334 261 76 177 187 b 383 594 177 461 240 594 m 429 962 l 308 763 l 394 763 l 563 962 l 429 962 "},"":{"x_min":9.71875,"x_max":573.609375,"ha":625,"o":"m 9 45 b 244 -15 54 16 143 -15 b 573 255 459 -15 573 111 b 372 486 572 381 483 465 l 372 488 b 538 702 481 529 538 608 b 280 918 538 812 458 918 b 43 848 183 918 91 883 l 76 759 b 256 819 115 787 184 819 b 415 683 369 819 415 755 b 213 530 415 576 302 530 l 145 530 l 145 438 l 213 438 b 447 258 331 438 445 384 b 243 83 448 181 398 83 b 43 138 156 83 77 118 l 9 45 "},"₀":{"x_min":31.9375,"x_max":434.71875,"ha":467,"o":"m 229 -211 b 434 70 365 -211 434 -98 b 236 344 434 238 363 344 b 31 65 111 344 31 237 b 229 -211 31 -106 108 -211 m 233 -140 b 129 69 169 -140 129 -65 b 233 273 129 198 170 273 b 337 69 302 273 337 198 b 233 -140 337 -62 301 -140 "},"¦":{"x_min":119.4375,"x_max":212.5,"ha":332,"o":"m 119 241 l 119 -244 l 212 -244 l 212 241 l 119 241 m 119 936 l 119 450 l 212 450 l 212 936 l 119 936 "},"":{"x_min":75.015625,"x_max":663.984375,"ha":736,"o":"m 284 313 l 311 515 l 455 515 l 429 313 l 284 313 m 241 -4 l 272 231 l 416 231 l 384 -4 l 469 -4 l 500 231 l 632 231 l 632 313 l 512 313 l 537 515 l 663 515 l 663 597 l 550 597 l 580 826 l 498 826 l 468 597 l 322 597 l 352 826 l 270 826 l 240 597 l 108 597 l 108 515 l 229 515 l 202 313 l 75 313 l 75 231 l 190 231 l 158 -4 l 241 -4 "},"Ỷ":{"x_min":16.671875,"x_max":748.609375,"ha":751,"o":"m 436 0 l 436 398 l 748 936 l 612 936 l 477 677 b 383 484 441 606 408 545 l 380 484 b 287 677 351 550 322 606 l 155 936 l 16 936 l 313 397 l 313 0 l 436 0 m 408 984 b 508 1134 445 1048 508 1063 b 393 1234 508 1190 456 1234 b 254 1141 322 1234 280 1191 l 301 1113 b 369 1162 316 1137 341 1162 b 416 1118 397 1162 416 1145 b 343 1002 416 1073 366 1062 l 408 984 "},"Ő":{"x_min":50,"x_max":905.5625,"ha":957,"o":"m 483 952 b 50 461 233 952 50 758 b 470 -15 50 177 222 -15 b 905 477 709 -15 905 156 b 483 952 905 756 740 952 m 479 854 b 777 472 680 854 777 659 b 477 83 777 259 669 83 b 177 463 286 83 177 262 b 479 854 177 668 277 854 m 443 1152 l 331 997 l 420 997 l 575 1152 l 443 1152 m 647 1152 l 536 997 l 625 997 l 779 1152 l 647 1152 "},"":{"x_min":25,"x_max":240.28125,"ha":265,"o":"m 25 84 l 25 18 l 240 18 l 240 84 l 25 84 "},"Ž":{"x_min":41.921875,"x_max":725.0625,"ha":768,"o":"m 41 0 l 725 0 l 725 101 l 201 101 l 201 105 l 718 862 l 718 936 l 86 936 l 86 834 l 559 834 l 559 830 l 41 70 l 41 0 m 444 986 l 587 1144 l 489 1144 l 401 1048 l 398 1048 l 309 1144 l 207 1144 l 352 986 l 444 986 "},"е":{"x_min":52.953125,"x_max":646.015625,"ha":696,"o":"m 641 313 b 646 370 644 327 646 345 b 368 686 646 494 589 686 b 52 325 172 686 52 527 b 383 -15 52 122 176 -15 b 608 27 490 -15 565 8 l 586 115 b 400 80 541 95 487 80 b 169 313 276 80 172 148 l 641 313 m 171 401 b 358 598 180 486 233 598 b 527 401 496 598 529 477 l 171 401 "},"Î":{"x_min":-23.609375,"x_max":356.9375,"ha":332,"o":"m 104 936 l 104 0 l 226 0 l 226 936 l 104 936 m 118 1144 l -23 986 l 75 986 l 163 1081 l 166 1081 l 254 986 l 356 986 l 211 1144 l 118 1144 "},"e":{"x_min":52.953125,"x_max":646.015625,"ha":696,"o":"m 641 313 b 646 370 644 327 646 345 b 368 686 646 494 589 686 b 52 325 172 686 52 527 b 383 -15 52 122 176 -15 b 608 27 490 -15 565 8 l 586 115 b 400 80 541 95 487 80 b 169 313 276 80 172 148 l 641 313 m 171 401 b 358 598 180 486 233 598 b 527 401 496 598 529 477 l 171 401 "},"ό":{"x_min":52.78125,"x_max":709.71875,"ha":763,"o":"m 401 952 l 327 754 l 408 754 l 523 952 l 401 952 m 375 -15 b 709 341 536 -15 709 93 b 386 686 709 545 579 686 b 52 330 201 686 52 554 b 375 -15 52 118 194 -15 m 380 76 b 177 334 261 76 177 187 b 383 594 177 461 240 594 b 584 337 527 594 584 451 b 380 76 584 186 497 76 "},"":{"x_min":11.109375,"x_max":390.28125,"ha":424,"o":"m 62 438 b 180 476 84 454 130 476 b 268 406 243 476 268 441 b 141 319 268 343 193 319 l 102 319 l 102 255 l 140 255 b 287 158 213 256 287 229 b 165 65 288 115 251 65 b 36 101 113 65 58 86 l 11 31 b 170 -6 43 11 104 -6 b 390 155 312 -6 390 69 b 261 290 390 226 336 279 l 261 293 b 368 418 327 315 368 361 b 198 548 368 484 318 548 b 38 505 130 548 70 526 l 62 438 "},"":{"x_min":25.03125,"x_max":562.53125,"ha":594,"o":"m 562 673 l 25 673 l 25 572 l 437 572 l 437 569 b 56 -136 363 374 169 29 l 170 -157 b 562 595 311 59 476 369 l 562 673 "},"Ề":{"x_min":103.859375,"x_max":631.625,"ha":683,"o":"m 589 538 l 226 538 l 226 834 l 610 834 l 610 936 l 103 936 l 103 0 l 631 0 l 631 101 l 226 101 l 226 438 l 588 438 l 589 538 m 401 1223 l 552 1079 l 627 1079 l 526 1223 l 401 1223 m 313 1144 l 185 986 l 278 986 l 356 1083 l 359 1083 l 435 986 l 533 986 l 401 1144 l 313 1144 "},"Ĕ":{"x_min":104.171875,"x_max":631.9375,"ha":683,"o":"m 588 538 l 226 538 l 226 834 l 611 834 l 611 936 l 104 936 l 104 0 l 631 0 l 631 101 l 226 101 l 226 438 l 588 438 l 588 538 m 180 1145 b 351 998 183 1062 233 998 b 525 1145 470 998 522 1063 l 454 1145 b 352 1077 447 1109 420 1077 b 252 1145 284 1077 259 1113 l 180 1145 "},"ļ":{"x_min":48.21875,"x_max":250.984375,"ha":328,"o":"m 100 0 l 223 0 l 223 986 l 100 986 l 100 0 m 71 -308 b 250 -159 157 -302 250 -261 b 195 -56 250 -113 223 -75 l 105 -76 b 152 -161 130 -95 152 -127 b 48 -251 152 -215 102 -243 l 71 -308 "},"ị":{"x_min":86.109375,"x_max":237.5,"ha":325,"o":"m 223 0 l 223 672 l 101 672 l 101 0 l 223 0 m 162 937 b 86 861 116 937 86 902 b 159 786 86 819 115 786 b 237 861 208 786 237 819 b 162 937 237 904 206 937 m 162 -111 b 91 -183 123 -111 91 -143 b 161 -254 91 -220 120 -254 b 230 -183 202 -254 230 -220 b 162 -111 230 -143 201 -111 "},"":{"x_min":48.65625,"x_max":388.921875,"ha":440,"o":"m 248 300 l 248 386 b 388 530 340 400 388 462 b 252 684 388 605 345 650 b 147 769 173 713 147 731 b 231 833 147 800 168 833 b 345 804 288 833 327 813 l 368 872 b 252 901 343 886 304 900 l 252 979 l 190 979 l 190 897 b 55 758 105 883 55 829 b 201 611 55 681 109 644 b 297 522 268 586 297 563 b 201 451 297 480 259 451 b 70 488 150 451 104 468 l 48 419 b 186 381 80 398 133 383 l 186 300 l 248 300 "},"Ѓ":{"x_min":104.171875,"x_max":602.78125,"ha":601,"o":"m 104 936 l 104 0 l 226 0 l 226 834 l 602 834 l 602 936 l 104 936 m 393 1148 l 263 986 l 362 986 l 540 1148 l 393 1148 "},"ò":{"x_min":52.78125,"x_max":709.71875,"ha":763,"o":"m 386 686 b 52 330 201 686 52 554 b 375 -15 52 118 194 -15 b 709 341 536 -15 709 93 b 386 686 709 545 579 686 m 383 594 b 584 337 527 594 584 451 b 380 76 584 186 497 76 b 177 334 261 76 177 187 b 383 594 177 461 240 594 m 201 962 l 370 763 l 456 763 l 334 962 l 201 962 "},"ﬄ":{"x_min":20.828125,"x_max":1030.5625,"ha":1132,"o":"m 484 959 b 372 984 463 969 418 984 b 191 918 297 984 234 959 b 113 688 134 861 113 775 l 113 673 l 20 673 l 20 580 l 113 580 l 113 1 l 234 1 l 234 580 l 518 580 l 518 1 l 640 1 l 640 580 l 797 580 l 797 673 l 638 673 l 638 708 b 808 908 638 815 681 908 b 908 890 855 908 887 901 l 908 1 l 1030 1 l 1030 958 b 829 1002 979 986 906 1002 b 613 934 734 1002 665 979 b 518 702 550 880 518 797 l 518 673 l 234 673 l 234 700 b 280 854 234 761 245 818 b 369 888 301 876 329 888 b 452 868 398 888 427 881 l 484 959 "},"^":{"x_min":85,"x_max":745,"ha":828,"o":"m 745 262 l 458 902 l 371 902 l 85 262 l 180 262 l 412 801 l 415 801 l 647 262 l 745 262 "},"":{"x_min":86.109375,"x_max":611.109375,"ha":736,"o":"m 86 -131 b 262 -159 116 -145 190 -159 b 611 105 450 -159 611 -54 b 406 305 611 223 516 290 l 406 309 b 570 502 501 337 570 406 b 329 688 570 618 470 688 b 106 626 237 688 150 655 l 131 545 b 302 593 165 563 231 593 b 448 481 393 593 448 556 b 222 334 448 395 351 344 l 195 333 l 198 243 b 275 245 215 244 243 245 b 486 104 402 245 486 191 b 251 -63 486 2 388 -63 b 100 -41 193 -63 134 -52 l 86 -131 "},"∙":{"x_min":61.109375,"x_max":226.390625,"ha":288,"o":"m 141 277 b 226 363 193 277 226 315 b 144 451 226 415 193 451 b 61 363 95 451 61 415 b 141 277 61 315 94 277 "},"к":{"x_min":101.390625,"x_max":656.953125,"ha":665,"o":"m 101 672 l 101 0 l 222 0 l 222 295 l 245 295 b 466 137 358 295 420 245 b 529 0 488 81 511 29 l 656 0 b 586 163 626 54 604 119 b 359 369 533 284 468 356 l 651 672 l 502 672 l 251 380 l 222 380 l 222 672 l 101 672 "},"":{"x_min":88.890625,"x_max":365.28125,"ha":394,"o":"m 270 1019 b 88 451 183 902 90 723 b 270 -112 88 180 183 2 l 365 -112 b 191 450 268 26 191 202 b 365 1019 191 702 263 881 l 270 1019 "},"ū":{"x_min":97.21875,"x_max":669.453125,"ha":765,"o":"m 663 672 l 541 672 l 541 261 b 530 198 541 237 537 215 b 369 86 508 143 451 86 b 219 301 259 86 219 173 l 219 672 l 97 672 l 97 279 b 329 -15 97 44 223 -15 b 551 109 448 -15 520 55 l 554 109 l 561 0 l 669 0 b 663 184 665 52 663 113 l 663 672 m 226 893 l 226 813 l 538 813 l 538 893 l 226 893 "},"ˆ":{"x_min":35,"x_max":384,"ha":417,"o":"m 165 962 l 35 763 l 126 763 l 207 894 l 210 894 l 290 763 l 384 763 l 250 962 l 165 962 "},"Ẅ":{"x_min":20.828125,"x_max":1163.890625,"ha":1175,"o":"m 384 0 l 518 487 b 590 793 552 608 575 700 l 593 793 b 654 487 605 698 625 606 l 772 0 l 898 0 l 1163 936 l 1040 936 l 916 463 b 841 140 887 347 861 243 l 838 140 b 773 461 825 238 800 350 l 659 936 l 533 936 l 408 463 b 331 138 376 343 347 231 l 329 138 b 259 462 312 229 287 345 l 148 936 l 20 936 l 258 0 l 384 0 m 462 1001 b 530 1072 504 1001 530 1033 b 463 1141 530 1111 502 1141 b 395 1072 425 1141 395 1109 b 462 1001 395 1033 423 1001 m 719 1001 b 788 1072 762 1001 788 1033 b 722 1141 788 1111 761 1141 b 652 1072 681 1141 652 1109 b 719 1001 652 1033 680 1001 "},"":{"x_min":40,"x_max":387,"ha":417,"o":"m 40 1244 l 195 1100 l 270 1100 l 167 1244 l 40 1244 m 41 1113 b 212 970 51 1037 103 970 b 387 1113 321 970 378 1040 l 323 1113 b 213 1047 312 1076 285 1047 b 106 1113 145 1047 116 1080 l 41 1113 "},"č":{"x_min":52.78125,"x_max":583.328125,"ha":622,"o":"m 559 115 b 409 83 525 100 479 83 b 176 334 276 83 176 179 b 413 588 176 473 259 588 b 555 556 480 588 526 572 l 583 650 b 413 686 550 668 486 686 b 52 327 194 686 52 534 b 387 -15 52 122 184 -15 b 580 23 477 -15 548 8 l 559 115 m 408 763 l 538 962 l 447 962 l 365 830 l 362 830 l 280 962 l 187 962 l 320 763 l 408 763 "},"’":{"x_min":47,"x_max":253.9375,"ha":288,"o":"m 128 947 b 47 622 113 847 76 704 l 124 630 b 253 961 162 694 222 844 l 128 947 "},"Ν":{"x_min":105.125,"x_max":807.90625,"ha":914,"o":"m 219 0 l 219 399 b 210 786 219 555 217 668 l 214 788 b 388 475 260 686 323 579 l 685 0 l 807 0 l 807 936 l 694 936 l 694 544 b 707 159 694 398 696 284 l 703 158 b 537 462 660 253 605 352 l 238 936 l 105 936 l 105 0 l 219 0 "},"-":{"x_min":41.671875,"x_max":384.71875,"ha":426,"o":"m 41 419 l 41 330 l 384 330 l 384 419 l 41 419 "},"Q":{"x_min":50,"x_max":912.5,"ha":957,"o":"m 912 -36 b 638 23 833 -22 731 0 l 638 29 b 905 479 794 84 905 237 b 484 952 905 755 740 952 b 50 459 231 952 50 759 b 462 -15 50 156 238 -6 b 519 -29 480 -15 498 -22 b 877 -137 627 -66 751 -104 l 912 -36 m 477 83 b 177 462 286 83 177 262 b 481 854 177 665 277 854 b 777 472 680 854 777 661 b 477 83 777 259 669 83 "},"ȝ":{"x_min":26.390625,"x_max":555.5625,"ha":593,"o":"m 59 -290 b 555 79 383 -263 555 -101 b 340 297 555 201 468 281 l 340 300 b 487 495 427 336 487 404 b 252 686 487 611 393 686 b 26 618 162 686 77 651 l 52 537 b 223 590 86 555 152 590 b 368 473 312 590 368 547 b 112 281 368 372 261 316 l 129 195 b 251 216 168 206 213 216 b 430 65 375 216 430 147 b 48 -195 430 -150 101 -191 l 59 -290 "},"ј":{"x_min":-63.890625,"x_max":252.78125,"ha":338,"o":"m -50 -293 b 158 -216 15 -293 104 -270 b 238 59 218 -155 238 -70 l 238 672 l 116 672 l 116 106 b 69 -144 116 -54 102 -106 b -63 -197 40 -177 -6 -193 l -50 -293 m 177 937 b 101 861 131 937 101 902 b 175 786 101 820 130 786 b 252 861 225 786 252 820 b 177 937 252 902 223 937 "},"ě":{"x_min":52.953125,"x_max":646.015625,"ha":696,"o":"m 641 313 b 646 370 644 327 646 345 b 368 686 646 494 589 686 b 52 325 172 686 52 527 b 383 -15 52 122 176 -15 b 608 27 490 -15 565 8 l 586 115 b 400 80 541 95 487 80 b 169 313 276 80 172 148 l 641 313 m 171 401 b 358 598 180 486 233 598 b 527 401 496 598 529 477 l 171 401 m 396 763 l 526 962 l 434 962 l 352 830 l 350 830 l 268 962 l 175 962 l 308 763 l 396 763 "},"œ":{"x_min":53.28125,"x_max":1147.90625,"ha":1199,"o":"m 1145 315 b 1147 372 1146 327 1147 348 b 876 686 1147 490 1092 686 b 631 526 772 686 681 633 l 628 526 b 375 686 586 627 489 686 b 53 331 194 686 53 550 b 367 -15 53 119 189 -15 b 626 143 469 -15 576 34 l 629 143 b 896 -15 682 33 779 -15 b 1114 30 970 -15 1060 0 l 1090 118 b 911 80 1046 98 995 80 b 688 315 782 80 688 162 l 1145 315 m 375 594 b 574 336 515 594 574 463 b 376 76 574 181 494 76 b 178 334 261 76 178 188 b 375 594 178 450 229 594 m 686 402 b 867 598 694 486 746 598 b 1031 402 1000 598 1032 477 l 686 402 "},"":{"x_min":57.78125,"x_max":623.0625,"ha":472,"o":"m 57 45 b 292 -15 110 11 211 -15 b 302 -15 295 -15 299 -15 l 246 -112 b 353 -170 311 -119 353 -136 b 296 -213 353 -201 327 -213 b 220 -194 267 -213 242 -205 l 200 -254 b 296 -277 223 -268 259 -277 b 439 -166 370 -277 439 -245 b 342 -69 439 -115 395 -77 l 381 -8 b 623 255 545 20 623 131 b 385 530 623 393 543 469 b 199 711 256 580 199 623 b 375 851 199 775 248 851 b 552 806 460 851 523 825 l 585 905 b 380 951 545 929 474 951 b 77 697 198 951 77 843 b 324 430 77 566 171 486 b 500 245 450 383 500 331 b 305 86 500 151 428 86 b 89 147 221 86 143 112 l 57 45 "},"":{"x_min":33.328125,"x_max":422.21875,"ha":456,"o":"m 233 548 b 52 402 130 548 52 490 b 140 283 52 355 80 309 l 140 279 b 33 140 73 251 33 206 b 225 -6 33 63 100 -6 b 422 152 340 -6 422 56 b 313 288 422 219 376 265 l 313 291 b 401 413 376 319 401 368 b 233 548 401 483 345 548 m 227 58 b 126 151 163 58 126 102 b 218 251 126 197 158 234 b 327 144 283 233 327 205 b 227 58 327 95 288 58 m 227 484 b 313 404 288 484 313 443 b 237 316 313 359 280 330 b 140 406 177 331 140 359 b 227 484 140 448 170 484 "},"Ộ":{"x_min":50,"x_max":905.5625,"ha":957,"o":"m 483 952 b 50 461 233 952 50 758 b 470 -15 50 177 222 -15 b 905 477 709 -15 905 156 b 483 952 905 756 740 952 m 479 854 b 777 472 680 854 777 659 b 477 83 777 259 669 83 b 177 463 286 83 177 262 b 479 854 177 668 277 854 m 429 1144 l 287 986 l 386 986 l 475 1081 l 477 1081 l 565 986 l 668 986 l 522 1144 l 429 1144 m 477 -251 b 545 -180 516 -251 545 -218 b 479 -111 545 -144 516 -111 b 409 -180 440 -111 409 -144 b 477 -251 409 -218 438 -251 "},"Ậ":{"x_min":34.71875,"x_max":818.0625,"ha":850,"o":"m 588 294 l 688 0 l 818 0 l 498 936 l 354 936 l 34 0 l 159 0 l 256 294 l 588 294 m 281 388 l 373 659 b 420 829 393 716 406 775 l 423 829 b 472 658 437 775 451 719 l 565 388 l 281 388 m 380 1144 l 238 986 l 337 986 l 426 1081 l 429 1081 l 516 986 l 619 986 l 473 1144 l 380 1144 m 419 -251 b 487 -180 458 -251 487 -218 b 420 -111 487 -144 458 -111 b 351 -180 381 -111 351 -144 b 419 -251 351 -218 380 -251 "},"#":{"x_min":51.015625,"x_max":639.984375,"ha":690,"o":"m 260 354 l 287 555 l 431 555 l 405 354 l 260 354 m 213 0 l 248 272 l 392 272 l 356 0 l 439 0 l 476 272 l 608 272 l 608 354 l 488 354 l 513 555 l 639 555 l 639 637 l 526 637 l 560 902 l 478 902 l 444 637 l 298 637 l 334 902 l 252 902 l 216 637 l 84 637 l 84 555 l 205 555 l 178 354 l 51 354 l 51 272 l 166 272 l 130 0 l 213 0 "},"Џ":{"x_min":104.171875,"x_max":779.171875,"ha":882,"o":"m 104 936 l 104 0 l 381 0 l 391 -243 l 493 -243 l 502 0 l 779 0 l 779 936 l 656 936 l 656 101 l 226 101 l 226 936 l 104 936 "},"":{"x_min":-3,"x_max":273,"ha":417,"o":"m -3 1148 l 174 987 l 273 987 l 144 1148 l -3 1148 "},"Å":{"x_min":34.71875,"x_max":818.0625,"ha":850,"o":"m 588 294 l 688 0 l 818 0 l 498 936 l 354 936 l 34 0 l 159 0 l 256 294 l 588 294 m 281 388 l 373 659 b 420 829 393 716 406 775 l 423 829 b 472 658 437 775 451 719 l 565 388 l 281 388 m 429 1219 b 288 1093 341 1219 288 1162 b 427 970 288 1025 344 970 b 565 1093 508 970 565 1023 b 429 1219 565 1163 512 1219 m 425 1169 b 493 1095 466 1169 493 1136 b 426 1022 493 1054 466 1022 b 359 1093 386 1022 359 1056 b 425 1169 359 1133 383 1169 "},"ș":{"x_min":55.125,"x_max":494.015625,"ha":550,"o":"m 55 31 b 244 -15 102 4 170 -15 b 494 187 400 -15 494 68 b 317 388 494 287 432 345 b 191 504 230 423 191 448 b 302 595 191 554 230 595 b 439 555 364 595 413 572 l 469 644 b 305 686 432 668 373 686 b 73 488 162 686 73 597 b 252 298 73 408 130 343 b 375 176 341 265 375 234 b 246 76 375 119 334 76 b 84 123 185 76 121 101 l 55 31 m 188 -308 b 367 -159 274 -302 367 -261 b 312 -56 367 -113 339 -75 l 221 -76 b 269 -161 246 -95 269 -127 b 164 -251 269 -215 219 -243 l 188 -308 "},"₈":{"x_min":33.328125,"x_max":422.21875,"ha":456,"o":"m 233 344 b 52 198 130 344 52 286 b 140 79 52 151 80 105 l 140 75 b 33 -63 73 47 33 2 b 225 -211 33 -140 100 -211 b 422 -51 340 -211 422 -147 b 313 84 422 15 376 61 l 313 87 b 401 209 376 115 401 163 b 233 344 401 279 345 344 m 227 -145 b 126 -52 163 -145 126 -101 b 218 47 126 -6 158 30 b 327 -59 283 29 327 1 b 227 -145 327 -108 288 -145 m 227 280 b 313 200 288 280 313 238 b 237 112 313 155 280 126 b 140 202 177 127 140 155 b 227 280 140 244 170 280 "},"¸":{"x_min":75,"x_max":315.28125,"ha":417,"o":"m 187 4 l 122 -112 b 230 -170 187 -118 230 -134 b 170 -213 231 -202 201 -213 b 95 -194 147 -213 119 -206 l 75 -254 b 169 -277 98 -268 136 -277 b 315 -165 247 -277 315 -247 b 218 -69 315 -111 268 -75 l 263 4 l 187 4 "},"=":{"x_min":55.5625,"x_max":772.21875,"ha":828,"o":"m 772 468 l 772 551 l 55 551 l 55 468 l 772 468 m 772 195 l 772 279 l 55 279 l 55 195 l 772 195 "},"ạ":{"x_min":48.921875,"x_max":583.640625,"ha":669,"o":"m 573 412 b 318 686 573 545 523 686 b 96 627 233 686 151 662 l 123 545 b 300 595 171 577 236 595 b 453 441 437 597 453 495 l 453 427 b 48 177 193 429 48 340 b 254 -15 48 80 118 -15 b 460 84 350 -15 422 31 l 464 84 l 473 0 l 583 0 b 573 161 576 45 573 102 l 573 412 m 455 226 b 450 187 455 215 454 201 b 285 75 430 130 373 75 b 171 191 223 75 171 111 b 455 343 171 322 322 345 l 455 226 m 335 -111 b 264 -183 296 -111 264 -143 b 333 -254 264 -220 293 -254 b 403 -183 375 -254 403 -220 b 335 -111 403 -143 373 -111 "},"ρ":{"x_min":94.4375,"x_max":730.5625,"ha":782,"o":"m 218 83 b 422 -15 258 20 334 -15 b 730 345 581 -15 730 108 b 422 686 730 547 609 686 b 191 587 320 686 243 643 b 94 280 138 531 94 454 l 94 -30 b 109 -275 94 -134 98 -233 l 226 -275 b 215 -25 216 -219 215 -101 l 215 83 l 218 83 m 215 319 b 412 586 215 505 316 586 b 606 341 537 586 606 475 b 402 80 606 191 531 80 b 220 215 316 80 243 138 b 215 263 216 230 215 247 l 215 319 "},"Ћ":{"x_min":-1.390625,"x_max":837.5,"ha":938,"o":"m -1 936 l -1 834 l 254 834 l 254 0 l 376 0 l 376 470 b 552 530 420 504 493 530 b 672 484 605 530 643 513 b 716 331 704 448 716 401 l 716 0 l 837 0 l 837 347 b 763 565 837 440 813 513 b 591 630 725 605 669 630 b 379 566 512 630 431 598 l 376 566 l 376 834 l 702 834 l 702 936 l -1 936 "},"ú":{"x_min":97.21875,"x_max":669.453125,"ha":765,"o":"m 663 672 l 541 672 l 541 261 b 530 198 541 237 537 215 b 369 86 508 143 451 86 b 219 301 259 86 219 173 l 219 672 l 97 672 l 97 279 b 329 -15 97 44 223 -15 b 551 109 448 -15 520 55 l 554 109 l 561 0 l 669 0 b 663 184 665 52 663 113 l 663 672 m 445 962 l 323 763 l 409 763 l 579 962 l 445 962 "},"˚":{"x_min":56.9375,"x_max":336.109375,"ha":417,"o":"m 197 745 b 336 872 276 745 336 800 b 198 1002 336 947 281 1002 b 56 872 112 1002 56 945 b 197 745 56 801 115 745 m 197 797 b 127 872 155 797 127 834 b 195 951 127 915 152 951 b 268 873 240 951 268 916 b 197 797 268 831 240 797 "},"д":{"x_min":11.515625,"x_max":692.0625,"ha":736,"o":"m 174 672 l 174 497 b 135 229 174 402 161 312 b 68 91 119 180 97 134 l 11 88 l 17 -212 l 111 -212 l 118 0 l 583 0 l 589 -212 l 685 -212 l 692 90 l 622 91 l 622 672 l 174 672 m 280 579 l 503 579 l 503 93 l 193 93 b 246 218 214 130 232 172 b 280 469 269 293 280 379 l 280 579 "},"¯":{"x_min":52.78125,"x_max":365.28125,"ha":417,"o":"m 52 893 l 52 813 l 365 813 l 365 893 l 52 893 "},"":{"x_min":105.5625,"x_max":308.328125,"ha":417,"o":"m 129 -308 b 308 -159 215 -302 308 -261 b 252 -56 308 -113 280 -75 l 162 -76 b 209 -161 187 -95 209 -127 b 105 -251 209 -215 159 -243 l 129 -308 "},"u":{"x_min":97.21875,"x_max":669.453125,"ha":765,"o":"m 663 672 l 541 672 l 541 261 b 530 198 541 237 537 215 b 369 86 508 143 451 86 b 219 301 259 86 219 173 l 219 672 l 97 672 l 97 279 b 329 -15 97 44 223 -15 b 551 109 448 -15 520 55 l 554 109 l 561 0 l 669 0 b 663 184 665 52 663 113 l 663 672 "},"З":{"x_min":43.0625,"x_max":627.78125,"ha":683,"o":"m 101 793 b 297 854 152 825 225 854 b 465 705 397 854 465 801 b 244 533 465 609 368 533 l 190 533 l 190 441 l 245 441 b 500 261 365 441 500 401 b 286 83 500 158 423 83 b 75 140 208 83 126 111 l 43 45 b 287 -15 115 2 202 -15 b 627 256 458 -15 627 62 b 398 491 626 391 529 477 l 398 494 b 591 723 506 519 591 608 b 316 952 591 868 479 952 b 69 881 213 952 133 923 l 101 793 "},"Α":{"x_min":35,"x_max":818,"ha":850,"o":"m 588 294 l 688 0 l 818 0 l 498 936 l 354 936 l 35 0 l 159 0 l 257 294 l 588 294 m 282 388 l 373 659 b 420 829 393 716 407 775 l 423 829 b 472 658 437 775 451 719 l 565 388 l 282 388 "},"":{"x_min":33,"x_max":541,"ha":582,"o":"m 217 454 l 33 198 l 130 198 l 314 454 l 130 709 l 33 709 l 217 454 m 443 454 l 259 198 l 356 198 l 541 454 l 356 709 l 257 709 l 443 454 "},"ẻ":{"x_min":52.953125,"x_max":646.015625,"ha":696,"o":"m 641 313 b 646 370 644 327 646 345 b 368 686 646 494 589 686 b 52 325 172 686 52 527 b 383 -15 52 122 176 -15 b 608 27 490 -15 565 8 l 586 115 b 400 80 541 95 487 80 b 169 313 276 80 172 148 l 641 313 m 171 401 b 358 598 180 486 233 598 b 527 401 496 598 529 477 l 171 401 m 366 734 b 472 897 398 798 472 819 b 354 1001 472 959 421 1001 b 218 909 284 1001 243 959 l 266 880 b 333 929 282 905 302 929 b 380 883 359 929 380 911 b 301 751 380 831 318 812 l 366 734 "},"ẵ":{"x_min":48.921875,"x_max":583.640625,"ha":669,"o":"m 573 412 b 318 686 573 545 523 686 b 96 627 233 686 151 662 l 123 545 b 300 595 171 577 236 595 b 453 441 437 597 453 495 l 453 427 b 48 177 193 429 48 340 b 254 -15 48 80 118 -15 b 460 84 350 -15 422 31 l 464 84 l 473 0 l 583 0 b 573 161 576 45 573 102 l 573 412 m 455 226 b 450 187 455 215 454 201 b 285 75 430 130 373 75 b 171 191 223 75 171 111 b 455 343 171 322 322 345 l 455 226 m 233 968 b 268 1011 236 988 246 1011 b 328 987 285 1011 300 1002 b 412 958 357 972 382 958 b 507 1091 478 958 508 1005 l 441 1091 b 404 1036 439 1047 425 1036 b 344 1058 386 1036 366 1045 b 258 1087 312 1075 289 1087 b 165 968 200 1087 168 1036 l 233 968 m 158 912 b 333 740 160 825 211 740 b 511 912 439 740 508 808 l 441 912 b 333 813 437 865 403 813 b 226 912 273 813 235 858 l 158 912 "},"ữ":{"x_min":97.21875,"x_max":797.21875,"ha":765,"o":"m 679 805 b 704 726 694 781 704 752 b 638 672 704 691 686 672 l 541 672 l 541 261 b 530 198 541 237 537 215 b 369 86 508 143 451 86 b 219 300 259 86 219 172 l 219 672 l 97 672 l 97 279 b 329 -15 97 44 223 -15 b 551 109 448 -15 519 55 l 554 109 l 561 0 l 669 0 b 663 183 665 52 663 113 l 663 605 l 679 605 b 797 722 747 608 797 654 b 772 822 797 759 787 794 l 679 805 m 279 787 b 315 850 281 826 293 850 b 375 826 331 850 347 841 b 461 795 404 809 430 795 b 555 936 526 795 556 844 l 490 936 b 452 877 487 890 473 877 b 394 901 434 877 416 888 b 306 931 361 918 337 931 b 212 787 247 931 209 877 l 279 787 "},"":{"x_min":49.984375,"x_max":662.015625,"ha":713,"o":"m 201 233 b 167 455 179 293 166 368 b 356 823 169 677 241 823 b 481 753 412 823 453 797 l 201 233 m 514 669 b 544 455 534 608 544 536 b 353 79 544 225 481 79 b 234 147 303 79 265 102 l 514 669 m 656 901 l 595 942 l 541 850 b 363 918 494 896 434 918 b 49 448 180 918 48 754 b 127 112 51 304 79 188 l 63 9 l 124 -33 l 174 54 b 349 -15 223 6 283 -15 b 662 461 548 -15 662 154 b 588 791 662 600 637 712 l 656 901 "},"":{"x_min":36.1875,"x_max":665.34375,"ha":776,"o":"m 659 487 b 665 670 659 568 661 623 l 557 670 l 552 569 l 550 569 b 340 684 519 625 457 684 b 36 329 184 684 36 556 b 322 1 36 143 155 1 b 536 113 426 1 500 51 l 538 113 l 538 40 b 322 -195 538 -130 447 -195 b 125 -141 238 -195 169 -170 l 94 -236 b 318 -291 148 -272 237 -291 b 563 -211 402 -291 497 -270 b 659 97 627 -151 659 -58 l 659 487 m 537 284 b 527 219 537 263 534 240 b 358 94 502 141 434 94 b 159 336 227 94 159 204 b 359 590 159 491 243 590 b 530 459 450 590 508 531 b 537 405 536 444 537 426 l 537 284 m 284 786 b 320 848 287 825 298 848 b 380 823 337 848 352 838 b 465 794 408 808 434 794 b 559 934 530 794 561 843 l 494 934 b 457 876 491 888 477 876 b 398 900 438 876 420 887 b 312 930 366 916 343 930 b 218 786 252 930 215 876 l 284 786 "},"é":{"x_min":52.953125,"x_max":646.015625,"ha":696,"o":"m 641 313 b 646 370 644 327 646 345 b 368 686 646 494 589 686 b 52 325 172 686 52 527 b 383 -15 52 122 176 -15 b 608 27 490 -15 565 8 l 586 115 b 400 80 541 95 487 80 b 169 313 276 80 172 148 l 641 313 m 171 401 b 358 598 180 486 233 598 b 527 401 496 598 529 477 l 171 401 m 422 962 l 300 763 l 386 763 l 555 962 l 422 962 "},"Ş":{"x_min":57.78125,"x_max":623.0625,"ha":685,"o":"m 57 45 b 292 -15 110 11 211 -15 b 302 -15 295 -15 299 -15 l 246 -112 b 353 -170 311 -119 353 -136 b 296 -213 353 -201 327 -213 b 220 -194 267 -213 242 -205 l 200 -254 b 296 -277 223 -268 259 -277 b 439 -166 370 -277 439 -245 b 342 -69 439 -115 395 -77 l 381 -8 b 623 255 545 20 623 131 b 385 530 623 393 543 469 b 199 711 256 580 199 623 b 375 851 199 775 248 851 b 552 806 460 851 523 825 l 585 905 b 380 951 545 929 474 951 b 77 697 198 951 77 843 b 324 430 77 566 171 486 b 500 245 450 383 500 331 b 305 86 500 151 428 86 b 89 147 221 86 143 112 l 57 45 "},"B":{"x_min":105.5625,"x_max":695.828125,"ha":753,"o":"m 105 2 b 293 -8 145 -2 209 -8 b 615 79 445 -8 551 19 b 695 266 663 123 695 186 b 502 500 695 405 591 479 l 502 504 b 661 709 600 538 661 618 b 581 875 661 783 630 838 b 326 943 525 922 447 943 b 105 922 243 943 158 934 l 105 2 m 226 841 b 333 850 245 845 277 850 b 537 697 455 850 537 805 b 336 538 537 606 462 538 l 226 538 l 226 841 m 226 448 l 326 448 b 568 268 458 448 568 394 b 327 86 568 131 452 86 b 226 91 284 86 251 87 l 226 448 "},"…":{"x_min":148.609375,"x_max":1238.890625,"ha":1389,"o":"m 229 -15 b 313 72 280 -15 313 22 b 231 159 313 123 280 159 b 148 72 183 159 148 122 b 229 -15 148 22 181 -15 m 691 -15 b 776 72 743 -15 776 22 b 694 159 776 123 743 159 b 611 72 645 159 611 122 b 691 -15 611 22 644 -15 m 1154 -15 b 1238 72 1205 -15 1238 22 b 1156 159 1238 123 1205 159 b 1073 72 1108 159 1073 122 b 1154 -15 1073 22 1106 -15 "},"Ủ":{"x_min":104.171875,"x_max":794.453125,"ha":899,"o":"m 104 936 l 104 384 b 440 -15 104 93 248 -15 b 794 388 643 -15 794 101 l 794 936 l 672 936 l 672 380 b 444 83 672 175 581 83 b 226 380 319 83 226 172 l 226 936 l 104 936 m 481 984 b 581 1134 519 1048 581 1063 b 466 1234 581 1190 530 1234 b 329 1141 395 1234 354 1191 l 375 1113 b 444 1162 391 1137 415 1162 b 490 1118 470 1162 490 1145 b 418 1002 490 1073 440 1062 l 481 984 "},"H":{"x_min":104.171875,"x_max":801.390625,"ha":906,"o":"m 104 936 l 104 0 l 226 0 l 226 438 l 679 438 l 679 0 l 801 0 l 801 936 l 679 936 l 679 544 l 226 544 l 226 936 l 104 936 "},"î":{"x_min":-11.109375,"x_max":337.5,"ha":325,"o":"m 223 0 l 223 672 l 101 672 l 101 0 l 223 0 m 119 962 l -11 763 l 80 763 l 161 894 l 163 894 l 244 763 l 337 763 l 204 962 l 119 962 "},"ν":{"x_min":5.5625,"x_max":616.671875,"ha":651,"o":"m 5 672 l 251 0 l 366 0 b 616 623 488 204 616 431 b 612 672 616 640 615 658 l 498 672 b 500 609 500 652 500 633 b 326 119 500 454 381 227 l 320 119 b 263 295 302 177 286 234 l 134 672 l 5 672 "},"ư":{"x_min":97.21875,"x_max":797.21875,"ha":765,"o":"m 679 806 b 704 727 694 781 704 754 b 638 672 704 691 686 672 l 541 672 l 541 261 b 530 198 541 237 537 215 b 369 86 508 143 451 86 b 219 300 259 86 219 172 l 219 672 l 97 672 l 97 279 b 329 -15 97 44 223 -15 b 551 109 448 -15 520 55 l 554 109 l 561 0 l 669 0 b 663 183 665 52 663 113 l 663 605 l 679 605 b 797 723 747 608 797 654 b 772 823 797 759 787 794 l 679 806 "},"Ό":{"x_min":0,"x_max":961.109375,"ha":1011,"o":"m 526 -15 b 961 477 765 -15 961 156 b 538 952 961 756 795 952 b 105 461 288 952 105 758 b 526 -15 105 177 277 -15 m 533 83 b 233 463 341 83 233 265 b 534 854 233 665 333 854 b 833 472 736 854 833 659 b 533 83 833 259 725 83 m 9 936 l 0 720 l 72 720 l 120 936 l 9 936 "},"":{"x_min":30.5625,"x_max":386.109375,"ha":417,"o":"m 30 1158 b 205 1008 37 1066 91 1008 b 386 1158 323 1008 379 1065 l 293 1158 b 208 1072 287 1112 272 1072 b 123 1158 143 1072 129 1115 l 30 1158 "},"−":{"x_min":55.5625,"x_max":772.21875,"ha":828,"o":"m 55 412 l 55 329 l 772 329 l 772 412 l 55 412 "},"ā":{"x_min":48.921875,"x_max":583.640625,"ha":669,"o":"m 573 412 b 318 686 573 545 523 686 b 96 627 233 686 151 662 l 123 545 b 300 595 171 577 236 595 b 453 441 437 597 453 495 l 453 427 b 48 177 193 429 48 340 b 254 -15 48 80 118 -15 b 460 84 350 -15 422 31 l 464 84 l 473 0 l 583 0 b 573 161 576 45 573 102 l 573 412 m 455 226 b 450 187 455 215 454 201 b 285 75 430 130 373 75 b 171 191 223 75 171 111 b 455 343 171 322 322 345 l 455 226 m 179 893 l 179 813 l 491 813 l 491 893 l 179 893 "},"ĵ":{"x_min":-63.890625,"x_max":343.0625,"ha":338,"o":"m -50 -293 b 158 -216 15 -293 104 -270 b 238 59 218 -155 238 -70 l 238 672 l 116 672 l 116 106 b 69 -144 116 -54 102 -106 b -63 -197 40 -177 -6 -193 l -50 -293 m 125 952 l -5 754 l 86 754 l 166 884 l 169 884 l 250 754 l 343 754 l 209 952 l 125 952 "},"Ĩ":{"x_min":-5.59375,"x_max":338.9375,"ha":332,"o":"m 104 936 l 104 0 l 226 0 l 226 936 l 104 936 m 59 993 b 95 1054 63 1030 73 1054 b 161 1027 116 1054 134 1041 b 245 1001 191 1012 216 1001 b 338 1136 309 1001 340 1048 l 275 1136 b 237 1081 270 1091 258 1081 b 170 1106 215 1081 193 1094 b 88 1134 141 1122 119 1134 b -5 993 29 1134 -6 1077 l 59 993 "},"*":{"x_min":42,"x_max":535.015625,"ha":576,"o":"m 373 953 l 289 756 l 286 756 l 200 951 l 115 902 l 246 731 l 246 728 l 42 755 l 42 660 l 247 688 l 247 684 l 115 514 l 194 464 l 283 660 l 286 660 l 371 466 l 458 516 l 325 682 l 325 687 l 535 660 l 535 755 l 325 727 l 325 730 l 457 903 l 373 953 "},"ă":{"x_min":48.921875,"x_max":583.640625,"ha":669,"o":"m 573 412 b 318 686 573 545 523 686 b 96 627 233 686 151 662 l 123 545 b 300 595 171 577 236 595 b 453 441 437 597 453 495 l 453 427 b 48 177 193 429 48 340 b 254 -15 48 80 118 -15 b 460 84 350 -15 422 31 l 464 84 l 473 0 l 583 0 b 573 161 576 45 573 102 l 573 412 m 455 226 b 450 187 455 215 454 201 b 285 75 430 130 373 75 b 171 191 223 75 171 111 b 455 343 171 322 322 345 l 455 226 m 162 947 b 335 773 162 859 212 773 b 507 947 439 773 507 843 l 435 947 b 333 851 430 900 400 851 b 235 947 278 851 243 893 l 162 947 "},"Χ":{"x_min":35,"x_max":759,"ha":793,"o":"m 759 0 l 467 480 l 752 936 l 611 936 l 485 716 b 400 558 450 656 426 613 l 396 558 b 310 716 371 608 344 655 l 186 936 l 46 936 l 321 473 l 35 0 l 173 0 l 286 205 b 387 391 335 287 361 337 l 390 391 b 497 206 419 337 449 286 l 618 0 l 759 0 "},"†":{"x_min":59.71875,"x_max":634.71875,"ha":694,"o":"m 290 936 l 301 643 l 59 652 l 59 552 l 301 563 l 290 -69 l 404 -69 l 393 563 l 634 552 l 634 652 l 393 643 l 404 936 l 290 936 "},"°":{"x_min":40.28125,"x_max":408.328125,"ha":442,"o":"m 226 952 b 40 765 122 952 40 872 b 222 586 40 668 113 586 b 408 772 318 586 408 659 b 226 952 408 866 340 952 m 222 887 b 333 770 302 887 333 822 b 223 651 333 702 287 651 b 115 765 161 651 115 701 b 222 887 115 825 151 887 "},"Ξ":{"x_min":59.71875,"x_max":701.390625,"ha":750,"o":"m 75 936 l 75 836 l 686 836 l 686 936 l 75 936 m 120 534 l 120 434 l 640 434 l 640 534 l 120 534 m 59 101 l 59 0 l 701 0 l 701 101 l 59 101 "},"ồ":{"x_min":53.046875,"x_max":710,"ha":763,"o":"m 386 686 b 53 330 201 686 53 554 b 375 -15 53 118 194 -15 b 710 341 536 -15 710 93 b 386 686 710 545 579 686 m 383 594 b 585 337 528 594 585 451 b 380 76 585 186 497 76 b 178 334 261 76 178 187 b 383 594 178 461 240 594 m 441 1075 l 571 893 l 641 893 l 553 1075 l 441 1075 m 343 962 l 226 763 l 315 763 l 385 894 l 389 894 l 458 763 l 551 763 l 432 962 l 343 962 "},"Ķ":{"x_min":105.484375,"x_max":766.59375,"ha":753,"o":"m 105 0 l 226 0 l 226 356 l 316 459 l 623 0 l 766 0 l 401 538 l 740 936 l 590 936 l 304 584 b 230 484 280 554 255 520 l 226 484 l 226 936 l 105 936 l 105 0 m 298 -305 b 477 -156 384 -300 477 -258 b 422 -54 477 -111 449 -72 l 331 -73 b 379 -158 356 -94 379 -125 b 274 -248 379 -212 329 -240 l 298 -305 "},"ŵ":{"x_min":25,"x_max":1001,"ha":1022,"o":"m 25 672 l 227 0 l 338 0 l 447 319 b 508 541 470 391 491 461 l 510 541 b 570 320 527 462 547 395 l 673 0 l 784 0 l 1001 672 l 880 672 l 784 334 b 733 116 762 255 744 184 l 728 116 b 669 336 713 184 694 255 l 565 672 l 462 672 l 352 329 b 292 116 330 256 308 184 l 288 116 b 240 330 276 186 258 255 l 149 672 l 25 672 m 467 962 l 335 763 l 427 763 l 508 894 l 510 894 l 591 763 l 684 763 l 551 962 l 467 962 "},"΄":{"x_min":117,"x_max":314.21875,"ha":418,"o":"m 190 963 l 117 765 l 198 765 l 314 963 l 190 963 "},"ǽ":{"x_min":50.0625,"x_max":1023.890625,"ha":1074,"o":"m 1019 323 b 1023 377 1022 336 1023 356 b 761 686 1023 488 966 686 b 526 544 654 686 570 631 l 523 544 b 307 686 495 630 427 686 b 97 625 240 686 157 663 l 126 545 b 298 595 166 573 234 595 b 454 447 434 595 454 480 l 454 419 b 50 176 194 423 50 331 b 259 -15 50 79 119 -15 b 508 133 375 -15 466 40 l 512 133 b 768 -15 551 37 652 -15 b 989 30 857 -15 936 2 l 966 116 b 783 79 930 100 876 79 b 568 323 657 79 563 163 l 1019 323 m 456 238 b 450 190 456 222 454 205 b 287 75 430 127 375 73 b 170 186 223 75 170 115 b 456 337 170 318 327 340 l 456 238 m 568 411 b 748 600 572 487 626 600 b 907 411 872 600 909 479 l 568 411 m 594 962 l 473 763 l 559 763 l 729 962 l 594 962 "},"Β":{"x_min":105.5625,"x_max":695.828125,"ha":753,"o":"m 105 2 b 293 -8 145 -2 209 -8 b 615 79 445 -8 551 19 b 695 266 663 123 695 186 b 502 500 695 405 591 479 l 502 504 b 661 709 600 538 661 618 b 581 875 661 783 630 838 b 326 943 525 922 447 943 b 105 922 243 943 158 934 l 105 2 m 226 841 b 333 850 245 845 277 850 b 537 697 455 850 537 805 b 336 538 537 606 462 538 l 226 538 l 226 841 m 226 448 l 326 448 b 568 268 458 448 568 394 b 327 86 568 131 452 86 b 226 91 284 86 251 87 l 226 448 "},"Ļ":{"x_min":104.171875,"x_max":626.390625,"ha":656,"o":"m 104 0 l 626 0 l 626 101 l 226 101 l 226 936 l 104 936 l 104 0 m 259 -308 b 438 -159 345 -302 438 -261 b 383 -56 438 -113 411 -75 l 293 -76 b 340 -161 318 -97 340 -127 b 236 -251 340 -215 290 -243 l 259 -308 "},"Õ":{"x_min":50,"x_max":905.5625,"ha":957,"o":"m 483 952 b 50 461 233 952 50 758 b 470 -15 50 177 222 -15 b 905 477 709 -15 905 156 b 483 952 905 756 740 952 m 479 854 b 777 472 680 854 777 659 b 477 83 777 259 669 83 b 177 463 286 83 177 262 b 479 854 177 668 277 854 m 370 997 b 406 1056 375 1033 384 1056 b 472 1030 427 1056 445 1044 b 556 1004 502 1015 527 1004 b 650 1138 620 1004 651 1051 l 586 1138 b 548 1084 581 1094 569 1084 b 481 1109 526 1084 504 1097 b 400 1137 452 1125 430 1137 b 305 997 340 1137 304 1080 l 370 997 "},"№":{"x_min":102.78125,"x_max":1229.171875,"ha":1272,"o":"m 1012 888 b 790 643 890 888 790 799 b 1009 404 790 490 884 404 b 1229 649 1120 404 1229 476 b 1012 888 1229 794 1145 888 m 1008 819 b 1129 647 1095 819 1129 727 b 1009 473 1129 545 1083 473 b 890 644 944 473 890 545 b 1008 819 890 727 927 819 m 1193 273 l 1193 346 l 827 346 l 827 273 l 1193 273 m 211 0 l 211 373 b 204 759 211 533 208 643 l 206 761 b 348 454 248 658 297 555 l 587 0 l 711 0 l 711 908 l 602 908 l 602 537 b 615 157 602 393 605 283 l 613 156 b 472 457 575 250 527 350 l 236 908 l 102 908 l 102 0 l 211 0 "},"χ":{"x_min":15,"x_max":629,"ha":635,"o":"m 24 672 l 255 216 l 15 -263 l 119 -295 l 245 -27 b 309 115 270 26 291 75 l 315 116 l 515 -295 l 629 -265 l 384 218 l 620 672 l 502 672 l 401 458 b 331 309 373 400 351 354 l 326 309 l 155 672 l 24 672 "},"":{"x_min":0.0625,"x_max":157,"ha":182,"o":"m 66 -91 b 157 125 97 -41 133 47 l 54 116 b 0 -98 44 48 22 -37 l 66 -91 "},"ί":{"x_min":100.984375,"x_max":309.3125,"ha":328,"o":"m 184 952 l 110 754 l 192 754 l 309 952 l 184 952 m 223 672 l 100 672 l 100 150 b 227 -15 100 16 155 -15 b 281 -8 246 -15 269 -12 l 288 80 b 223 162 235 77 223 102 l 223 672 "},"Ζ":{"x_min":41.671875,"x_max":725,"ha":768,"o":"m 41 0 l 725 0 l 725 101 l 201 101 l 201 105 l 718 862 l 718 936 l 86 936 l 86 834 l 559 834 l 559 830 l 41 70 l 41 0 "},"Ľ":{"x_min":104.171875,"x_max":626.390625,"ha":656,"o":"m 104 0 l 626 0 l 626 101 l 226 101 l 226 935 l 104 935 l 104 0 m 361 699 b 540 848 447 705 540 746 b 484 951 540 894 512 932 l 394 931 b 441 846 419 910 441 880 b 337 756 441 792 391 764 l 361 699 "},"ť":{"x_min":25,"x_max":497.21875,"ha":471,"o":"m 129 796 l 129 672 l 25 672 l 25 579 l 129 579 l 129 212 b 176 36 129 133 143 73 b 308 -15 205 4 251 -15 b 418 1 355 -15 394 -6 l 412 94 b 341 86 393 89 373 86 b 248 216 272 86 248 133 l 248 579 l 425 579 l 425 672 l 248 672 l 248 833 l 129 796 m 384 751 b 497 907 419 765 497 812 b 448 1003 497 951 472 987 l 359 984 b 401 904 383 965 401 934 b 348 800 401 853 373 818 l 384 751 "},"5":{"x_min":58.328125,"x_max":619.4375,"ha":713,"o":"m 601 902 l 169 902 l 111 469 b 237 477 144 473 184 477 b 495 278 416 477 495 395 b 283 83 497 158 397 83 b 88 133 200 83 126 110 l 58 40 b 283 -15 102 12 184 -15 b 619 292 479 -15 619 116 b 490 523 619 405 561 484 b 295 572 434 558 366 572 b 222 567 262 572 243 570 l 256 799 l 601 799 l 601 902 "},"o":{"x_min":52.78125,"x_max":709.71875,"ha":763,"o":"m 386 686 b 52 330 201 686 52 554 b 375 -15 52 118 194 -15 b 709 341 536 -15 709 93 b 386 686 709 545 579 686 m 383 594 b 584 337 527 594 584 451 b 380 76 584 186 497 76 b 177 334 261 76 177 187 b 383 594 177 461 240 594 "},"Ѕ":{"x_min":57.78125,"x_max":623.0625,"ha":685,"o":"m 57 45 b 296 -15 107 12 206 -15 b 623 255 517 -15 623 111 b 385 530 623 393 543 469 b 199 711 256 580 199 623 b 375 851 199 775 248 851 b 552 806 460 851 523 825 l 585 905 b 380 951 545 929 474 951 b 77 697 198 951 77 843 b 324 430 77 566 171 486 b 500 245 450 383 500 331 b 305 86 500 151 428 86 b 89 147 221 86 143 112 l 57 45 "},"d":{"x_min":52.765625,"x_max":686.109375,"ha":783,"o":"m 559 986 l 559 584 l 556 584 b 354 686 526 637 458 686 b 52 326 191 686 51 550 b 341 -15 52 122 179 -15 b 568 116 451 -15 531 41 l 572 116 l 577 0 l 686 0 b 680 173 683 45 680 113 l 680 986 l 559 986 m 559 281 b 554 229 559 262 558 245 b 375 83 531 138 456 83 b 176 331 244 83 176 195 b 377 590 176 479 251 590 b 554 450 469 590 536 526 b 559 398 558 434 559 413 l 559 281 "},",":{"x_min":21.5625,"x_max":241,"ha":288,"o":"m 107 -162 b 241 175 146 -97 207 56 l 104 161 b 21 -172 89 59 52 -88 l 107 -162 "},"":{"x_min":25.96875,"x_max":391.25,"ha":408,"o":"m 25 908 l 25 831 l 292 831 l 292 830 l 55 369 l 152 369 l 391 848 l 391 908 l 25 908 "},"\"":{"x_min":70.828125,"x_max":398.609375,"ha":468,"o":"m 70 961 l 93 627 l 168 627 l 191 961 l 70 961 m 277 961 l 301 627 l 375 627 l 398 961 l 277 961 "},"ľ":{"x_min":101.390625,"x_max":422.21875,"ha":339,"o":"m 101 0 l 223 0 l 223 986 l 101 986 l 101 0 m 331 725 b 422 894 352 743 422 793 b 372 999 422 943 397 983 l 286 979 b 327 889 308 958 327 924 b 279 765 327 832 300 792 l 331 725 "},"":{"x_min":50,"x_max":377.78125,"ha":438,"o":"m 286 -215 l 286 -133 b 377 -109 326 -130 359 -118 l 363 -44 b 269 -62 343 -52 313 -62 b 143 72 200 -62 143 -15 b 272 206 143 150 193 206 b 356 187 312 206 338 197 l 375 256 b 286 276 352 266 320 276 l 286 355 l 222 355 l 222 275 b 50 66 115 256 50 172 b 97 -70 50 9 68 -38 b 222 -131 127 -104 166 -125 l 222 -215 l 286 -215 "},"ė":{"x_min":52.953125,"x_max":646.015625,"ha":696,"o":"m 641 313 b 646 370 644 327 646 345 b 368 686 646 494 589 686 b 52 325 172 686 52 527 b 383 -15 52 122 176 -15 b 608 27 490 -15 565 8 l 586 115 b 400 80 541 95 487 80 b 169 313 276 80 172 148 l 641 313 m 171 401 b 358 598 180 486 233 598 b 527 401 496 598 529 477 l 171 401 m 352 791 b 422 862 394 791 422 825 b 354 934 422 902 393 934 b 283 862 315 934 283 902 b 352 791 283 825 312 791 "},"ề":{"x_min":53,"x_max":646.015625,"ha":696,"o":"m 640 313 b 646 370 644 327 646 345 b 368 686 646 494 589 686 b 53 325 172 686 53 527 b 383 -15 53 122 176 -15 b 608 27 490 -15 565 8 l 586 115 b 400 80 541 95 487 80 b 169 313 276 80 172 148 l 640 313 m 171 401 b 358 598 180 486 233 598 b 528 401 496 598 529 477 l 171 401 m 421 1075 l 550 893 l 619 893 l 532 1075 l 421 1075 m 321 962 l 203 763 l 293 763 l 364 894 l 366 894 l 437 763 l 530 763 l 409 962 l 321 962 "},"Í":{"x_min":93.0625,"x_max":369.4375,"ha":332,"o":"m 104 936 l 104 0 l 226 0 l 226 936 l 104 936 m 222 1148 l 93 986 l 191 986 l 369 1148 l 222 1148 "},"":{"x_min":36.109375,"x_max":365.28125,"ha":503,"o":"m 365 0 l 365 673 l 263 673 l 36 572 l 58 480 l 245 566 l 248 566 l 248 0 l 365 0 "},"":{"x_min":4.171875,"x_max":580.5625,"ha":621,"o":"m 580 0 l 580 101 l 176 101 l 176 104 l 247 170 b 558 655 437 354 558 488 b 281 918 558 784 476 918 b 27 826 179 918 88 877 l 66 740 b 258 816 108 775 176 816 b 436 640 393 816 436 731 b 100 168 436 504 330 387 l 4 75 l 4 0 l 580 0 "},"⁾":{"x_min":18.0625,"x_max":195.828125,"ha":250,"o":"m 88 533 b 195 869 138 602 195 709 b 88 1205 195 1031 138 1138 l 18 1205 b 118 869 73 1125 118 1016 b 18 533 118 722 72 615 l 88 533 "},"Ú":{"x_min":104.171875,"x_max":794.453125,"ha":899,"o":"m 104 936 l 104 384 b 440 -15 104 93 248 -15 b 794 388 643 -15 794 101 l 794 936 l 672 936 l 672 380 b 444 83 672 175 581 83 b 226 380 319 83 226 172 l 226 936 l 104 936 m 509 1148 l 380 986 l 479 986 l 656 1148 l 509 1148 "},"Ơ":{"x_min":50.265625,"x_max":943.34375,"ha":957,"o":"m 478 83 b 178 463 286 83 178 264 b 479 853 178 664 278 853 b 778 471 680 853 778 659 b 478 83 778 259 669 83 m 822 1028 b 846 939 836 1003 846 973 b 783 877 846 898 829 877 b 629 927 739 877 672 913 b 483 952 593 941 540 952 b 50 460 233 952 50 758 b 471 -15 50 177 222 -15 b 905 477 710 -15 905 156 b 797 808 905 624 860 737 b 943 933 897 799 943 856 b 916 1046 943 980 930 1016 l 822 1028 "},"":{"x_min":50,"x_max":377.78125,"ha":438,"o":"m 286 358 l 286 440 b 377 463 326 443 359 454 l 363 529 b 269 511 343 520 313 511 b 143 645 200 511 143 558 b 272 780 143 723 193 780 b 356 761 312 780 338 770 l 375 830 b 286 850 352 840 320 850 l 286 929 l 222 929 l 222 848 b 50 640 115 830 50 745 b 97 502 50 583 68 534 b 222 441 127 469 166 448 l 222 358 l 286 358 "},"Ŷ":{"x_min":16.671875,"x_max":748.609375,"ha":751,"o":"m 436 0 l 436 398 l 748 936 l 612 936 l 477 677 b 383 484 441 606 408 545 l 380 484 b 287 677 351 550 322 606 l 155 936 l 16 936 l 313 397 l 313 0 l 436 0 m 327 1144 l 186 986 l 284 986 l 373 1081 l 376 1081 l 463 986 l 566 986 l 420 1144 l 327 1144 "},"":{"x_min":44.4375,"x_max":690.28125,"ha":736,"o":"m 690 69 l 690 162 l 563 162 l 563 683 l 431 683 l 44 149 l 44 69 l 450 69 l 450 -162 l 563 -162 l 563 69 l 690 69 m 450 162 l 166 162 l 165 167 l 373 443 b 448 574 400 483 426 529 l 454 572 b 450 442 450 528 450 486 l 450 162 "},"Ự":{"x_min":104.171875,"x_max":940.28125,"ha":940,"o":"m 823 1069 b 845 988 837 1044 845 1015 b 781 936 845 952 829 936 l 672 936 l 672 380 b 444 83 672 175 581 83 b 226 380 319 83 226 172 l 226 936 l 104 936 l 104 384 b 440 -15 104 93 248 -15 b 794 388 643 -15 794 101 l 794 862 l 815 863 b 940 981 898 866 940 913 b 916 1086 940 1020 930 1055 l 823 1069 m 469 -111 b 398 -183 430 -111 398 -143 b 468 -254 398 -220 427 -254 b 537 -183 509 -254 537 -220 b 469 -111 537 -143 508 -111 "},"Ý":{"x_min":16.78125,"x_max":748.71875,"ha":751,"o":"m 436 0 l 436 398 l 748 936 l 612 936 l 477 677 b 383 484 441 606 408 545 l 380 484 b 287 677 351 550 322 606 l 155 936 l 16 936 l 314 397 l 314 0 l 436 0 m 444 1141 l 315 979 l 414 979 l 591 1141 l 444 1141 "},"ŝ":{"x_min":55.9375,"x_max":494.015625,"ha":550,"o":"m 55 31 b 244 -15 103 4 171 -15 b 494 187 401 -15 494 68 b 317 388 494 287 433 345 b 191 504 230 423 191 448 b 302 595 191 554 230 595 b 439 555 365 595 413 572 l 469 644 b 305 686 432 668 373 686 b 73 488 162 686 73 597 b 252 298 73 408 130 343 b 376 176 341 265 376 234 b 247 76 376 119 334 76 b 85 123 186 76 122 101 l 55 31 m 234 962 l 104 763 l 196 763 l 274 894 l 277 894 l 359 763 l 452 763 l 319 962 l 234 962 "},"₁":{"x_min":30.5625,"x_max":245.828125,"ha":339,"o":"m 245 -204 l 245 337 l 161 337 l 30 276 l 45 204 l 145 252 l 148 252 l 148 -204 l 245 -204 "},"ą":{"x_min":48.921875,"x_max":645.96875,"ha":669,"o":"m 573 412 b 318 686 573 545 523 686 b 96 627 233 686 151 662 l 123 545 b 300 595 171 577 236 595 b 452 441 437 597 452 495 l 452 427 b 48 177 193 429 48 340 b 254 -15 48 80 118 -15 b 459 84 350 -15 422 31 l 464 84 l 473 4 b 407 -168 447 -34 407 -98 b 530 -286 407 -244 459 -286 b 645 -252 568 -286 612 -276 l 626 -188 b 562 -202 608 -197 589 -202 b 495 -133 523 -202 495 -180 b 550 0 495 -84 529 -27 l 584 0 b 573 161 576 44 573 98 l 573 412 m 455 226 b 450 187 455 213 454 200 b 284 75 430 130 373 75 b 171 191 223 75 171 111 b 455 343 171 322 322 345 l 455 226 "},"":{"x_min":77.78125,"x_max":241.671875,"ha":319,"o":"m 226 0 l 206 662 l 112 662 l 93 0 l 226 0 m 161 948 b 77 861 112 948 77 912 b 159 776 77 813 111 776 b 241 861 209 776 241 813 b 161 948 241 912 209 948 "},"Ắ":{"x_min":36,"x_max":819,"ha":850,"o":"m 588 294 l 688 0 l 819 0 l 498 936 l 353 936 l 36 0 l 160 0 l 258 294 l 588 294 m 281 388 l 373 659 b 420 829 392 718 406 775 l 423 829 b 471 658 437 775 451 719 l 564 388 l 281 388 m 256 1113 b 428 970 266 1036 320 970 b 603 1113 537 970 594 1040 l 538 1113 b 430 1045 527 1076 501 1045 b 323 1113 362 1045 333 1080 l 256 1113 m 483 1244 l 378 1098 l 455 1098 l 609 1244 l 483 1244 "},"ã":{"x_min":48.921875,"x_max":583.640625,"ha":669,"o":"m 573 412 b 318 686 573 545 523 686 b 96 627 233 686 151 662 l 123 545 b 300 595 171 577 236 595 b 453 441 437 597 453 495 l 453 427 b 48 177 193 429 48 340 b 254 -15 48 80 118 -15 b 460 84 350 -15 422 31 l 464 84 l 473 0 l 583 0 b 573 161 576 45 573 102 l 573 412 m 455 226 b 450 187 455 215 454 201 b 285 75 430 130 373 75 b 171 191 223 75 171 111 b 455 343 171 322 322 345 l 455 226 m 226 787 b 262 850 229 826 240 850 b 322 825 279 850 294 841 b 408 795 351 809 378 795 b 503 936 473 795 504 844 l 437 936 b 398 877 435 890 421 877 b 340 901 382 877 362 888 b 254 931 308 918 285 931 b 160 787 194 931 157 877 l 226 787 "},"":{"x_min":137.5,"x_max":276.390625,"ha":417,"o":"m 208 -111 b 137 -183 169 -111 137 -143 b 206 -254 137 -220 166 -254 b 276 -183 248 -254 276 -220 b 208 -111 276 -143 247 -111 "},"æ":{"x_min":50.0625,"x_max":1023.890625,"ha":1074,"o":"m 1019 323 b 1023 377 1022 336 1023 356 b 761 686 1023 488 966 686 b 526 544 654 686 571 631 l 523 544 b 307 686 496 630 427 686 b 97 625 240 686 157 663 l 126 545 b 298 595 166 573 234 595 b 454 447 434 595 454 480 l 454 419 b 50 176 194 423 50 331 b 259 -15 50 79 119 -15 b 508 133 375 -15 466 40 l 512 133 b 768 -15 551 37 652 -15 b 989 30 857 -15 936 2 l 966 116 b 783 79 930 100 876 79 b 568 323 657 79 564 163 l 1019 323 m 457 238 b 450 190 457 222 454 205 b 287 75 430 127 375 73 b 170 186 223 75 170 115 b 457 337 170 318 327 340 l 457 238 m 568 411 b 748 600 572 487 626 600 b 907 411 872 600 909 479 l 568 411 "},"":{"x_min":43.0625,"x_max":387.5,"ha":417,"o":"m 233 1080 b 329 1225 269 1143 329 1156 b 219 1322 329 1279 281 1322 b 86 1233 151 1322 111 1281 l 130 1206 b 197 1255 147 1229 169 1255 b 244 1211 223 1255 244 1237 b 173 1097 244 1168 194 1154 l 233 1080 m 43 1113 b 212 970 51 1037 104 970 b 387 1113 322 970 379 1040 l 323 1113 b 213 1045 312 1076 286 1045 b 108 1113 145 1045 116 1080 l 43 1113 "},"ĩ":{"x_min":-8.46875,"x_max":334.765625,"ha":325,"o":"m 223 0 l 223 672 l 101 672 l 101 0 l 223 0 m 58 787 b 94 850 61 826 72 850 b 154 826 111 850 126 841 b 240 795 183 809 209 795 b 334 936 305 795 336 844 l 269 936 b 231 877 266 890 252 877 b 172 901 213 877 194 888 b 86 931 140 918 116 931 b -8 787 26 931 -11 877 l 58 787 "},"":{"x_min":50,"x_max":663.890625,"ha":713,"o":"m 365 918 b 50 448 181 918 50 752 b 350 -15 52 150 173 -15 b 663 461 548 -15 663 154 b 365 918 663 748 554 918 m 356 823 b 540 455 484 823 540 677 b 356 79 540 225 480 79 b 173 447 245 79 173 212 b 356 823 173 693 251 823 "},"~":{"x_min":67.890625,"x_max":760.15625,"ha":828,"o":"m 151 291 b 233 409 152 375 183 409 b 400 348 283 409 334 380 b 601 287 495 304 545 287 b 759 497 687 287 766 343 l 677 497 b 602 380 676 420 652 380 b 430 438 551 380 500 405 b 233 501 336 483 291 501 b 68 291 137 501 63 430 l 151 291 "},"ŀ":{"x_min":101.390625,"x_max":415.28125,"ha":378,"o":"m 101 0 l 223 0 l 223 986 l 101 986 l 101 0 m 350 473 b 415 543 388 473 415 505 b 351 612 415 581 387 612 b 284 543 313 612 284 580 b 350 473 284 505 312 473 "},"":{"x_min":41.671875,"x_max":384.71875,"ha":426,"o":"m 41 523 l 41 434 l 384 434 l 384 523 l 41 523 "},"":{"x_min":51.390625,"x_max":661.109375,"ha":713,"o":"m 230 470 b 51 227 119 423 51 341 b 354 -15 51 95 165 -15 b 661 247 526 -15 661 88 b 479 480 661 355 591 436 l 479 484 b 629 695 590 536 629 619 b 365 918 629 809 540 918 b 84 677 205 918 84 820 b 229 475 84 600 127 522 l 230 470 m 356 73 b 176 244 241 73 172 154 b 338 431 176 330 233 401 b 537 234 461 397 537 343 b 356 73 537 141 466 73 m 358 830 b 511 683 468 830 511 755 b 373 519 511 601 451 545 b 201 686 269 547 200 595 b 358 830 201 763 256 830 "},"Ċ":{"x_min":50,"x_max":761.109375,"ha":806,"o":"m 734 126 b 536 87 686 102 611 87 b 177 463 309 87 177 233 b 543 850 177 709 323 850 b 730 811 620 850 686 833 l 761 909 b 538 951 729 926 654 951 b 50 459 248 951 50 754 b 511 -15 50 151 247 -15 b 758 29 625 -15 715 6 l 734 126 m 483 998 b 551 1069 522 998 551 1031 b 484 1138 551 1105 522 1138 b 415 1069 445 1138 415 1105 b 483 998 415 1031 444 998 "},"¡":{"x_min":77.78125,"x_max":241.671875,"ha":319,"o":"m 226 -270 l 206 391 l 112 391 l 93 -270 l 226 -270 m 161 677 b 77 590 112 677 77 641 b 159 505 77 543 111 505 b 241 590 209 505 241 543 b 161 677 241 641 209 677 "},"ẅ":{"x_min":25,"x_max":1001.390625,"ha":1022,"o":"m 25 673 l 227 1 l 338 1 l 447 320 b 508 543 470 393 491 462 l 511 543 b 570 322 527 463 547 397 l 673 1 l 784 1 l 1001 673 l 880 673 l 784 336 b 733 118 762 256 744 186 l 729 118 b 669 337 713 186 694 256 l 565 673 l 462 673 l 352 330 b 293 118 330 258 308 186 l 288 118 b 240 331 276 187 258 256 l 150 673 l 25 673 m 380 793 b 450 863 422 793 450 826 b 383 934 450 904 420 934 b 312 863 343 934 312 902 b 380 793 312 826 341 793 m 638 793 b 708 863 680 793 708 826 b 640 934 708 904 679 934 b 570 863 601 934 570 902 b 638 793 570 826 598 793 "},"ậ":{"x_min":48.921875,"x_max":583.75,"ha":669,"o":"m 574 412 b 318 686 574 545 524 686 b 96 627 233 686 151 662 l 123 545 b 300 595 171 577 236 595 b 453 441 437 597 453 495 l 453 427 b 48 177 193 429 48 340 b 254 -15 48 80 118 -15 b 460 84 350 -15 422 31 l 464 84 l 474 0 l 583 0 b 574 161 576 45 574 102 l 574 412 m 455 226 b 450 187 455 215 454 201 b 284 75 430 130 373 75 b 171 191 223 75 171 111 b 455 343 171 322 322 345 l 455 226 m 290 962 l 161 763 l 253 763 l 332 894 l 335 894 l 417 763 l 510 763 l 376 962 l 290 962 m 335 -111 b 264 -183 296 -111 264 -143 b 333 -254 264 -220 293 -254 b 403 -183 375 -254 403 -220 b 335 -111 403 -143 373 -111 "},"К":{"x_min":105.5625,"x_max":740.28125,"ha":753,"o":"m 105 936 l 105 0 l 226 0 l 226 429 l 265 429 b 525 220 423 429 481 344 b 611 0 551 147 576 63 l 740 0 b 637 265 700 83 673 169 b 375 506 590 391 530 486 l 729 936 l 584 936 l 263 520 l 226 520 l 226 936 l 105 936 "},"Γ":{"x_min":104.171875,"x_max":606.9375,"ha":626,"o":"m 104 936 l 104 0 l 226 0 l 226 834 l 606 834 l 606 936 l 104 936 "},"Ử":{"x_min":104.171875,"x_max":940.28125,"ha":940,"o":"m 823 1069 b 845 988 837 1044 845 1015 b 781 936 845 952 829 936 l 672 936 l 672 380 b 444 83 672 175 581 83 b 226 380 319 83 226 172 l 226 936 l 104 936 l 104 384 b 440 -15 104 93 248 -15 b 794 388 643 -15 794 101 l 794 862 l 815 863 b 940 981 898 866 940 913 b 916 1086 940 1020 930 1055 l 823 1069 m 504 984 b 602 1134 540 1048 602 1063 b 487 1234 602 1190 551 1234 b 350 1141 416 1234 375 1191 l 397 1113 b 465 1162 412 1137 436 1162 b 511 1118 493 1162 511 1145 b 438 1002 511 1073 461 1062 l 504 984 "},"P":{"x_min":105.5625,"x_max":681.953125,"ha":739,"o":"m 105 0 l 226 0 l 226 375 b 323 366 254 368 287 366 b 609 469 441 366 544 401 b 681 669 656 518 681 585 b 600 865 681 753 650 821 b 337 943 544 915 456 943 b 105 925 240 943 163 935 l 105 0 m 226 837 b 340 847 247 843 287 847 b 561 662 472 847 561 787 b 326 464 561 536 472 464 b 226 473 286 464 252 466 l 226 837 "},"%":{"x_min":41.671875,"x_max":1056.953125,"ha":1100,"o":"m 261 918 b 41 636 138 918 41 816 b 252 365 43 455 138 365 b 468 650 369 365 468 459 b 261 918 468 820 386 918 m 254 844 b 372 643 340 844 372 754 b 255 438 372 525 336 438 b 137 641 179 438 134 526 b 254 844 137 754 179 844 m 320 -16 l 852 919 l 775 919 l 243 -16 l 320 -16 m 850 544 b 630 262 727 544 630 443 b 841 -9 631 80 727 -9 b 1056 275 958 -9 1056 84 b 850 544 1056 447 975 544 m 843 470 b 961 269 929 470 961 379 b 844 63 961 150 925 63 b 726 266 768 63 723 151 b 843 470 726 380 768 470 "},"":{"x_min":25.96875,"x_max":391.25,"ha":408,"o":"m 25 538 l 25 462 l 292 462 l 292 461 l 55 0 l 152 0 l 391 479 l 391 538 l 25 538 "},"_":{"x_min":0,"x_max":694.453125,"ha":694,"o":"m 0 -104 l 0 -173 l 694 -173 l 694 -104 l 0 -104 "},"ñ":{"x_min":95.828125,"x_max":673.609375,"ha":771,"o":"m 101 0 l 223 0 l 223 404 b 231 461 223 425 226 445 b 395 586 254 529 316 586 b 551 387 511 586 551 495 l 551 0 l 673 0 l 673 400 b 436 686 673 630 529 686 b 213 561 325 686 247 623 l 211 561 l 204 672 l 95 672 b 101 490 100 616 101 561 l 101 0 m 281 787 b 318 850 284 826 295 850 b 377 825 334 850 350 840 b 462 795 405 809 431 795 b 556 936 527 795 558 844 l 491 936 b 454 877 488 890 475 877 b 395 901 436 877 418 888 b 309 931 363 918 340 931 b 215 787 250 931 212 877 l 281 787 "},"Ŕ":{"x_min":105.5625,"x_max":715.28125,"ha":747,"o":"m 105 0 l 226 0 l 226 405 l 340 405 b 529 223 450 401 501 352 b 590 0 554 106 575 27 l 715 0 b 643 256 695 36 673 126 b 506 445 620 354 577 420 l 506 450 b 681 687 604 483 681 565 b 608 866 681 761 654 825 b 337 943 551 918 466 943 b 105 923 255 943 166 934 l 105 0 m 226 838 b 345 848 247 844 287 848 b 561 675 473 848 561 795 b 350 497 561 568 479 497 l 226 497 l 226 838 m 419 1151 l 290 988 l 388 988 l 566 1151 l 419 1151 "},"‚":{"x_min":29.0625,"x_max":236,"ha":288,"o":"m 106 -155 b 236 175 144 -91 204 58 l 111 161 b 29 -163 95 61 58 -81 l 106 -155 "},"Æ":{"x_min":-1.125,"x_max":1050.140625,"ha":1094,"o":"m 123 0 l 273 329 l 561 329 l 602 0 l 1048 0 l 1050 101 l 707 101 l 665 436 l 998 436 l 998 536 l 650 536 l 614 834 l 1011 834 l 1012 936 l 426 936 l -1 0 l 123 0 m 314 427 l 434 701 b 494 848 455 751 477 804 l 500 848 b 516 697 502 801 511 740 l 547 427 l 314 427 "},"Ū":{"x_min":104.171875,"x_max":794.453125,"ha":899,"o":"m 104 936 l 104 384 b 440 -15 104 93 248 -15 b 794 388 643 -15 794 101 l 794 936 l 672 936 l 672 380 b 444 83 672 175 581 83 b 226 380 319 83 226 172 l 226 936 l 104 936 m 281 1094 l 281 1018 l 615 1018 l 615 1094 l 281 1094 "},"ы":{"x_min":97.21875,"x_max":825,"ha":924,"o":"m 97 672 l 97 2 b 277 -6 148 -2 211 -6 b 548 70 366 -6 475 8 b 619 226 591 106 619 155 b 327 452 619 393 472 452 b 219 444 283 452 244 448 l 219 672 l 97 672 m 218 356 b 308 365 243 362 273 365 b 497 223 400 365 497 331 b 302 80 497 118 397 80 b 218 86 269 80 243 81 l 218 356 m 704 672 l 704 0 l 825 0 l 825 672 l 704 672 "},"ѓ":{"x_min":98.609375,"x_max":511.109375,"ha":535,"o":"m 98 672 l 98 0 l 219 0 l 219 575 l 511 575 l 511 672 l 98 672 m 347 962 l 225 763 l 311 763 l 480 962 l 347 962 "},"Œ":{"x_min":50,"x_max":1190.28125,"ha":1242,"o":"m 1190 101 l 784 101 l 784 437 l 1147 437 l 1147 537 l 784 537 l 784 834 l 1169 834 l 1169 936 l 722 936 b 633 944 697 936 668 940 b 511 952 598 948 559 952 b 50 461 241 952 50 769 b 504 -15 50 193 212 -15 b 619 -8 547 -15 584 -11 b 711 0 652 -4 683 0 l 1190 0 l 1190 101 m 662 101 b 526 83 631 90 577 83 b 177 466 305 83 177 238 b 513 854 177 695 305 854 b 662 833 581 854 626 845 l 662 101 "},"΅":{"x_min":5.5625,"x_max":470.828125,"ha":481,"o":"m 211 986 l 181 768 l 248 768 l 316 986 l 211 986 m 69 795 b 134 861 108 795 134 826 b 72 927 134 898 106 927 b 5 861 34 927 5 898 b 69 795 5 826 31 795 m 404 795 b 470 861 444 795 470 826 b 406 927 470 898 443 927 b 341 861 370 927 341 898 b 404 795 341 826 368 795 "},"Ạ":{"x_min":34.71875,"x_max":818.0625,"ha":850,"o":"m 588 294 l 688 0 l 818 0 l 498 936 l 354 936 l 34 0 l 159 0 l 256 294 l 588 294 m 281 388 l 373 659 b 420 829 393 716 406 773 l 423 829 b 472 658 437 775 451 719 l 565 388 l 281 388 m 420 -111 b 350 -181 381 -111 350 -143 b 419 -254 350 -220 379 -254 b 488 -181 461 -254 488 -220 b 420 -111 488 -143 459 -111 "},"Ą":{"x_min":35.265625,"x_max":847.765625,"ha":850,"o":"m 499 936 l 354 936 l 35 0 l 161 0 l 257 294 l 589 294 l 688 5 b 606 -165 656 -31 606 -97 b 736 -286 606 -244 658 -286 b 847 -252 769 -286 818 -275 l 828 -190 b 765 -204 811 -198 789 -204 b 694 -131 725 -204 694 -177 b 768 -2 694 -81 746 -25 l 819 0 l 499 936 m 282 388 l 374 659 b 421 829 393 716 407 775 l 424 829 b 472 658 438 775 451 719 l 565 388 l 282 388 "},"Њ":{"x_min":104.171875,"x_max":1191.671875,"ha":1246,"o":"m 104 936 l 104 0 l 226 0 l 226 459 l 597 459 l 597 3 b 787 -8 637 -2 700 -8 b 1113 94 919 -8 1036 18 b 1191 297 1161 141 1191 207 b 847 578 1191 494 1029 578 b 718 571 797 578 747 575 l 718 936 l 597 936 l 597 562 l 226 562 l 226 936 l 104 936 m 718 478 b 822 483 744 480 779 483 b 1065 293 950 483 1065 430 b 816 86 1065 148 948 86 b 718 93 776 86 747 87 l 718 478 "},"ỷ":{"x_min":12.5,"x_max":644.4375,"ha":654,"o":"m 12 672 l 259 52 b 269 20 266 37 269 27 b 259 -8 269 13 265 4 b 156 -144 230 -70 190 -118 b 50 -204 120 -175 80 -194 l 80 -305 b 230 -227 111 -300 169 -279 b 461 193 313 -154 373 -37 l 644 672 l 515 672 l 381 277 b 338 137 365 229 351 177 l 336 137 b 291 275 325 177 308 230 l 145 672 l 12 672 m 359 736 b 463 898 390 800 463 820 b 347 1002 463 961 412 1002 b 211 911 277 1002 234 961 l 258 881 b 325 930 273 906 295 930 b 372 884 351 930 372 912 b 293 752 372 833 309 813 l 359 736 "},"›":{"x_min":33,"x_max":315,"ha":354,"o":"m 217 350 l 33 94 l 130 94 l 315 350 l 130 605 l 33 605 l 217 350 "},"ћ":{"x_min":9.71875,"x_max":695.828125,"ha":793,"o":"m 9 868 l 9 780 l 123 780 l 123 0 l 245 0 l 245 393 b 254 456 245 416 248 438 b 418 577 276 519 336 577 b 573 379 533 577 573 487 l 573 0 l 695 0 l 695 393 b 461 679 695 580 601 679 b 331 644 412 679 369 666 b 248 562 298 625 270 597 l 245 562 l 245 780 l 526 780 l 526 868 l 245 868 l 245 986 l 123 986 l 123 868 l 9 868 "},"":{"x_min":31.9375,"x_max":434.71875,"ha":467,"o":"m 229 362 b 434 644 365 362 434 475 b 236 918 434 812 363 918 b 31 638 111 918 31 811 b 229 362 31 466 108 362 m 233 433 b 129 641 169 433 129 508 b 233 847 129 772 170 847 b 337 641 302 847 337 770 b 233 433 337 511 301 433 "},"":{"x_min":29.171875,"x_max":151.390625,"ha":182,"o":"m 88 606 b 151 669 126 606 151 634 b 90 731 151 706 126 731 b 29 669 55 731 29 706 b 88 606 29 634 54 606 "},"<":{"x_min":91.671875,"x_max":736.109375,"ha":828,"o":"m 91 331 l 736 0 l 736 95 l 193 368 l 193 370 l 736 643 l 736 738 l 91 406 l 91 331 "},"¬":{"x_min":55.5625,"x_max":772.21875,"ha":828,"o":"m 55 554 l 55 470 l 683 470 l 683 168 l 772 168 l 772 554 l 55 554 "},"t":{"x_min":25,"x_max":423.609375,"ha":460,"o":"m 129 797 l 129 672 l 25 672 l 25 579 l 129 579 l 129 212 b 176 36 129 133 143 73 b 308 -15 205 4 251 -15 b 416 1 355 -15 393 -6 l 411 94 b 340 86 393 88 373 86 b 248 216 272 86 248 133 l 248 579 l 423 579 l 423 672 l 248 672 l 248 833 l 129 797 "},"Ц":{"x_min":104.171875,"x_max":859.71875,"ha":906,"o":"m 104 936 l 104 0 l 748 0 l 756 -226 l 851 -226 l 859 95 l 777 98 l 777 936 l 655 936 l 655 101 l 226 101 l 226 936 l 104 936 "},"":{"x_min":33.328125,"x_max":422.21875,"ha":456,"o":"m 233 918 b 52 771 130 918 52 860 b 140 651 52 723 80 678 l 140 647 b 33 508 73 621 33 575 b 225 362 33 433 100 362 b 422 521 340 362 422 426 b 313 657 422 587 376 633 l 313 660 b 401 783 376 687 401 736 b 233 918 401 853 345 918 m 227 428 b 126 519 163 428 126 472 b 218 619 126 566 158 603 b 327 514 283 603 327 575 b 227 428 327 465 288 428 m 227 854 b 313 773 288 854 313 812 b 237 685 313 728 280 698 b 140 776 177 700 140 728 b 227 854 140 818 170 854 "}}}
